<svg width="48" height="48" xmlns="http://www.w3.org/2000/svg" xmlns:xlink="http://www.w3.org/1999/xlink" xml:space="preserve" overflow="hidden"><defs><clipPath id="clip0"><rect x="594" y="528" width="48" height="48"/></clipPath></defs><g clip-path="url(#clip0)" transform="translate(-594 -528)"><path d="M619.225 571.356 619.225 563.175 627.837 558.204C628.147 558.025 628.337 557.695 628.337 557.337L628.337 547.223 635.45 543.118 635.45 561.988 619.225 571.356ZM601 543.118 608.113 547.223 608.113 557.337C608.113 557.695 608.303 558.025 608.613 558.204L617.225 563.175 617.225 571.356 601 561.988 601 543.118ZM619.225 552.584 626.337 548.478 626.337 556.76 619.225 560.867 619.225 552.584ZM610.113 548.477 617.225 552.584 617.225 560.867 610.113 556.76 610.113 548.477ZM618.225 550.752 611.259 546.73 618.225 542.709 625.191 546.73 618.225 550.752ZM618.225 532.154 634.331 541.453 627.191 545.576 618.725 540.688C618.416 540.51 618.034 540.51 617.725 540.688L609.259 545.576 602.119 541.453 618.225 532.154ZM636.95 540.655 618.725 530.133C618.416 529.956 618.034 529.956 617.725 530.133L599.5 540.655C599.191 540.834 599 541.164 599 541.521L599 562.565C599 562.922 599.191 563.252 599.5 563.431L617.725 573.954C617.879 574.043 618.052 574.087 618.225 574.087 618.398 574.087 618.571 574.043 618.725 573.954L636.95 563.431C637.259 563.252 637.45 562.922 637.45 562.565L637.45 541.521C637.45 541.164 637.259 540.834 636.95 540.655L636.95 540.655Z" fill="#8C4FFF" fill-rule="evenodd"/></g></svg>