<svg width="48" height="48" xmlns="http://www.w3.org/2000/svg" xmlns:xlink="http://www.w3.org/1999/xlink" xml:space="preserve" overflow="hidden"><defs><clipPath id="clip0"><rect x="384" y="415" width="48" height="48"/></clipPath></defs><g clip-path="url(#clip0)" transform="translate(-384 -415)"><path d="M414.283 439.375 415.845 440.624 411.845 445.624C411.648 445.87 411.358 446 411.063 446 410.873 446 410.679 445.945 410.51 445.832L407.51 443.832 408.619 442.167 410.856 443.659 414.283 439.375ZM427.491 458.436C427.006 458.923 426.272 459.236 425.819 458.783L419.356 452.168C420.043 451.612 420.669 450.985 421.225 450.298L427.846 456.741C428.286 457.181 428 457.927 427.491 458.436L427.491 458.436ZM401.054 442.472C401.054 436.698 405.753 432 411.527 432 417.302 432 422 436.698 422 442.472 422 448.247 417.302 452.944 411.527 452.944 405.753 452.944 401.054 448.247 401.054 442.472L401.054 442.472ZM429.25 455.317 422.367 448.618C423.401 446.802 424 444.707 424 442.472 424 435.595 418.405 430 411.527 430 404.649 430 399.054 435.595 399.054 442.472 399.054 449.349 404.649 454.944 411.527 454.944 413.764 454.944 415.859 454.345 417.676 453.31L424.397 460.189C424.935 460.728 425.628 460.992 426.352 460.992 427.227 460.992 428.149 460.606 428.905 459.85 430.296 458.459 430.448 456.515 429.25 455.317L429.25 455.317ZM411.527 449.689C407.48 449.689 404.309 446.519 404.309 442.472 404.309 438.425 407.48 435.254 411.527 435.254 415.574 435.254 418.745 438.425 418.745 442.472 418.745 446.519 415.574 449.689 411.527 449.689L411.527 449.689ZM411.527 433.254C406.358 433.254 402.309 437.303 402.309 442.472 402.309 447.641 406.358 451.689 411.527 451.689 416.696 451.689 420.745 447.641 420.745 442.472 420.745 437.303 416.696 433.254 411.527 433.254L411.527 433.254ZM400.064 419C407.687 419 413 421.107 413 423 413 424.966 408.535 427 401.064 427 393.365 427 388 424.892 388 423 388 421.033 392.512 419 400.064 419L400.064 419ZM400.135 459C392.539 459 388 456.878 388 454.828L388 447.509C390.288 449.367 394.329 450.646 399.039 450.768L399.09 448.769C392.554 448.601 388 446.12 388 444L388 437.465C389.92 438.971 393.093 440.051 396.981 440.375L397.147 438.382C391.497 437.912 388 435.741 388 434L388 426.193C390.785 428.104 396.055 429 401.064 429 406.441 429 410.668 427.992 413 426.316L413 428 415 428 415 423C415 418.877 407.258 417 400.064 417 391.652 417 386 419.411 386 423L386 454.828C386 458.52 391.68 461 400.135 461 406.227 461 411.419 459.68 413.684 457.555L412.315 456.096C410.465 457.833 405.569 459 400.135 459L400.135 459Z" fill="#8C4FFF" fill-rule="evenodd"/></g></svg>