<svg width="40" height="40" xmlns="http://www.w3.org/2000/svg" xmlns:xlink="http://www.w3.org/1999/xlink" xml:space="preserve" overflow="hidden"><defs><clipPath id="clip0"><rect x="37" y="507" width="40" height="40"/></clipPath></defs><g clip-path="url(#clip0)" transform="translate(-37 -507)"><path d="M37 507 77 507 77 547 37 547Z" stroke="#8C4FFF" fill="none" fill-rule="evenodd"/><path d="M60 529 70 529 70 525 60 525 60 529ZM70.5 524 59.5 524C59.224 524 59 524.224 59 524.5L59 529.5C59 529.776 59.224 530 59.5 530L70.5 530C70.776 530 71 529.776 71 529.5L71 524.5C71 524.224 70.776 524 70.5 524L70.5 524ZM59 538.5C59 539.327 58.327 540 57.5 540 56.673 540 56 539.327 56 538.5 56 537.673 56.673 537 57.5 537 58.327 537 59 537.673 59 538.5L59 538.5ZM44 531 53 531 53 529 44 529 44 531ZM44 525 44 523 48 523 49 523 53 523 53 525 44 525ZM56 515.5C56 514.673 56.673 514 57.5 514 58.327 514 59 514.673 59 515.5 59 516.327 58.327 517 57.5 517 56.673 517 56 516.327 56 515.5L56 515.5ZM65 534 49 534 49 532 53.5 532C53.776 532 54 531.776 54 531.5L54 528.5C54 528.224 53.776 528 53.5 528L49 528 49 526 53.5 526C53.776 526 54 525.776 54 525.5L54 522.5C54 522.224 53.776 522 53.5 522L49 522 49 520 65 520 65 522 66 522 66 519.5C66 519.224 65.776 519 65.5 519L58 519 58 517.949C59.14 517.717 60 516.707 60 515.5 60 514.122 58.879 513 57.5 513 56.121 513 55 514.122 55 515.5 55 516.707 55.86 517.717 57 517.949L57 519 48.5 519C48.224 519 48 519.224 48 519.5L48 522 43.5 522C43.224 522 43 522.224 43 522.5L43 525.5C43 525.776 43.224 526 43.5 526L48 526 48 528 43.5 528C43.224 528 43 528.224 43 528.5L43 531.5C43 531.776 43.224 532 43.5 532L48 532 48 534.5C48 534.776 48.224 535 48.5 535L57 535 57 536.051C55.86 536.283 55 537.293 55 538.5 55 539.878 56.121 541 57.5 541 58.879 541 60 539.878 60 538.5 60 537.293 59.14 536.283 58 536.051L58 535 65.5 535C65.776 535 66 534.776 66 534.5L66 532 65 532 65 534Z" stroke="#8C4FFF" fill="none" fill-rule="evenodd"/></g></svg>