<svg width="40" height="40" xmlns="http://www.w3.org/2000/svg" xmlns:xlink="http://www.w3.org/1999/xlink" xml:space="preserve" overflow="hidden"><defs><clipPath id="clip0"><rect x="443" y="391" width="40" height="40"/></clipPath></defs><g clip-path="url(#clip0)" transform="translate(-443 -391)"><path d="M443 391 483 391 483 431 443 431Z" fill="#E7157B" fill-rule="evenodd"/><path d="M467.5 413C469.43 413 471 414.57 471 416.5 471 418.43 469.43 420 467.5 420 465.57 420 464 418.43 464 416.5 464 414.57 465.57 413 467.5 413L467.5 413ZM467.5 421C469.981 421 472 418.981 472 416.5 472 414.019 469.981 412 467.5 412 465.019 412 463 414.019 463 416.5 463 418.981 465.019 421 467.5 421L467.5 421ZM469.023 401.88 472.084 408 465.963 408 469.023 401.88ZM465.154 409 472.893 409C473.065 409 473.227 408.91 473.318 408.763 473.409 408.615 473.417 408.432 473.34 408.276L469.471 400.538C469.301 400.2 468.746 400.2 468.576 400.538L464.707 408.276C464.63 408.432 464.638 408.615 464.729 408.763 464.82 408.91 464.981 409 465.154 409L465.154 409ZM454 414 461 414 461 407 454 407 454 414ZM453.5 415 461.5 415C461.776 415 462 414.776 462 414.5L462 406.5C462 406.224 461.776 406 461.5 406L453.5 406C453.224 406 453 406.224 453 406.5L453 414.5C453 414.776 453.224 415 453.5 415L453.5 415ZM451 423 475 423 475 399 451 399 451 423ZM475.5 398 450.5 398C450.224 398 450 398.224 450 398.5L450 423.5C450 423.776 450.224 424 450.5 424L475.5 424C475.776 424 476 423.776 476 423.5L476 398.5C476 398.224 475.776 398 475.5 398L475.5 398Z" fill="#FFFFFF" fill-rule="evenodd"/></g></svg>