<svg width="48" height="48" xmlns="http://www.w3.org/2000/svg" xmlns:xlink="http://www.w3.org/1999/xlink" xml:space="preserve" overflow="hidden"><g transform="translate(-749 -295)"><path d="M782.69 329.375 785.035 329.375 785.035 327 782.69 327 782.69 329.375ZM775.751 329.375 778.126 329.375 778.126 327 775.751 327 775.751 329.375ZM767.876 329.375 770.251 329.375 770.251 327 767.876 327 767.876 329.375ZM760.966 329.375 763.251 329.375 763.251 327 760.966 327 760.966 329.375ZM767.001 311.875 779.001 311.875 779.001 306 767.001 306 767.001 311.875ZM786.035 325 784.501 325 784.501 321.625C784.501 321.072 784.053 320.625 783.501 320.625L781.001 320.625 781.001 317.25C781.001 316.697 780.553 316.25 780.001 316.25L774.001 316.25 774.001 313.875 780.001 313.875C780.553 313.875 781.001 313.428 781.001 312.875L781.001 305C781.001 304.447 780.553 304 780.001 304L766.001 304C765.448 304 765.001 304.447 765.001 305L765.001 312.875C765.001 313.428 765.448 313.875 766.001 313.875L772.001 313.875 772.001 316.25 766.001 316.25C765.448 316.25 765.001 316.697 765.001 317.25L765.001 320.625 762.501 320.625C761.948 320.625 761.501 321.072 761.501 321.625L761.501 325 759.965 325C759.413 325 758.965 325.447 758.965 326L758.965 330.375C758.965 330.928 759.413 331.375 759.965 331.375L764.251 331.375C764.803 331.375 765.251 330.928 765.251 330.375L765.251 326C765.251 325.447 764.803 325 764.251 325L763.501 325 763.501 322.625 767.626 322.625 767.626 325 766.876 325C766.323 325 765.876 325.447 765.876 326L765.876 330.375C765.876 330.928 766.323 331.375 766.876 331.375L771.251 331.375C771.803 331.375 772.251 330.928 772.251 330.375L772.251 326C772.251 325.447 771.803 325 771.251 325L769.626 325 769.626 321.625C769.626 321.072 769.178 320.625 768.626 320.625L767.001 320.625 767.001 318.25 779.001 318.25 779.001 320.625 777.376 320.625C776.823 320.625 776.376 321.072 776.376 321.625L776.376 325 774.751 325C774.198 325 773.751 325.447 773.751 326L773.751 330.375C773.751 330.928 774.198 331.375 774.751 331.375L779.126 331.375C779.678 331.375 780.126 330.928 780.126 330.375L780.126 326C780.126 325.447 779.678 325 779.126 325L778.376 325 778.376 322.625 782.501 322.625 782.501 325 781.69 325C781.137 325 780.69 325.447 780.69 326L780.69 330.375C780.69 330.928 781.137 331.375 781.69 331.375L786.035 331.375C786.587 331.375 787.035 330.928 787.035 330.375L787.035 326C787.035 325.447 786.587 325 786.035 325L786.035 325ZM773.001 339C761.972 339 753 330.028 753 319 753 307.972 761.972 299 773.001 299 784.029 299 793.001 307.972 793.001 319 793.001 330.028 784.029 339 773.001 339L773.001 339ZM773.001 297C760.869 297 751 306.869 751 319 751 331.131 760.869 341 773.001 341 785.131 341 795.001 331.131 795.001 319 795.001 306.869 785.131 297 773.001 297L773.001 297Z" fill="#8C4FFF" fill-rule="evenodd"/></g></svg>