<svg width="48" height="48" xmlns="http://www.w3.org/2000/svg" xmlns:xlink="http://www.w3.org/1999/xlink" xml:space="preserve" overflow="hidden"><g transform="translate(-279 -301)"><path d="M309.143 338.727 317.599 338.727 317.599 327.656 309.143 327.656 309.143 338.727ZM288.229 338.727 296.686 338.727 296.686 327.656 288.229 327.656 288.229 338.727ZM298.686 338.727 307.143 338.727 307.143 327.656 298.686 327.656 298.686 338.727ZM318.599 325.656 287.229 325.656C286.676 325.656 286.229 326.104 286.229 326.656L286.229 339.727C286.229 340.279 286.676 340.727 287.229 340.727L318.599 340.727C319.151 340.727 319.599 340.279 319.599 339.727L319.599 326.656C319.599 326.104 319.151 325.656 318.599 325.656L318.599 325.656ZM309.143 320.428 317.599 320.428 317.599 311.971 309.143 311.971 309.143 320.428ZM288.229 320.428 296.686 320.428 296.686 311.971 288.229 311.971 288.229 320.428ZM298.686 320.428 307.143 320.428 307.143 311.971 298.686 311.971 298.686 320.428ZM318.599 309.971 287.229 309.971C286.676 309.971 286.229 310.419 286.229 310.971L286.229 321.428C286.229 321.98 286.676 322.428 287.229 322.428L318.599 322.428C319.151 322.428 319.599 321.98 319.599 321.428L319.599 310.971C319.599 310.419 319.151 309.971 318.599 309.971L318.599 309.971ZM322.827 340.379C322.827 342.832 320.832 344.827 318.38 344.827L287.448 344.827C284.995 344.827 283 342.832 283 340.379L283 309.448C283 306.995 284.995 305 287.448 305L318.38 305C320.832 305 322.827 306.995 322.827 309.448L322.827 340.379ZM318.38 303 287.448 303C283.893 303 281 305.892 281 309.448L281 340.379C281 343.934 283.893 346.827 287.448 346.827L318.38 346.827C321.935 346.827 324.827 343.934 324.827 340.379L324.827 309.448C324.827 305.892 321.935 303 318.38 303L318.38 303Z" fill="#ED7100" fill-rule="evenodd"/></g></svg>