<svg width="48" height="48" xmlns="http://www.w3.org/2000/svg" xmlns:xlink="http://www.w3.org/1999/xlink" xml:space="preserve" overflow="hidden"><defs><clipPath id="clip0"><rect x="511" y="429" width="48" height="48"/></clipPath></defs><g clip-path="url(#clip0)" transform="translate(-511 -429)"><path d="M515.131 451.96 520.986 451.96 520.986 453.96 515.131 453.96C513.956 453.96 513 453.004 513 451.829L513 433.131C513 431.956 513.956 431 515.131 431L533.829 431C535.004 431 535.96 431.956 535.96 433.131L535.96 439.86 533.96 439.86 533.96 433.131C533.96 433.059 533.902 433 533.829 433L515.131 433C515.059 433 515 433.059 515 433.131L515 451.829C515 451.901 515.059 451.96 515.131 451.96L515.131 451.96ZM524.737 462.44 532.279 462.44 532.279 464.44 524.737 464.44C523.563 464.44 522.607 463.484 522.607 462.31L522.607 443.61C522.607 442.436 523.563 441.48 524.737 441.48L543.436 441.48C544.61 441.48 545.567 442.436 545.567 443.61L545.567 450.34 543.567 450.34 543.567 443.61C543.567 443.538 543.508 443.48 543.436 443.48L524.737 443.48C524.665 443.48 524.607 443.538 524.607 443.61L524.607 462.31C524.607 462.382 524.665 462.44 524.737 462.44L524.737 462.44ZM554.85 472.92 535.96 472.85 535.96 454.091C535.96 454.019 536.019 453.96 536.091 453.96L554.789 453.96C554.861 453.96 554.92 454.019 554.92 454.091L554.85 472.92ZM554.789 451.96 536.091 451.96C534.916 451.96 533.96 452.916 533.96 454.091L533.96 472.85C533.96 473.991 534.889 474.92 536.03 474.92L554.85 474.92C555.991 474.92 556.92 473.991 556.92 472.85L556.92 454.091C556.92 452.916 555.964 451.96 554.789 451.96L554.789 451.96Z" fill="#ED7100" fill-rule="evenodd"/></g></svg>