<svg width="48" height="48" xmlns="http://www.w3.org/2000/svg" xmlns:xlink="http://www.w3.org/1999/xlink" xml:space="preserve" overflow="hidden"><g transform="translate(-392 -300)"><path d="M437.92 323.081 429.912 323.081 433.734 319.258 432.32 317.844 426.731 323.435C426.34 323.825 426.34 324.458 426.731 324.849L432.32 330.438 433.734 329.024 429.791 325.081 437.92 325.081 437.92 323.081ZM399.597 317.844 398.183 319.258 402.006 323.081 394 323.081 394 325.081 402.126 325.081 398.183 329.024 399.597 330.438 405.187 324.849C405.577 324.458 405.577 323.825 405.187 323.435L399.597 317.844ZM410.81 329.231 421.108 329.231 421.108 318.932 410.81 318.932 410.81 329.231ZM422.892 317.81 424.743 317.81 424.743 319.81 423.108 319.81 423.108 321.324 424.743 321.324 424.743 323.324 423.108 323.324 423.108 324.838 424.743 324.838 424.743 326.838 423.108 326.838 423.108 328.352 424.743 328.352 424.743 330.352 422.892 330.352C422.737 330.631 422.509 330.859 422.23 331.014L422.23 332.865 420.23 332.865 420.23 331.23 418.717 331.23 418.717 332.865 416.717 332.865 416.717 331.23 415.203 331.23 415.203 332.865 413.203 332.865 413.203 331.23 411.69 331.23 411.69 332.865 409.69 332.865 409.69 331.014C409.411 330.859 409.183 330.631 409.028 330.352L407.176 330.352 407.176 328.352 408.811 328.352 408.811 326.838 407.176 326.838 407.176 324.838 408.811 324.838 408.811 323.324 407.176 323.324 407.176 321.324 408.811 321.324 408.811 319.81 407.176 319.81 407.176 317.81 409.028 317.81C409.183 317.531 409.411 317.303 409.69 317.148L409.69 315.298 411.69 315.298 411.69 316.932 413.203 316.932 413.203 315.298 415.203 315.298 415.203 316.932 416.717 316.932 416.717 315.298 418.717 315.298 418.717 316.932 420.23 316.932 420.23 315.298 422.23 315.298 422.23 317.148C422.509 317.303 422.737 317.531 422.892 317.81L422.892 317.81ZM416.961 342.747 416.961 334.622 414.961 334.622 414.961 342.751 411.075 338.866 409.661 340.28 415.251 345.87C415.446 346.065 415.702 346.163 415.958 346.163 416.214 346.163 416.47 346.065 416.665 345.87L422.256 340.28 420.842 338.866 416.961 342.747ZM411.075 309.297 409.661 307.883 415.251 302.293C415.642 301.902 416.274 301.902 416.665 302.293L422.256 307.883 420.842 309.297 416.961 305.416 416.961 313.541 414.961 313.541 414.961 305.412 411.075 309.297Z" fill="#ED7100" fill-rule="evenodd"/></g></svg>