<svg width="40" height="40" xmlns="http://www.w3.org/2000/svg" xmlns:xlink="http://www.w3.org/1999/xlink" xml:space="preserve" overflow="hidden"><defs><clipPath id="clip0"><rect x="37" y="159" width="40" height="40"/></clipPath></defs><g clip-path="url(#clip0)" transform="translate(-37 -159)"><path d="M37 159 77 159 77 199 37 199Z" fill="#FFFFFF" fill-rule="evenodd"/><path d="M69.6982 182.901C70.0592 183.37 69.2982 185.3 68.9572 186.164 68.8532 186.426 69.0752 186.529 69.3072 186.332 70.8202 185.048 71.2122 182.357 70.9012 181.969 70.5942 181.583 67.9502 181.252 66.3382 182.401 66.0892 182.578 66.1322 182.822 66.4072 182.79 67.3152 182.678 69.3382 182.433 69.6982 182.901L69.6982 182.901ZM68.8562 184.91C69.3742 184.532 68.9302 183.969 68.4022 184.19 64.8892 185.654 61.0752 186.363 57.6022 186.363 52.4592 186.363 47.4752 184.974 43.4462 182.668 43.0942 182.466 42.8332 182.823 43.1272 183.082 46.8602 186.398 51.7962 188.391 57.2742 188.391 61.1842 188.391 65.7252 187.183 68.8562 184.91L68.8562 184.91ZM66.7122 179.695C66.2142 179.695 65.7272 179.642 65.2532 179.534 64.7772 179.425 64.4132 179.302 64.1602 179.161 64.0052 179.077 63.9082 178.989 63.8692 178.903 63.8312 178.815 63.8112 178.729 63.8112 178.643L63.8112 178.174C63.8112 177.98 63.8842 177.881 64.0272 177.881 64.0822 177.881 64.1402 177.894 64.2002 177.914 64.2612 177.937 64.3412 177.969 64.4412 178.012 64.7612 178.153 65.1082 178.26 65.4852 178.336 65.8612 178.411 66.2362 178.449 66.6112 178.449 67.2082 178.449 67.6692 178.347 67.9952 178.141 68.3222 177.937 68.4842 177.646 68.4842 177.268 68.4842 177.008 68.3992 176.793 68.2272 176.619 68.0562 176.445 67.7382 176.286 67.2752 176.134L65.9002 175.713C65.2032 175.497 64.6982 175.184 64.3832 174.775 64.0682 174.363 63.9112 173.916 63.9112 173.428 63.9112 173.041 63.9962 172.699 64.1692 172.401 64.3392 172.104 64.5642 171.851 64.8452 171.64 65.1302 171.43 65.4592 171.272 65.8342 171.162 66.2082 171.055 66.6062 171 67.0262 171 67.2362 171 67.4492 171.014 67.6662 171.041 67.8812 171.067 68.0852 171.103 68.2782 171.146 68.4712 171.191 68.6512 171.239 68.8162 171.292 68.9822 171.347 69.1142 171.401 69.2152 171.454 69.3462 171.529 69.4392 171.605 69.4962 171.681 69.5512 171.756 69.5792 171.858 69.5792 171.989L69.5792 172.425C69.5792 172.62 69.5072 172.716 69.3622 172.716 69.2852 172.716 69.1652 172.68 68.9982 172.604 68.4582 172.365 67.8482 172.248 67.1772 172.248 66.6352 172.248 66.2142 172.334 65.9162 172.506 65.6172 172.68 65.4682 172.955 65.4682 173.333 65.4682 173.591 65.5622 173.81 65.7512 173.988 65.9392 174.166 66.2862 174.336 66.7952 174.499L68.1372 174.921C68.8222 175.135 69.3112 175.433 69.6032 175.809 69.8972 176.188 70.0442 176.619 70.0442 177.104 70.0442 177.505 69.9612 177.864 69.7942 178.182 69.6282 178.501 69.3992 178.772 69.1052 178.999 68.8132 179.226 68.4632 179.398 68.0542 179.517 67.6442 179.637 67.1972 179.695 66.7122 179.695L66.7122 179.695ZM54.5472 179.451C54.3812 179.451 54.2602 179.424 54.1822 179.364 54.1042 179.303 54.0382 179.183 53.9832 178.999L51.7612 171.842C51.7082 171.658 51.6792 171.535 51.6792 171.471 51.6792 171.32 51.7572 171.244 51.9122 171.244L52.8392 171.244C53.0162 171.244 53.1402 171.274 53.2132 171.334 53.2842 171.392 53.3472 171.512 53.4022 171.698L54.9932 177.818 56.4702 171.698C56.5142 171.512 56.5742 171.392 56.6512 171.334 56.7282 171.274 56.8552 171.244 57.0312 171.244L57.7962 171.244C57.9712 171.244 58.0982 171.274 58.1762 171.334 58.2532 171.392 58.3142 171.512 58.3582 171.698L59.8512 177.899 61.4912 171.698C61.5462 171.512 61.6092 171.392 61.6812 171.334 61.7542 171.274 61.8772 171.244 62.0542 171.244L62.9322 171.244C63.0882 171.244 63.1652 171.32 63.1652 171.471 63.1652 171.512 63.1582 171.562 63.1492 171.615 63.1362 171.671 63.1162 171.746 63.0812 171.842L60.7952 178.999C60.7402 179.183 60.6732 179.303 60.5952 179.364 60.5182 179.424 60.3962 179.451 60.2312 179.451L59.4182 179.451C59.2422 179.451 59.1152 179.421 59.0382 179.357 58.9612 179.292 58.9002 179.166 58.8562 178.984L57.3802 173.024 55.9232 178.984C55.8792 179.166 55.8172 179.292 55.7402 179.357 55.6622 179.421 55.5362 179.451 55.3592 179.451L54.5472 179.451ZM46.9392 178.449C47.2502 178.449 47.5752 178.392 47.9182 178.279 48.2602 178.165 48.5582 177.969 48.8122 177.687 48.9682 177.515 49.0742 177.318 49.1362 177.096 49.1962 176.876 49.2252 176.609 49.2252 176.295L49.2252 175.907C48.9512 175.842 48.6612 175.791 48.3562 175.753 48.0522 175.716 47.7572 175.696 47.4692 175.696 46.8402 175.696 46.3692 175.82 46.0612 176.069 45.7522 176.317 45.5962 176.672 45.5962 177.139 45.5962 177.57 45.7132 177.895 45.9452 178.117 46.1772 178.339 46.5092 178.449 46.9392 178.449L46.9392 178.449ZM50.7852 177.041C50.7852 177.386 50.8202 177.66 50.8922 177.866 50.9652 178.072 51.0672 178.294 51.1992 178.53 51.2432 178.606 51.2652 178.676 51.2652 178.739 51.2652 178.838 51.2042 178.93 51.0832 179.015L50.4862 179.405C50.3982 179.458 50.3152 179.486 50.2382 179.486 50.1372 179.486 50.0442 179.443 49.9562 179.357 49.8222 179.226 49.7102 179.084 49.6172 178.927 49.5212 178.771 49.4252 178.588 49.3262 178.383 48.5852 179.236 47.6582 179.663 46.5422 179.663 45.7462 179.663 45.1162 179.443 44.6512 178.999 44.1882 178.557 43.9562 177.963 43.9562 177.219 43.9562 176.432 44.2432 175.796 44.8192 175.316 45.3922 174.836 46.1672 174.595 47.1382 174.595 47.4592 174.595 47.7932 174.62 48.1412 174.668 48.4882 174.716 48.8512 174.785 49.2252 174.871L49.2252 174.192C49.2252 173.49 49.0782 172.996 48.7792 172.709 48.4812 172.423 47.9682 172.281 47.2392 172.281 46.9062 172.281 46.5662 172.32 46.2182 172.401 45.8712 172.482 45.5302 172.587 45.1992 172.716 45.0442 172.781 44.9332 172.822 44.8682 172.838 44.8022 172.854 44.7522 172.862 44.7192 172.862 44.5872 172.862 44.5192 172.766 44.5192 172.57L44.5192 172.118C44.5192 171.966 44.5432 171.858 44.5872 171.795 44.6312 171.729 44.7192 171.664 44.8522 171.6 45.1832 171.437 45.5812 171.297 46.0442 171.179 46.5092 171.06 47.0002 171 47.5202 171 48.6462 171 49.4722 171.253 49.9972 171.753 50.5212 172.255 50.7852 173.013 50.7852 174.028L50.7852 177.041Z" fill="#232F3E" fill-rule="evenodd"/></g></svg>