<svg width="80" height="80" xmlns="http://www.w3.org/2000/svg" xmlns:xlink="http://www.w3.org/1999/xlink" xml:space="preserve" overflow="hidden"><defs><clipPath id="clip0"><rect x="791" y="124" width="80" height="80"/></clipPath></defs><g clip-path="url(#clip0)" transform="translate(-791 -124)"><path d="M791 124 871 124 871 204 791 204Z" fill="#C925D1" fill-rule="evenodd"/><path d="M803 137 803 191 837 191 837 189 805 189 805 147 857 147 857 189 850 189 850 191 859 191 859 137 803 137ZM805 145 857 145 857 139 805 139 805 145ZM816 143 818.001 143 818.001 140.999 816 140.999 816 143ZM812 143 814 143 814 140.999 812 140.999 812 143ZM808 143 810 143 810 140.999 808 140.999 808 143ZM814.326 157.432 824.406 167.514 814.326 177.594 815.74 179.008 827.234 167.514 815.74 156.018 814.326 157.432ZM829 175 846 175 846 173 829 173 829 175Z" fill="#FFFFFF" fill-rule="evenodd"/></g></svg>