<svg width="48" height="48" xmlns="http://www.w3.org/2000/svg" xmlns:xlink="http://www.w3.org/1999/xlink" xml:space="preserve" overflow="hidden"><g transform="translate(-291 -295)"><path d="M333.208 319.707 328.833 324.082 327.419 322.668 330.087 320 316 320 316 334.086 318.668 331.418 320.082 332.832 315.707 337.207C315.512 337.402 315.256 337.5 315 337.5 314.744 337.5 314.488 337.402 314.293 337.207L309.918 332.832 311.332 331.418 314 334.086 314 320 299.915 320 302.583 322.668 301.169 324.082 296.794 319.707C296.403 319.316 296.403 318.684 296.794 318.293L301.169 313.917 302.583 315.331 299.915 318 314 318 314 303.913 311.332 306.581 309.918 305.167 314.293 300.792C314.684 300.401 315.316 300.401 315.707 300.792L320.082 305.167 318.668 306.581 316 303.913 316 318 330.087 318 327.419 315.331 328.833 313.917 333.208 318.293C333.599 318.684 333.599 319.316 333.208 319.707M315 339C303.972 339 295 330.028 295 319 295 307.972 303.972 299 315 299 326.028 299 335 307.972 335 319 335 330.028 326.028 339 315 339M315 297C302.869 297 293 306.869 293 319 293 331.131 302.869 341 315 341 327.131 341 337 331.131 337 319 337 306.869 327.131 297 315 297" fill="#8C4FFF" fill-rule="evenodd"/></g></svg>