<svg width="40" height="40" xmlns="http://www.w3.org/2000/svg" xmlns:xlink="http://www.w3.org/1999/xlink" xml:space="preserve" overflow="hidden"><defs><clipPath id="clip0"><rect x="1054" y="275" width="40" height="40"/></clipPath></defs><g clip-path="url(#clip0)" transform="translate(-1054 -275)"><path d="M1054 275 1094 275 1094 315 1054 315Z" fill="#7D8998" fill-rule="evenodd"/><path d="M1066 292 1069.5 292C1069.78 292 1070 291.776 1070 291.5L1070 282 1077 282 1077 291.5C1077 291.776 1077.22 292 1077.5 292L1081 292 1081 308 1066 308 1066 292ZM1082 308.5 1082 291.5C1082 291.224 1081.78 291 1081.5 291L1078 291 1078 281.5C1078 281.224 1077.78 281 1077.5 281L1069.5 281C1069.22 281 1069 281.224 1069 281.5L1069 291 1065.5 291C1065.22 291 1065 291.224 1065 291.5L1065 308.5C1065 308.776 1065.22 309 1065.5 309L1081.5 309C1081.78 309 1082 308.776 1082 308.5L1082 308.5ZM1078 306 1079 306 1079 304 1078 304 1078 306ZM1073 306 1074 306 1074 304 1073 304 1073 306ZM1068 306 1069 306 1069 304 1068 304 1068 306ZM1078 302 1079 302 1079 299 1078 299 1078 302ZM1073 302 1074 302 1074 299 1073 299 1073 302ZM1068 302 1069 302 1069 299 1068 299 1068 302ZM1078 297 1079 297 1079 294 1078 294 1078 297ZM1073 287 1074 287 1074 284 1073 284 1073 287ZM1073 292 1074 292 1074 289 1073 289 1073 292ZM1073 297 1074 297 1074 294 1073 294 1073 297ZM1068 297 1069 297 1069 294 1068 294 1068 297Z" fill="#FFFFFF" fill-rule="evenodd"/></g></svg>