<svg width="80" height="80" xmlns="http://www.w3.org/2000/svg" xmlns:xlink="http://www.w3.org/1999/xlink" xml:space="preserve" overflow="hidden"><g transform="translate(-791 -125)"><path d="M791 125 871 125 871 205 791 205Z" stroke="#8C4FFF" stroke-width="2" fill="none" fill-rule="evenodd"/><path d="M820.97 185.66 838.831 185.66 838.831 179.787C838.831 179.27 838.265 178.834 837.594 178.834L822.206 178.834C821.536 178.834 820.97 179.27 820.97 179.787L820.97 185.66ZM844.142 188.995 844.142 192.675 844.142 193 842.141 193 842.141 192.675 842.141 188.995C842.141 188.209 841.684 187.661 841.274 187.661L818.527 187.661C818.116 187.661 817.66 188.209 817.66 188.995L817.66 192.675 817.66 193 815.659 193 815.659 192.675 815.659 188.995C815.659 187.157 816.947 185.66 818.527 185.66L818.97 185.66 818.97 179.787C818.97 178.159 820.421 176.833 822.206 176.833L837.594 176.833C839.379 176.833 840.831 178.159 840.831 179.787L840.831 185.66 841.274 185.66C842.855 185.66 844.142 187.157 844.142 188.995L844.142 188.995ZM836.521 163.594C837.794 163.594 838.831 162.557 838.831 161.284 838.831 160.01 837.794 158.974 836.521 158.974 835.247 158.974 834.211 160.01 834.211 161.284 834.211 162.557 835.247 163.594 836.521 163.594L836.521 163.594ZM835.52 175.628 835.52 165.465C833.626 165.011 832.21 163.315 832.21 161.284 832.21 158.907 834.144 156.973 836.521 156.973 838.898 156.973 840.831 158.907 840.831 161.284 840.831 163.315 839.415 165.011 837.521 165.465L837.521 175.628 835.52 175.628ZM832.138 153.561C832.138 152.287 831.102 151.251 829.828 151.251 828.555 151.251 827.519 152.287 827.519 153.561 827.519 154.835 828.555 155.87 829.828 155.87 831.102 155.87 832.138 154.835 832.138 153.561L832.138 153.561ZM834.139 153.561C834.139 155.566 832.757 157.239 830.901 157.719L830.901 175.628 828.901 175.628 828.901 157.764C826.969 157.338 825.518 155.618 825.518 153.561 825.518 151.184 827.452 149.251 829.828 149.251 832.205 149.251 834.139 151.184 834.139 153.561L834.139 153.561ZM823.28 158.974C822.006 158.974 820.97 160.01 820.97 161.284 820.97 162.557 822.006 163.594 823.28 163.594 824.554 163.594 825.589 162.557 825.589 161.284 825.589 160.01 824.554 158.974 823.28 158.974L823.28 158.974ZM823.28 156.973C825.657 156.973 827.59 158.907 827.59 161.284 827.59 163.315 826.174 165.011 824.281 165.465L824.281 175.628 822.28 175.628 822.28 165.465C820.386 165.011 818.97 163.315 818.97 161.284 818.97 158.907 820.903 156.973 823.28 156.973L823.28 156.973ZM859 162.366C859 170.019 853.191 172.746 847.753 172.746L839.937 172.746 839.937 170.745 847.753 170.745C849.922 170.745 856.999 170.141 856.999 162.366 856.999 156.74 852.592 154.675 848.897 153.934 848.451 153.844 848.122 153.466 848.094 153.012 847.832 148.572 845.238 146.998 843.096 146.998 841.648 146.998 840.289 147.688 839.37 148.893 839.149 149.184 838.786 149.327 838.424 149.275 838.064 149.221 837.761 148.973 837.635 148.631 837.001 146.907 835.875 144.495 834.117 142.792 830.235 139.019 824.924 137.995 819.904 140.051 815.807 141.729 812.474 146.856 812.474 151.479 812.474 151.988 812.505 152.5 812.567 152.998 812.629 153.501 812.305 153.972 811.812 154.092 809.764 154.592 805.001 156.394 805.001 162.288 805.001 162.493 805.012 162.699 805.023 162.905 805.265 167.227 809.332 170.745 814.087 170.745L819.837 170.745 819.837 172.746 814.087 172.746C808.288 172.746 803.325 168.38 803.025 163.014 803.011 162.769 803 162.528 803 162.288 803 157.492 805.785 153.842 810.501 152.38 810.483 152.081 810.473 151.779 810.473 151.479 810.473 146.698 813.716 140.422 819.146 138.2 824.924 135.832 831.042 137.013 835.509 141.356 837.067 142.862 838.175 144.803 838.926 146.492 840.107 145.528 841.564 144.997 843.096 144.997 846.191 144.997 849.443 147.211 850.025 152.133 855.821 153.525 859 157.137 859 162.366L859 162.366Z" stroke="#8C4FFF" stroke-width="2" fill="none" fill-rule="evenodd"/></g></svg>