<svg width="48" height="48" xmlns="http://www.w3.org/2000/svg" xmlns:xlink="http://www.w3.org/1999/xlink" xml:space="preserve" overflow="hidden"><g transform="translate(-307 -405)"><path d="M320.418 409 340.88 409 345.297 414.873 316.004 414.873 320.418 409ZM314 416.873 347.299 416.873C347.678 416.873 348.025 416.659 348.194 416.319 348.363 415.98 348.327 415.575 348.099 415.272L342.178 407.399C341.99 407.147 341.694 407 341.38 407L319.919 407C319.605 407 319.31 407.147 319.121 407.399L313.202 415.272C312.974 415.575 312.936 415.98 313.107 416.319 313.275 416.659 313.621 416.873 314 416.873L314 416.873ZM315.06 448.985 346.299 448.985 346.299 420.371 315.06 420.371 315.06 448.985ZM347.299 418.371 314.06 418.371C313.508 418.371 313.06 418.818 313.06 419.371L313.06 449.985C313.06 450.538 313.508 450.985 314.06 450.985L347.299 450.985C347.853 450.985 348.299 450.538 348.299 449.985L348.299 419.371C348.299 418.818 347.853 418.371 347.299 418.371L347.299 418.371Z" fill="#7AA116" fill-rule="evenodd"/></g></svg>