<svg width="40" height="40" xmlns="http://www.w3.org/2000/svg" xmlns:xlink="http://www.w3.org/1999/xlink" xml:space="preserve" overflow="hidden"><defs><clipPath id="clip0"><rect x="37" y="391" width="40" height="40"/></clipPath></defs><g clip-path="url(#clip0)" transform="translate(-37 -391)"><path d="M37 391 77 391 77 431 37 431Z" fill="#ED7100" fill-rule="evenodd"/><path d="M47 420 66 420 66 401 47 401 47 420ZM70 403 70 402 67 402 67 400.5C67 400.224 66.776 400 66.5 400L65 400 65 397 64 397 64 400 61 400 61 397 60 397 60 400 57 400 57 397 56 397 56 400 53 400 53 397 52 397 52 400 49 400 49 397 48 397 48 400 46.5 400C46.224 400 46 400.224 46 400.5L46 402 43 402 43 403 46 403 46 406 43 406 43 407 46 407 46 410 43 410 43 411 46 411 46 414 43 414 43 415 46 415 46 418 43 418 43 419 46 419 46 420.5C46 420.776 46.224 421 46.5 421L48 421 48 424 49 424 49 421 52 421 52 424 53 424 53 421 56 421 56 424 57 424 57 421 60 421 60 424 61 424 61 421 64 421 64 424 65 424 65 421 66.5 421C66.776 421 67 420.776 67 420.5L67 419 70 419 70 418 67 418 67 415 70 415 70 414 67 414 67 411 70 411 70 410 67 410 67 407 70 407 70 406 67 406 67 403 70 403Z" fill="#FFFFFF" fill-rule="evenodd"/></g></svg>