<svg width="48" height="48" xmlns="http://www.w3.org/2000/svg" xmlns:xlink="http://www.w3.org/1999/xlink" xml:space="preserve" overflow="hidden"><g transform="translate(-279 -430)"><path d="M288 469 318 469 318 439 288 439 288 469ZM325 443 325 441 320 441 320 438C320 437.448 319.552 437 319 437L316 437 316 432 314 432 314 437 310 437 310 432 308 432 308 437 304 437 304 432 302 432 302 437 298 437 298 432 296 432 296 437 292 437 292 432 290 432 290 437 287 437C286.447 437 286 437.448 286 438L286 441 281 441 281 443 286 443 286 447 281 447 281 449 286 449 286 453 281 453 281 455 286 455 286 459 281 459 281 461 286 461 286 465 281 465 281 467 286 467 286 470C286 470.553 286.447 471 287 471L290 471 290 476 292 476 292 471 296 471 296 476 298 476 298 471 302 471 302 476 304 476 304 471 308 471 308 476 310 476 310 471 314 471 314 476 316 476 316 471 319 471C319.552 471 320 470.553 320 470L320 467 325 467 325 465 320 465 320 461 325 461 325 459 320 459 320 455 325 455 325 453 320 453 320 449 325 449 325 447 320 447 320 443 325 443Z" fill="#ED7100" fill-rule="evenodd"/></g></svg>