<svg width="48" height="48" xmlns="http://www.w3.org/2000/svg" xmlns:xlink="http://www.w3.org/1999/xlink" xml:space="preserve" overflow="hidden"><defs><clipPath id="clip0"><rect x="627" y="295" width="48" height="48"/></clipPath></defs><g clip-path="url(#clip0)" transform="translate(-627 -295)"><path d="M631 338.889 631 324.036C634.767 322.035 638.783 320.622 642.963 319.829L642.963 326.926 658.926 326.926 658.926 319.829C663.105 320.622 667.121 322.035 670.889 324.036L670.889 338.889 631 338.889ZM644.963 324.926 656.926 324.926 656.926 312.963 644.963 312.963 644.963 324.926ZM670.889 299 670.889 321.781C667.104 319.883 663.091 318.55 658.926 317.797L658.926 310.963 642.963 310.963 642.963 317.797C638.798 318.55 634.784 319.883 631 321.781L631 299 670.889 299ZM629 340.889 672.889 340.889 672.889 297 629 297 629 340.889Z" fill="#8C4FFF" fill-rule="evenodd"/></g></svg>