<svg width="48" height="48" xmlns="http://www.w3.org/2000/svg" xmlns:xlink="http://www.w3.org/1999/xlink" xml:space="preserve" overflow="hidden"><g transform="translate(-888 -491)"><path d="M916.371 523.87C916.501 523.741 916.672 523.67 916.854 523.67L916.855 523.67C917.039 523.67 917.212 523.741 917.342 523.871 917.471 524.001 917.541 524.172 917.541 524.354L917.541 524.356C917.541 524.54 917.47 524.712 917.34 524.842 917.211 524.971 917.039 525.042 916.855 525.042L916.854 525.042C916.476 525.042 916.17 524.734 916.17 524.356 916.17 524.173 916.241 524 916.371 523.87L916.371 523.87ZM915.855 526.845 915.855 529.655 917.855 529.655 917.855 526.848C918.186 526.715 918.492 526.517 918.754 526.257 919.261 525.75 919.54 525.076 919.541 524.358 919.543 523.641 919.264 522.967 918.757 522.459 918.25 521.95 917.574 521.67 916.856 521.67L916.853 521.67C915.375 521.67 914.172 522.874 914.17 524.355 914.17 525.483 914.869 526.447 915.855 526.845L915.855 526.845ZM923.718 531.465 909.987 531.459 909.991 520.351 923.724 520.358 923.718 531.465ZM913.487 515.833C913.49 514.846 913.851 513.921 914.505 513.23 915.14 512.559 915.976 512.19 916.861 512.19L916.872 512.19C918.721 512.196 920.219 513.849 920.213 515.876L920.212 518.356 913.475 518.353 913.487 515.833ZM924.724 518.358 922.212 518.357 922.213 515.879C922.223 512.752 919.829 510.2 916.878 510.19L916.861 510.19C915.421 510.19 914.068 510.781 913.052 511.856 912.048 512.918 911.492 514.328 911.487 515.825L911.475 518.352 908.991 518.351C908.726 518.351 908.472 518.457 908.284 518.644 908.097 518.832 907.991 519.086 907.991 519.351L907.987 532.459C907.987 533.011 908.434 533.459 908.987 533.459L924.718 533.465C925.269 533.465 925.718 533.017 925.718 532.465L925.724 519.358C925.724 519.094 925.618 518.839 925.431 518.651 925.243 518.464 924.989 518.358 924.724 518.358L924.724 518.358ZM903.763 502.469C903.364 502.469 903.04 502.144 903.04 501.746 903.04 501.347 903.364 501.022 903.763 501.022 904.162 501.022 904.486 501.347 904.486 501.746 904.486 502.144 904.162 502.469 903.763 502.469L903.763 502.469ZM903.763 499.022C902.262 499.022 901.04 500.244 901.04 501.746 901.04 503.247 902.262 504.469 903.763 504.469 905.265 504.469 906.486 503.247 906.486 501.746 906.486 500.244 905.265 499.022 903.763 499.022L903.763 499.022ZM905.184 507.186C904.768 507.318 904.486 507.704 904.486 508.14L904.486 509.888C904.486 510.153 904.592 510.407 904.779 510.595L905.549 511.364 904.779 512.135C904.592 512.322 904.486 512.577 904.486 512.842L904.486 513.826C904.486 514.092 904.592 514.346 904.779 514.533L905.549 515.303 904.779 516.073C904.592 516.261 904.486 516.516 904.486 516.78L904.486 517.881 903.662 518.823 903.04 518.289 903.04 508.14C903.04 507.704 902.758 507.318 902.342 507.186 900.404 506.572 899.101 504.789 899.101 502.749 899.101 500.179 901.192 498.087 903.763 498.087 906.333 498.087 908.425 500.179 908.425 502.749 908.425 504.789 907.122 506.572 905.184 507.186L905.184 507.186ZM907.67 512.071C908.06 511.681 908.06 511.048 907.67 510.657L906.486 509.474 906.486 508.828C908.87 507.771 910.425 505.413 910.425 502.749 910.425 499.075 907.436 496.087 903.763 496.087 900.09 496.087 897.101 499.075 897.101 502.749 897.101 505.413 898.656 507.771 901.04 508.828L901.04 518.749C901.04 519.041 901.168 519.318 901.389 519.508L903.111 520.985C903.3 521.147 903.531 521.226 903.763 521.226 904.041 521.226 904.317 521.111 904.516 520.885L906.239 518.915C906.398 518.733 906.486 518.499 906.486 518.257L906.486 517.194 907.67 516.01C908.06 515.619 908.06 514.986 907.67 514.596L906.486 513.412 906.486 513.256 907.67 512.071ZM927.221 534.156C927.221 534.6 926.859 534.962 926.415 534.962L896.806 534.962C896.361 534.962 896 534.6 896 534.156L896 495.806C896 495.361 896.361 495 896.806 495L926.415 495C926.859 495 927.221 495.361 927.221 495.806L927.221 534.156ZM926.415 493 896.806 493C895.259 493 894 494.259 894 495.806L894 534.156C894 535.703 895.259 536.962 896.806 536.962L926.415 536.962C927.962 536.962 929.221 535.703 929.221 534.156L929.221 495.806C929.221 494.259 927.962 493 926.415 493L926.415 493Z" fill="#DD344C" fill-rule="evenodd"/></g></svg>