<svg width="48" height="48" xmlns="http://www.w3.org/2000/svg" xmlns:xlink="http://www.w3.org/1999/xlink" xml:space="preserve" overflow="hidden"><g transform="translate(-623 -412)"><path d="M645.376 437.627 649.502 437.627 649.502 433.501 645.376 433.501 645.376 437.627ZM651.502 437.627 655.627 437.627 655.627 433.501 651.502 433.501 651.502 437.627ZM644.376 439.627 656.627 439.627C657.179 439.627 657.627 439.18 657.627 438.627L657.627 432.501C657.627 431.948 657.179 431.501 656.627 431.501L644.376 431.501C643.823 431.501 643.376 431.948 643.376 432.501L643.376 438.627C643.376 439.18 643.823 439.627 644.376 439.627L644.376 439.627ZM660.877 441.127 658.377 441.127C657.824 441.127 657.377 441.574 657.377 442.127L657.377 443.752 655.002 443.752 655.002 442.127C655.002 441.574 654.554 441.127 654.002 441.127L650.502 441.127C649.949 441.127 649.502 441.574 649.502 442.127L649.502 443.752 642.751 443.752 642.751 442.127C642.751 441.574 642.303 441.127 641.751 441.127L641.001 441.127 641.001 430.001 660.877 430.001 660.877 441.127ZM661.877 428.001 640.001 428.001C639.448 428.001 639.001 428.448 639.001 429.001L639.001 442.127C639.001 442.68 639.448 443.127 640.001 443.127L640.751 443.127 640.751 444.752C640.751 445.305 641.198 445.752 641.751 445.752L650.502 445.752C651.054 445.752 651.502 445.305 651.502 444.752L651.502 443.127 653.002 443.127 653.002 444.752C653.002 445.305 653.449 445.752 654.002 445.752L658.377 445.752C658.929 445.752 659.377 445.305 659.377 444.752L659.377 443.127 661.877 443.127C662.429 443.127 662.877 442.68 662.877 442.127L662.877 429.001C662.877 428.448 662.429 428.001 661.877 428.001L661.877 428.001ZM637.501 427.251 637.501 446.502C637.501 447.055 637.053 447.502 636.501 447.502L633.35 447.502 633.35 445.502 635.501 445.502 635.501 428.251 633.35 428.251 633.35 426.251 636.501 426.251C637.053 426.251 637.501 426.698 637.501 427.251L637.501 427.251ZM647.002 456.003C635.972 456.003 627 447.03 627 436.001 627 424.973 635.972 416 647.002 416 658.03 416 667.002 424.973 667.002 436.001 667.002 447.03 658.03 456.003 647.002 456.003L647.002 456.003ZM647.002 414C634.87 414 625 423.869 625 436.001 625 448.133 634.87 458.003 647.002 458.003 659.133 458.003 669.002 448.133 669.002 436.001 669.002 423.869 659.133 414 647.002 414L647.002 414Z" fill="#8C4FFF" fill-rule="evenodd"/></g></svg>