<svg width="48" height="48" xmlns="http://www.w3.org/2000/svg" xmlns:xlink="http://www.w3.org/1999/xlink" xml:space="preserve" overflow="hidden"><g transform="translate(-509 -284)"><path d="M539.58 294.58 537.74 293.795 540.538 287.237 542.378 288.022 539.58 294.58ZM545.295 299.605 544.094 298.006 549.831 293.698 551.032 295.298 545.295 299.605ZM547.447 304.802 554.587 303.898 554.839 305.883 547.699 306.786 547.447 304.802ZM546.907 312.354 553.538 315.098 552.773 316.945 546.143 314.202 546.907 312.354ZM542.625 318.644 546.968 324.3 545.382 325.518 541.039 319.863 542.625 318.644ZM535.743 321.995 536.635 329.046 534.65 329.296 533.759 322.245 535.743 321.995ZM526.259 320.716 528.099 321.501 525.301 328.059 523.461 327.274 526.259 320.716ZM520.544 315.69 521.745 317.29 516.008 321.598 514.807 319.998 520.544 315.69ZM518.392 310.494 511.252 311.398 511 309.414 518.14 308.51 518.392 310.494ZM518.932 302.941 512.302 300.198 513.065 298.351 519.696 301.094 518.932 302.941ZM523.214 296.651 518.871 290.997 520.457 289.778 524.8 295.433 523.214 296.651ZM530.096 293.301 529.204 286.25 531.188 286 532.08 293.051 530.096 293.301ZM537.039 314.999 528.379 314.999 524.048 307.499 528.379 299.999 537.039 299.999 541.369 307.499 537.039 314.999ZM543.39 306.999 538.482 298.499C538.304 298.189 537.974 297.999 537.616 297.999L527.802 297.999C527.444 297.999 527.114 298.189 526.935 298.499L522.027 306.999C521.849 307.309 521.849 307.689 522.027 307.999L526.935 316.499C527.114 316.809 527.444 316.999 527.802 316.999L537.616 316.999C537.974 316.999 538.304 316.809 538.482 316.499L543.39 307.999C543.568 307.689 543.568 307.309 543.39 306.999L543.39 306.999Z" fill="#E7157B" fill-rule="evenodd"/></g></svg>