<svg width="48" height="48" xmlns="http://www.w3.org/2000/svg" xmlns:xlink="http://www.w3.org/1999/xlink" xml:space="preserve" overflow="hidden"><g transform="translate(-870 -409)"><path d="M887.955 438.333 889.369 439.747 886.796 442.32C886.608 442.507 886.354 442.613 886.089 442.613 885.823 442.613 885.569 442.507 885.382 442.32L882.809 439.747 884.224 438.333 885 439.109 885 426.72 884.14 427.58 882.726 426.166 885.299 423.593C885.486 423.406 885.74 423.3 886.006 423.3 886.271 423.3 886.525 423.406 886.713 423.593L889.285 426.166 887.871 427.58 887 426.708 887 439.288 887.955 438.333ZM883.87 433.705 881.297 436.278 879.883 434.864 880.747 434 875.36 434 875.36 432 880.75 432 879.883 431.133 881.297 429.719 883.87 432.291C884.058 432.479 884.163 432.733 884.163 432.998 884.163 433.263 884.058 433.518 883.87 433.705L883.87 433.705ZM891.922 434.864 890.508 436.278 887.934 433.705C887.747 433.518 887.642 433.263 887.642 432.998 887.642 432.733 887.747 432.479 887.934 432.291L890.508 429.719 891.922 431.133 891.055 432 896.36 432 896.36 434 891.058 434 891.922 434.864ZM894 453C882.972 453 874 444.028 874 433 874 421.972 882.972 413 894 413 905.028 413 914 421.972 914 433 914 444.028 905.028 453 894 453L894 453ZM894 411C881.869 411 872 420.869 872 433 872 445.131 881.869 455 894 455 906.131 455 916 445.131 916 433 916 420.869 906.131 411 894 411L894 411ZM905 443.36 907 443.36 907 441.36 905 441.36 905 443.36ZM908 439.36 904 439.36C903.447 439.36 903 439.808 903 440.36L903 441.36 893 441.36 893 438.36 891 438.36 891 442.36C891 442.912 891.447 443.36 892 443.36L903 443.36 903 444.36C903 444.912 903.447 445.36 904 445.36L908 445.36C908.553 445.36 909 444.912 909 444.36L909 440.36C909 439.808 908.553 439.36 908 439.36L908 439.36ZM905 434 907 434 907 432 905 432 905 434ZM908 430 904 430C903.447 430 903 430.447 903 431L903 432 899 432 899 434 903 434 903 435C903 435.552 903.447 436 904 436L908 436C908.553 436 909 435.552 909 435L909 431C909 430.447 908.553 430 908 430L908 430ZM905 424.36 907 424.36 907 422.36 905 422.36 905 424.36ZM908 420.36 904 420.36C903.447 420.36 903 420.808 903 421.36L903 422.36 892 422.36C891.447 422.36 891 422.808 891 423.36L891 427.36 893 427.36 893 424.36 903 424.36 903 425.36C903 425.912 903.447 426.36 904 426.36L908 426.36C908.553 426.36 909 425.912 909 425.36L909 421.36C909 420.808 908.553 420.36 908 420.36L908 420.36Z" fill="#8C4FFF" fill-rule="evenodd"/></g></svg>