<svg width="48" height="48" xmlns="http://www.w3.org/2000/svg" xmlns:xlink="http://www.w3.org/1999/xlink" xml:space="preserve" overflow="hidden"><g transform="translate(-766 -295)"><path d="M799.449 334.364C794.885 335.184 791.034 337.585 789.585 338.583 788.136 337.585 784.285 335.184 779.72 334.364 777.44 333.955 770 332.136 770 325.925 770 323.329 770.983 321.635 772.024 319.843 773.004 318.154 774.016 316.41 774.016 314.02 774.016 310.434 772.041 307.853 770.928 306.684 772.061 305.306 774.528 302.297 775.892 300.552 777.971 302.442 780.371 303.47 782.747 303.47 785.393 303.47 787.592 302.429 789.585 300.212 791.577 302.429 793.775 303.47 796.423 303.47 798.799 303.47 801.197 302.442 803.276 300.552 804.64 302.296 807.107 305.306 808.241 306.684 807.128 307.853 805.152 310.434 805.152 314.02 805.152 316.41 806.165 318.154 807.144 319.843 808.185 321.635 809.169 323.329 809.169 325.925 809.169 332.136 801.729 333.955 799.449 334.364M808.875 318.838C807.95 317.246 807.152 315.871 807.152 314.02 807.152 310.11 810.204 307.567 810.233 307.544L811.018 306.909 810.376 306.13C810.325 306.069 805.332 300.017 804.19 298.454L803.477 297.478 802.652 298.361C800.776 300.366 798.564 301.47 796.423 301.47 794.06 301.47 792.197 300.412 790.379 298.037L789.585 297 788.791 298.036C786.972 300.411 785.108 301.47 782.747 301.47 780.604 301.47 778.392 300.366 776.516 298.361L775.69 297.477 774.978 298.455C773.838 300.017 768.845 306.069 768.794 306.13L768.151 306.909 768.936 307.544C768.968 307.569 772.016 310.08 772.016 314.02 772.016 315.871 771.219 317.246 770.294 318.838 769.219 320.691 768 322.791 768 325.925 768 331.165 772.249 335.055 779.367 336.333 784.572 337.267 788.932 340.573 788.976 340.606L789.586 341.072 790.193 340.606C790.237 340.573 794.597 337.267 799.803 336.333 806.92 335.055 811.169 331.165 811.169 325.925 811.169 322.791 809.95 320.691 808.875 318.838" fill="#8C4FFF" fill-rule="evenodd"/></g></svg>