<svg width="80" height="80" xmlns="http://www.w3.org/2000/svg" xmlns:xlink="http://www.w3.org/1999/xlink" xml:space="preserve" overflow="hidden"><g transform="translate(-314 -124)"><path d="M314 124 394 124 394 204 314 204Z" fill="#DD344C" fill-rule="evenodd"/><path d="M381.438 186.324 366.56 171.447C366.251 171.139 366.178 170.665 366.379 170.279 368.457 166.277 367.659 161.232 364.439 158.012 362.143 155.715 358.972 154.624 355.748 155.012 352.518 155.404 349.67 157.268 347.936 160.129 345.898 163.488 345.989 167.797 348.166 171.107 351.187 175.702 357.076 177.292 361.864 174.809 362.251 174.609 362.722 174.68 363.032 174.99L365.5 177.458C365.687 177.645 365.792 177.9 365.792 178.165L365.792 181.408 369.035 181.408C369.299 181.408 369.554 181.512 369.742 181.699L371.157 183.113C371.344 183.301 371.45 183.555 371.45 183.822L371.45 187.064 374.692 187.064C374.958 187.064 375.211 187.169 375.399 187.357L377.254 189.212 381.196 189.475 381.438 186.324ZM383.467 186.02 383.114 190.616C383.074 191.139 382.636 191.539 382.118 191.539 382.095 191.539 382.073 191.539 382.05 191.536L376.747 191.182C376.504 191.167 376.277 191.064 376.106 190.893L374.278 189.064 370.45 189.064C369.897 189.064 369.45 188.617 369.45 188.064L369.45 184.236 368.621 183.408 364.792 183.408C364.24 183.408 363.792 182.96 363.792 182.408L363.792 178.578 362.12 176.906C356.546 179.391 349.941 177.449 346.494 172.206 343.896 168.255 343.791 163.107 346.225 159.091 348.281 155.702 351.665 153.492 355.507 153.027 359.349 152.566 363.12 153.865 365.853 156.598 369.506 160.251 370.536 165.883 368.475 170.534L383.177 185.236C383.383 185.443 383.49 185.729 383.467 186.02L383.467 186.02ZM359.423 165.346C359.423 164.678 359.163 164.049 358.69 163.577 358.217 163.104 357.589 162.844 356.922 162.844 356.255 162.844 355.627 163.104 355.155 163.577 354.18 164.551 354.18 166.137 355.155 167.113 356.129 168.087 357.715 168.087 358.69 167.113L358.69 167.113C359.163 166.639 359.423 166.012 359.423 165.346L359.423 165.346ZM360.104 162.163C360.955 163.012 361.423 164.143 361.423 165.346 361.423 166.547 360.955 167.676 360.104 168.527L360.104 168.527C359.227 169.404 358.075 169.842 356.922 169.842 355.77 169.842 354.618 169.404 353.741 168.527 351.987 166.771 351.987 163.917 353.741 162.163 354.59 161.312 355.72 160.844 356.922 160.844 358.125 160.844 359.254 161.312 360.104 162.163L360.104 162.163ZM336.001 168.922 342 168.922 342 170.922 336 170.922C330.146 170.909 325.326 166.757 325.024 161.467 325.011 161.217 325 160.986 325 160.755 325 154.23 329.627 151.805 332.351 150.945 332.333 150.656 332.324 150.365 332.324 150.07 332.324 144.719 336.081 139.182 341.063 137.189 346.87 134.844 353.028 136.01 357.526 140.307 358.713 141.426 360.231 143.1 361.295 145.141 362.431 144.143 363.714 143.654 365.183 143.654 368.086 143.654 371.34 145.99 371.931 151.096 377.95 152.471 381 155.775 381 160.922 381 166.348 377.778 169.99 372.161 170.909L371.838 168.935C375.105 168.4 379 166.576 379 160.922 379 156.54 376.397 153.992 370.808 152.904 370.361 152.816 370.029 152.436 370.001 151.982 369.777 148.257 367.795 145.654 365.183 145.654 363.848 145.654 362.801 146.234 361.789 147.535 361.566 147.822 361.209 147.964 360.848 147.91 360.491 147.855 360.19 147.611 360.063 147.272 359.191 144.943 357.454 142.988 356.15 141.758 352.231 138.016 346.872 137.003 341.808 139.044 337.61 140.723 334.324 145.566 334.324 150.07 334.324 150.574 334.354 151.061 334.417 151.555 334.421 151.591 334.423 151.63 334.424 151.667L334.424 151.669 334.424 151.671 334.424 151.673 334.424 151.676 334.424 151.676 334.424 151.678 334.424 151.678 334.424 151.678 334.424 151.68 334.424 151.682C334.424 152.186 334.05 152.609 333.564 152.678 331.065 153.311 327 155.197 327 160.755 327 160.952 327.01 161.148 327.02 161.337 327.262 165.587 331.208 168.911 336.001 168.922L336.001 168.922Z" fill="#FFFFFF" fill-rule="evenodd"/></g></svg>