<svg width="48" height="48" xmlns="http://www.w3.org/2000/svg" xmlns:xlink="http://www.w3.org/1999/xlink" xml:space="preserve" overflow="hidden"><g transform="translate(-392 -429)"><path d="M435.284 471.092 435.284 458.848C433.817 459.552 431.744 459.888 429.751 459.888 427.393 459.888 425.511 459.558 424.217 458.951L424.217 471.092C424.217 471.638 426.24 473.356 429.751 473.356 433.261 473.356 435.284 471.638 435.284 471.092M424.217 456.355C424.217 456.996 426.139 457.888 429.751 457.888 433.559 457.888 435.284 456.71 435.284 456.353 435.284 456.027 433.619 455 429.751 455 426.055 455 424.294 455.97 424.217 456.355M437.284 456.353 437.284 471.092C437.284 473.363 433.763 475.356 429.751 475.356 425.737 475.356 422.217 473.363 422.217 471.092L422.217 456.353C422.217 453.878 426.275 453 429.751 453 433.392 453 437.284 453.881 437.284 456.353M419 464 419 469 417 469 417 465 414 465 414 469 412 469 412 465 409 465 409 469 407 469 407 465 404 465 404 469 402 469 402 465 399 465C398.447 465 398 464.553 398 464L398 461 394 461 394 459 398 459 398 456 394 456 394 454 398 454 398 451 394 451 394 449 398 449 398 446 394 446 394 444 398 444 398 441 394 441 394 439 398 439 398 436C398 435.447 398.447 435 399 435L402 435 402 431 404 431 404 435 407 435 407 431 409 431 409 435 412 435 412 431 414 431 414 435 417 435 417 431 419 431 419 435 422 435 422 431 424 431 424 435 427 435C427.553 435 428 435.447 428 436L428 439 432 439 432 441 428 441 428 444 432 444 432 446 428 446 428 449 432 449 432 451 427 451C426.447 451 426 450.553 426 450L426 437 400 437 400 463 418 463C418.553 463 419 463.447 419 464" fill="#ED7100" fill-rule="evenodd"/></g></svg>