<svg width="80" height="80" xmlns="http://www.w3.org/2000/svg" xmlns:xlink="http://www.w3.org/1999/xlink" xml:space="preserve" overflow="hidden"><defs><clipPath id="clip0"><rect x="551" y="124" width="80" height="80"/></clipPath></defs><g clip-path="url(#clip0)" transform="translate(-551 -124)"><path d="M551 124 631 124 631 204 551 204Z" fill="#ED7100" fill-rule="evenodd"/><path d="M593.662 157.449C593.662 156.24 592.694 155.255 591.505 155.255 590.315 155.255 589.348 156.24 589.348 157.449 589.348 158.658 590.315 159.642 591.505 159.642 592.694 159.642 593.662 158.658 593.662 157.449L593.662 157.449ZM593.456 153.764 607.759 137.585 609.231 138.929 594.934 155.102C595.379 155.773 595.64 156.58 595.64 157.449 595.64 159.767 593.785 161.653 591.505 161.653 589.226 161.653 587.37 159.767 587.37 157.449 587.37 155.131 589.226 153.245 591.505 153.245 592.214 153.245 592.871 153.445 593.456 153.764L593.456 153.764ZM595.588 164.208 595.706 164.48C596.369 164.067 596.973 163.564 597.486 162.982 596.934 163.485 596.29 163.897 595.588 164.208L595.588 164.208ZM591.504 142.374C583.327 142.374 576.671 149.139 576.671 157.453 576.671 162.57 579.183 167.285 583.406 170.079L584.484 168.391C580.825 165.978 578.649 161.886 578.649 157.453 578.649 150.244 584.414 144.384 591.504 144.384 592.978 144.384 594.412 144.625 595.777 145.118L597.19 143.52C595.39 142.766 593.473 142.374 591.504 142.374L591.504 142.374ZM604.537 150.255 603.123 151.853C603.935 153.603 604.359 155.513 604.359 157.453 604.359 161.876 602.183 165.968 598.525 168.391L599.613 170.079C603.825 167.275 606.336 162.559 606.336 157.453 606.336 154.94 605.714 152.467 604.537 150.255L604.537 150.255ZM587.421 164.203C584.77 163.033 583.055 160.377 583.055 157.437 583.055 156.25 583.325 155.118 583.856 154.071L582.099 153.149C581.432 154.464 581.078 155.947 581.078 157.437 581.078 161.178 583.259 164.558 586.634 166.048L587.421 164.203ZM601.264 153.954 599.741 155.673C599.89 156.236 599.958 156.83 599.958 157.433 599.958 159.594 599.039 161.595 597.497 162.972 597.497 162.972 597.486 162.972 597.486 162.982 596.934 163.485 596.29 163.897 595.588 164.208L595.706 164.48 596.379 166.048C599.751 164.56 601.936 161.182 601.936 157.433 601.936 156.236 601.71 155.05 601.264 153.954L601.264 153.954ZM611.974 157.151C611.37 170.059 593.037 191.733 592.255 192.648 592.068 192.869 591.791 193 591.504 193 591.217 193 590.94 192.869 590.753 192.648 589.981 191.733 571.639 170.059 571.025 157.151 570.482 145.5 578.808 136.603 590.833 136L592.127 136C595.627 136.181 598.812 137.025 601.621 138.513L600.235 140.081C597.794 138.855 595.064 138.161 592.087 138.011L590.872 138.011C580.053 138.553 572.508 146.566 573.003 157.051 573.518 167.858 588.014 186.174 591.504 190.436 594.995 186.174 609.492 167.858 610.005 157.051 610.173 153.371 609.324 149.843 607.554 146.837L609.007 145.4C611.152 148.838 612.181 152.909 611.974 157.151L611.974 157.151Z" fill="#FFFFFF" fill-rule="evenodd"/></g></svg>