<svg width="48" height="48" xmlns="http://www.w3.org/2000/svg" xmlns:xlink="http://www.w3.org/1999/xlink" xml:space="preserve" overflow="hidden"><g transform="translate(-1034 -281)"><path d="M1066.63 305.794 1068.38 300.673 1070.15 305.794 1066.63 305.794ZM1069.48 298.913 1067.37 298.913 1063.31 310.001 1065.27 310.001 1066.16 307.218 1070.59 307.218 1071.52 310.001 1073.47 310.001 1069.48 298.913ZM1058.86 303.682 1062.79 303.682 1062.79 305.249 1058.86 305.249 1058.86 310.001 1056.91 310.001 1056.91 298.913 1063.65 298.913 1063.65 300.481 1058.86 300.481 1058.86 303.682ZM1052.21 298.913 1054.32 298.913 1054.32 310.001 1052.53 310.001 1052.53 301.696 1049.65 307.218 1047.89 307.218 1045.1 301.729 1045.1 310.001 1043.31 310.001 1043.31 298.913 1045.49 298.913 1048.82 305.521 1052.21 298.913ZM1058 325.002C1046.97 325.002 1038 316.029 1038 305.001 1038 293.973 1046.97 285 1058 285 1069.03 285 1078 293.973 1078 305.001 1078 316.029 1069.03 325.002 1058 325.002L1058 325.002ZM1058 283C1045.87 283 1036 292.869 1036 305.001 1036 317.133 1045.87 327.002 1058 327.002 1070.13 327.002 1080 317.133 1080 305.001 1080 292.869 1070.13 283 1058 283L1058 283Z" fill="#DD344C" fill-rule="evenodd"/></g></svg>