<svg width="48" height="48" xmlns="http://www.w3.org/2000/svg" xmlns:xlink="http://www.w3.org/1999/xlink" xml:space="preserve" overflow="hidden"><g transform="translate(-956 -411)"><path d="M988.625 446.376 990.625 446.376 990.625 423.625 988.625 423.625 988.625 446.376ZM969.375 446.376 971.375 446.376 971.375 423.625 969.375 423.625 969.375 446.376ZM995.625 436.486 993.843 435.001 995.625 433.515 995.625 436.486ZM997.049 430.475C996.701 430.311 996.284 430.363 995.984 430.611L991.64 434.232C991.412 434.423 991.28 434.704 991.28 435.001 991.28 435.298 991.412 435.579 991.64 435.77L995.985 439.39C996.168 439.542 996.396 439.621 996.625 439.621 996.77 439.621 996.914 439.59 997.049 439.526 997.4 439.362 997.625 439.009 997.625 438.621L997.625 431.38C997.625 430.992 997.4 430.639 997.049 430.475L997.049 430.475ZM964.375 436.486 964.375 433.515 966.157 435.001 964.375 436.486ZM964.016 430.611C963.717 430.364 963.302 430.31 962.951 430.475 962.6 430.639 962.375 430.992 962.375 431.38L962.375 438.621C962.375 439.009 962.6 439.362 962.951 439.526 963.086 439.59 963.231 439.621 963.375 439.621 963.605 439.621 963.832 439.542 964.015 439.39L968.36 435.77C968.588 435.579 968.72 435.298 968.72 435.001 968.72 434.704 968.588 434.423 968.36 434.232L964.016 430.611ZM980 455.001C968.972 455.001 960 446.029 960 435.001 960 423.973 968.972 415 980 415 991.028 415 1000 423.973 1000 435.001 1000 446.029 991.028 455.001 980 455.001L980 455.001ZM980 413C967.869 413 958 422.869 958 435.001 958 447.132 967.869 457.001 980 457.001 992.131 457.001 1002 447.132 1002 435.001 1002 422.869 992.131 413 980 413L980 413ZM984.246 440.126 975.75 440.121 975.752 433.376 984.25 433.38 984.246 440.126ZM978.379 430.051C978.381 429.499 978.566 428.987 978.902 428.608 979.206 428.268 979.598 428.079 980.007 428.079L980.012 428.079C980.901 428.082 981.622 428.977 981.619 430.076L981.618 431.379 978.373 431.377 978.379 430.051ZM985.25 431.38 983.618 431.379 983.619 430.079C983.626 427.88 982.01 426.086 980.018 426.079L980.007 426.079C979.018 426.079 978.095 426.506 977.406 427.281 976.747 428.024 976.382 429.006 976.379 430.043L976.373 431.377 974.752 431.376C974.487 431.376 974.232 431.481 974.045 431.669 973.857 431.856 973.752 432.11 973.752 432.376L973.75 441.121C973.75 441.673 974.197 442.121 974.75 442.121L985.246 442.126C985.511 442.126 985.766 442.021 985.953 441.833 986.141 441.646 986.246 441.392 986.246 441.126L986.25 432.38C986.25 432.115 986.145 431.86 985.957 431.673 985.77 431.485 985.516 431.38 985.25 431.38L985.25 431.38Z" fill="#8C4FFF" fill-rule="evenodd"/></g></svg>