<svg width="48" height="48" xmlns="http://www.w3.org/2000/svg" xmlns:xlink="http://www.w3.org/1999/xlink" xml:space="preserve" overflow="hidden"><g transform="translate(-870 -295)"><path d="M894.002 339.003C882.972 339.003 874 330.03 874 319.001 874 307.973 882.972 299 894.002 299 905.029 299 914.003 307.973 914.003 319.001 914.003 330.03 905.029 339.003 894.002 339.003L894.002 339.003ZM894.002 297C881.87 297 872 306.869 872 319.001 872 331.133 881.87 341.003 894.002 341.003 906.133 341.003 916.003 331.133 916.003 319.001 916.003 306.869 906.133 297 894.002 297L894.002 297ZM899.083 318.294C899.474 318.685 899.474 319.317 899.083 319.708L896.141 322.654 894.727 321.24 895.964 320.001 888.75 320.001 888.75 318.001 895.964 318.001 894.727 316.762 896.141 315.348 899.083 318.294ZM902.002 330.252 905.252 330.252 905.252 327.002 902.002 327.002 902.002 330.252ZM906.252 325.002 901.002 325.002C900.448 325.002 900.002 325.449 900.002 326.002L900.002 331.252C900.002 331.805 900.448 332.252 901.002 332.252L906.252 332.252C906.805 332.252 907.252 331.805 907.252 331.252L907.252 326.002C907.252 325.449 906.805 325.002 906.252 325.002L906.252 325.002ZM887.667 313.741 894.961 309.891 893.395 309.466 893.917 307.536 897.937 308.625C898.469 308.77 898.784 309.318 898.64 309.852L897.55 313.873 895.62 313.35 896.109 311.547 888.601 315.511 887.667 313.741ZM902.002 311.001 905.252 311.001 905.252 307.751 902.002 307.751 902.002 311.001ZM906.252 305.751 901.002 305.751C900.448 305.751 900.002 306.198 900.002 306.751L900.002 312.001C900.002 312.554 900.448 313.001 901.002 313.001L906.252 313.001C906.805 313.001 907.252 312.554 907.252 312.001L907.252 306.751C907.252 306.198 906.805 305.751 906.252 305.751L906.252 305.751ZM878.346 322.347 885.036 322.347 885.036 315.657 878.346 315.657 878.346 322.347ZM886.036 313.656 877.346 313.656C876.792 313.656 876.346 314.104 876.346 314.656L876.346 323.347C876.346 323.899 876.792 324.347 877.346 324.347L886.036 324.347C886.589 324.347 887.036 323.899 887.036 323.347L887.036 314.656C887.036 314.104 886.589 313.656 886.036 313.656L886.036 313.656ZM898.64 328.15C898.784 328.684 898.469 329.232 897.937 329.377L893.917 330.467 893.395 328.537 894.963 328.112 887.667 324.262 888.601 322.492 896.109 326.455 895.62 324.652 897.55 324.129 898.64 328.15ZM902.002 320.626 905.252 320.626 905.252 317.376 902.002 317.376 902.002 320.626ZM906.252 315.376 901.002 315.376C900.448 315.376 900.002 315.823 900.002 316.376L900.002 321.626C900.002 322.179 900.448 322.626 901.002 322.626L906.252 322.626C906.805 322.626 907.252 322.179 907.252 321.626L907.252 316.376C907.252 315.823 906.805 315.376 906.252 315.376L906.252 315.376Z" fill="#8C4FFF" fill-rule="evenodd"/></g></svg>