<svg width="80" height="80" xmlns="http://www.w3.org/2000/svg" xmlns:xlink="http://www.w3.org/1999/xlink" xml:space="preserve" overflow="hidden"><defs><clipPath id="clip0"><rect x="314" y="124" width="80" height="80"/></clipPath></defs><g clip-path="url(#clip0)" transform="translate(-314 -124)"><path d="M314 124 394 124 394 204 314 204Z" fill="#ED7100" fill-rule="evenodd"/><path d="M351 189.989 355 189.989 355 182.989 351 182.989 351 189.989ZM342 189.989 349 189.989 349 181.989C349 181.437 349.447 180.989 350 180.989L356 180.989C356.553 180.989 357 181.437 357 181.989L357 189.989 364 189.989 364 158.989 342 158.989 342 169.989 342 171.989 342 189.989ZM382 189.989 382 191.989 326 191.989 326 189.989 340 189.989 340 171.989 335.928 171.989C331.448 171.989 327.577 168.936 326.723 164.73 326.672 164.483 326.631 164.228 326.6 163.97 326.538 163.467 326.506 162.939 326.506 162.404 326.506 156.641 330.3 153.415 334.079 152.215L328.12 150.04 328.806 148.161 336.356 150.917C336.605 151.008 336.809 151.195 336.92 151.435 337.032 151.676 337.044 151.95 336.953 152.199L334.196 159.751 332.317 159.065 334.038 154.352C331.913 155.192 328.506 157.332 328.506 162.404 328.506 162.857 328.532 163.303 328.585 163.729 328.609 163.935 328.643 164.134 328.683 164.33 329.349 167.61 332.396 169.989 335.928 169.989L340 169.989 340 157.989C340 157.437 340.447 156.989 341 156.989L365 156.989C365.553 156.989 366 157.437 366 157.989L366 189.989 382 189.989ZM357 165.989 359 165.989 359 163.989 357 163.989 357 165.989ZM355 166.989 355 162.989C355 162.437 355.447 161.989 356 161.989L360 161.989C360.553 161.989 361 162.437 361 162.989L361 166.989C361 167.541 360.553 167.989 360 167.989L356 167.989C355.447 167.989 355 167.541 355 166.989L355 166.989ZM347 165.989 349 165.989 349 163.989 347 163.989 347 165.989ZM345 166.989 345 162.989C345 162.437 345.447 161.989 346 161.989L350 161.989C350.553 161.989 351 162.437 351 162.989L351 166.989C351 167.541 350.553 167.989 350 167.989L346 167.989C345.447 167.989 345 167.541 345 166.989L345 166.989ZM357 174.989 359 174.989 359 172.989 357 172.989 357 174.989ZM355 175.989 355 171.989C355 171.437 355.447 170.989 356 170.989L360 170.989C360.553 170.989 361 171.437 361 171.989L361 175.989C361 176.541 360.553 176.989 360 176.989L356 176.989C355.447 176.989 355 176.541 355 175.989L355 175.989ZM347 174.989 349 174.989 349 172.989 347 172.989 347 174.989ZM346 176.989C345.447 176.989 345 176.541 345 175.989L345 171.989C345 171.437 345.447 170.989 346 170.989L350 170.989C350.553 170.989 351 171.437 351 171.989L351 175.989C351 176.541 350.553 176.989 350 176.989L346 176.989ZM336.028 148.234 334.104 147.684C335.332 143.388 338.365 139.759 342.021 138.211 347.661 135.822 353.639 137.01 358.006 141.39 359.353 142.741 360.457 144.377 361.303 146.268 362.919 144.932 365.042 144.451 367.067 145.043 369.856 145.858 371.725 148.421 372.148 151.96 374.815 152.599 380.413 154.825 380.666 162.228 380.772 165.332 379.911 167.854 378.104 169.723 376.35 171.538 374.071 172.345 372.376 172.703L377.073 174.945 376.212 176.75 368.958 173.287C368.46 173.05 368.248 172.453 368.486 171.954L371.948 164.7 373.753 165.561 371.218 170.874C372.639 170.662 375.006 170.059 376.676 168.323 378.084 166.86 378.755 164.832 378.668 162.296 378.443 155.746 373.249 154.151 371.026 153.769 370.491 153.677 370.128 153.176 370.206 152.64 369.978 149.693 368.6 147.574 366.506 146.963 364.769 146.456 362.902 147.128 361.756 148.68 361.536 148.978 361.166 149.131 360.804 149.075 360.437 149.02 360.132 148.768 360.008 148.419 359.215 146.172 358.064 144.282 356.59 142.802 354.778 140.986 349.812 137.081 342.8 140.052 339.735 141.35 337.077 144.562 336.028 148.234L336.028 148.234Z" fill="#FFFFFF" fill-rule="evenodd"/></g></svg>