<svg width="48" height="48" xmlns="http://www.w3.org/2000/svg" xmlns:xlink="http://www.w3.org/1999/xlink" xml:space="preserve" overflow="hidden"><g transform="translate(-888 -283)"><path d="M908.29 301.04 909.704 302.454 902.706 309.452C902.511 309.647 902.255 309.745 901.999 309.745 901.743 309.745 901.487 309.647 901.292 309.452L897.792 305.953 899.206 304.539 901.999 307.331 908.29 301.04ZM908.29 289.667 909.704 291.081 902.706 298.079C902.511 298.274 902.255 298.372 901.999 298.372 901.743 298.372 901.487 298.274 901.292 298.079L897.792 294.58 899.206 293.166 901.999 295.958 908.29 289.667ZM907.955 315.576 904.726 318.806 907.955 322.035 906.541 323.449 903.311 320.22 900.081 323.449 898.667 322.035 901.897 318.806 898.667 315.576 900.081 314.162 903.311 317.392 906.541 314.162 907.955 315.576ZM927.243 326.186C927.243 326.63 926.882 326.991 926.438 326.991L896.806 326.991C896.361 326.991 896 326.63 896 326.186L896 287.806C896 287.361 896.361 287 896.806 287L926.438 287C926.882 287 927.243 287.361 927.243 287.806L927.243 326.186ZM926.438 285 896.806 285C895.259 285 894 286.259 894 287.806L894 326.186C894 327.732 895.259 328.991 896.806 328.991L926.438 328.991C927.985 328.991 929.243 327.732 929.243 326.186L929.243 287.806C929.243 286.259 927.985 285 926.438 285L926.438 285Z" fill="#DD344C" fill-rule="evenodd"/></g></svg>