<svg width="40" height="40" xmlns="http://www.w3.org/2000/svg" xmlns:xlink="http://www.w3.org/1999/xlink" xml:space="preserve" overflow="hidden"><defs><clipPath id="clip0"><rect x="443" y="159" width="40" height="40"/></clipPath></defs><g clip-path="url(#clip0)" transform="translate(-443 -159)"><path d="M443 159 483 159 483 199 443 199Z" fill="#00A4A6" fill-rule="evenodd"/><path d="M457 179.026 457 170.026 472.293 170.026 468.146 174.172C467.951 174.368 467.951 174.684 468.146 174.88L472.293 179.026 457 179.026ZM469.207 174.526 473.854 169.88C473.996 169.736 474.039 169.522 473.962 169.335 473.885 169.148 473.702 169.026 473.5 169.026L457 169.026 457 167.97C457.596 167.76 458.026 167.198 458.026 166.531 458.026 165.687 457.34 165 456.495 165 455.65 165 454.963 165.687 454.963 166.531 454.963 167.201 455.398 167.766 456 167.973L456 192.026 453 192.026 453 193.026 460 193.026 460 192.026 457 192.026 457 180.026 473.5 180.026C473.702 180.026 473.885 179.904 473.962 179.717 474.039 179.53 473.996 179.316 473.854 179.172L469.207 174.526Z" fill="#FFFFFF" fill-rule="evenodd"/></g></svg>