<svg width="48" height="48" xmlns="http://www.w3.org/2000/svg" xmlns:xlink="http://www.w3.org/1999/xlink" xml:space="preserve" overflow="hidden"><g transform="translate(-1173 -283)"><path d="M1217.08 315.581C1216.93 315.592 1216.77 315.604 1216.62 315.619 1216.1 315.662 1215.55 315.714 1215 315.772L1214.83 315.79C1213.07 315.972 1211.07 316.177 1210.12 316.047 1209.52 315.962 1208.43 315.487 1207.27 314.984 1205.3 314.132 1202.86 313.07 1200.64 312.9 1197.6 312.666 1192.33 313.24 1188.94 314.831 1186.98 314.743 1185.16 314.215 1183.74 313.343 1183.74 313.071 1183.73 312.799 1183.73 312.694 1183.73 308.558 1185.67 304.679 1189.05 302.044 1191.35 300.701 1194 299.992 1196.71 299.992 1202.83 299.992 1208.27 303.609 1210.38 308.934L1209.57 308.934C1208.76 308.934 1208.08 309.51 1207.91 310.274 1207.77 310.222 1207.64 310.175 1207.5 310.118 1205.47 309.335 1202.68 308.264 1199.47 308.455 1194.76 308.731 1192.45 309.015 1190.62 309.535L1191.17 311.459C1192.84 310.982 1195.04 310.719 1199.58 310.451 1202.37 310.293 1204.92 311.269 1206.78 311.984 1207.17 312.137 1207.53 312.27 1207.87 312.391L1207.87 312.596C1207.87 313.535 1208.63 314.3 1209.57 314.3L1213.22 314.3C1214.16 314.3 1214.92 313.538 1214.92 312.602L1215.28 312.57C1215.87 312.517 1216.41 312.464 1216.87 312.419L1217.08 312.398 1217.08 315.581ZM1182.8 317.249C1180.15 317.612 1178.06 317.288 1177.19 316.753 1177.72 316.382 1178.9 315.863 1179.73 315.499 1180.46 315.184 1181.19 314.851 1181.89 314.495 1183.05 315.374 1184.48 316.033 1186.06 316.426 1185.14 316.794 1184.01 317.084 1182.8 317.249L1182.8 317.249ZM1209.87 312.3 1212.92 312.3 1212.92 310.934 1209.87 310.934 1209.87 312.3ZM1199.59 296C1207.95 296 1214.98 302.295 1216.02 310.492 1215.73 310.52 1215.42 310.549 1215.1 310.578L1214.92 310.594C1214.89 309.676 1214.14 308.934 1213.22 308.934L1212.51 308.934C1210.31 302.457 1203.93 297.992 1196.71 297.992 1194.04 297.992 1191.42 298.604 1189.07 299.767 1189.09 299.753 1189.1 299.738 1189.12 299.725 1192.06 297.323 1195.78 296 1199.59 296L1199.59 296ZM1218.53 310.794C1218.38 310.663 1218.21 310.568 1218.03 310.496 1216.98 301.185 1209.05 294 1199.59 294 1195.32 294 1191.15 295.483 1187.85 298.175 1183.5 301.719 1181 306.97 1181 312.581 1181 312.622 1181.01 312.663 1181.01 312.704 1180.34 313.039 1179.64 313.359 1178.93 313.666 1176.8 314.6 1175.26 315.274 1175.03 316.492 1174.97 316.801 1174.96 317.406 1175.55 317.994 1176.58 319.031 1178.57 319.403 1180.59 319.403 1181.44 319.403 1182.28 319.339 1183.07 319.231 1184.41 319.049 1186.91 318.558 1188.6 317.316 1191.28 315.375 1197.34 314.649 1200.49 314.894 1202.37 315.039 1204.65 316.026 1206.48 316.819 1207.87 317.426 1208.98 317.904 1209.84 318.027 1211.03 318.19 1212.98 317.99 1215.04 317.779L1215.21 317.762C1215.75 317.704 1216.28 317.654 1216.8 317.611 1217.02 317.59 1217.23 317.575 1217.51 317.555 1218.39 317.493 1219.08 316.755 1219.08 315.875L1219.08 312.046C1219.08 311.568 1218.88 311.112 1218.53 310.794L1218.53 310.794Z" fill="#DD344C" fill-rule="evenodd"/></g></svg>