<svg width="48" height="48" xmlns="http://www.w3.org/2000/svg" xmlns:xlink="http://www.w3.org/1999/xlink" xml:space="preserve" overflow="hidden"><g transform="translate(-923 -295)"><path d="M927 338.07 966.944 338.07 966.944 328.711 927 328.711 927 338.07ZM968.944 327.711 968.944 339.07C968.944 339.623 968.497 340.07 967.944 340.07L926 340.07C925.447 340.07 925 339.623 925 339.07L925 327.711C925 327.158 925.447 326.711 926 326.711L967.944 326.711C968.497 326.711 968.944 327.158 968.944 327.711L968.944 327.711ZM927 323.214 966.944 323.214 966.944 313.855 927 313.855 927 323.214ZM968.944 312.855 968.944 324.215C968.944 324.767 968.497 325.215 967.944 325.215L926 325.215C925.447 325.215 925 324.767 925 324.215L925 312.855C925 312.302 925.447 311.855 926 311.855L967.944 311.855C968.497 311.855 968.944 312.302 968.944 312.855L968.944 312.855ZM927 308.359 966.944 308.359 966.944 299 927 299 927 308.359ZM968.944 298 968.944 309.359C968.944 309.912 968.497 310.359 967.944 310.359L926 310.359C925.447 310.359 925 309.912 925 309.359L925 298C925 297.447 925.447 297 926 297L967.944 297C968.497 297 968.944 297.447 968.944 298L968.944 298ZM962.399 333.417C962.399 334.273 962.479 334.893 962.64 335.278 962.801 335.663 963.058 335.854 963.411 335.854 963.763 335.854 964.02 335.663 964.181 335.278 964.342 334.893 964.422 334.273 964.422 333.417 964.422 332.566 964.342 331.949 964.181 331.564 964.02 331.179 963.763 330.987 963.411 330.987 963.058 330.987 962.801 331.179 962.64 331.564 962.479 331.949 962.399 332.566 962.399 333.417L962.399 333.417ZM961.986 335.758C961.661 335.222 961.499 334.442 961.499 333.417 961.499 332.391 961.661 331.612 961.986 331.079 962.311 330.546 962.786 330.279 963.411 330.279 964.036 330.279 964.511 330.546 964.835 331.079 965.161 331.612 965.323 332.391 965.323 333.417 965.323 334.448 965.161 335.23 964.835 335.762 964.511 336.296 964.036 336.562 963.411 336.562 962.786 336.562 962.311 336.295 961.986 335.758L961.986 335.758ZM960.107 336.536C960.273 336.536 960.409 336.485 960.51 336.383 960.612 336.282 960.664 336.146 960.664 335.977 960.664 335.808 960.612 335.673 960.51 335.571 960.409 335.468 960.273 335.418 960.107 335.418 959.94 335.418 959.804 335.468 959.703 335.571 959.601 335.673 959.55 335.808 959.55 335.977 959.55 336.146 959.601 336.282 959.703 336.383 959.804 336.485 959.94 336.536 960.107 336.536L960.107 336.536ZM958.584 335.723 956.059 335.723C956.777 334.849 957.285 334.202 957.582 333.779 957.878 333.357 958.083 333.003 958.194 332.717 958.305 332.432 958.362 332.156 958.362 331.887 958.362 331.381 958.228 330.986 957.961 330.703 957.696 330.421 957.325 330.279 956.849 330.279 956.576 330.279 956.31 330.325 956.05 330.415 955.791 330.505 955.521 330.649 955.243 330.847L955.243 331.591C955.83 331.217 956.316 331.031 956.7 331.031 957.202 331.031 957.452 331.334 957.452 331.94 957.452 332.214 957.38 332.502 957.239 332.805 957.095 333.108 956.861 333.488 956.533 333.945 956.205 334.402 955.728 335.018 955.103 335.794L955.103 336.449 958.584 336.449 958.584 335.723ZM953.498 336.536C953.665 336.536 953.799 336.485 953.902 336.383 954.003 336.282 954.055 336.146 954.055 335.977 954.055 335.808 954.003 335.673 953.902 335.571 953.799 335.468 953.665 335.418 953.498 335.418 953.331 335.418 953.196 335.468 953.094 335.571 952.992 335.673 952.941 335.808 952.941 335.977 952.941 336.146 952.992 336.282 953.094 336.383 953.196 336.485 953.331 336.536 953.498 336.536L953.498 336.536ZM949.255 333.784C949.255 334.507 949.337 335.035 949.502 335.37 949.666 335.705 949.923 335.872 950.276 335.872 950.865 335.872 951.159 335.462 951.159 334.64 951.159 334.261 951.082 333.971 950.926 333.77 950.772 333.57 950.543 333.468 950.24 333.468 949.918 333.468 949.59 333.55 949.255 333.714L949.255 333.784ZM948.842 335.841C948.536 335.361 948.383 334.62 948.383 333.618 948.383 332.54 948.568 331.714 948.936 331.14 949.304 330.566 949.828 330.279 950.508 330.279 950.718 330.279 950.931 330.305 951.145 330.358 951.358 330.411 951.545 330.48 951.706 330.568L951.706 331.206C951.551 331.135 951.375 331.079 951.177 331.036 950.979 330.992 950.794 330.969 950.62 330.969 950.181 330.969 949.853 331.143 949.636 331.49 949.419 331.837 949.295 332.388 949.265 333.146 949.661 332.913 950.07 332.796 950.491 332.796 950.96 332.796 951.336 332.96 951.618 333.286 951.9 333.612 952.041 334.046 952.041 334.588 952.041 335.194 951.878 335.674 951.558 336.029 951.236 336.384 950.799 336.562 950.25 336.562 949.618 336.562 949.149 336.322 948.842 335.841L948.842 335.841ZM945.635 336.449 946.517 336.449 946.517 330.393 945.71 330.393 944.252 331.223 944.252 331.94 945.635 331.284 945.635 336.449ZM942.377 336.536C942.544 336.536 942.679 336.485 942.782 336.383 942.883 336.282 942.935 336.146 942.935 335.977 942.935 335.808 942.883 335.673 942.782 335.571 942.679 335.468 942.544 335.418 942.377 335.418 942.211 335.418 942.076 335.468 941.974 335.571 941.872 335.673 941.821 335.808 941.821 335.977 941.821 336.146 941.872 336.282 941.974 336.383 942.076 336.485 942.211 336.536 942.377 336.536L942.377 336.536ZM940.855 335.723 938.331 335.723C939.048 334.849 939.556 334.202 939.852 333.779 940.15 333.357 940.354 333.003 940.465 332.717 940.577 332.432 940.633 332.156 940.633 331.887 940.633 331.381 940.5 330.986 940.233 330.703 939.967 330.421 939.596 330.279 939.121 330.279 938.847 330.279 938.582 330.325 938.322 330.415 938.061 330.505 937.793 330.649 937.514 330.847L937.514 331.591C938.101 331.217 938.587 331.031 938.971 331.031 939.473 331.031 939.723 331.334 939.723 331.94 939.723 332.214 939.652 332.502 939.51 332.805 939.367 333.108 939.132 333.488 938.804 333.945 938.476 334.402 938 335.018 937.375 335.794L937.375 336.449 940.855 336.449 940.855 335.723ZM933.429 336.449 934.339 336.449 936.28 331.04 936.28 330.393 932.734 330.393 932.734 331.118 935.398 331.118 933.429 336.449ZM930.004 336.449 930.886 336.449 930.886 330.393 930.079 330.393 928.621 331.223 928.621 331.94 930.004 331.284 930.004 336.449ZM962.399 318.237C962.399 319.093 962.479 319.715 962.64 320.099 962.801 320.483 963.058 320.675 963.411 320.675 963.763 320.675 964.02 320.483 964.181 320.099 964.342 319.715 964.422 319.093 964.422 318.237 964.422 317.387 964.342 316.769 964.181 316.385 964.02 316.001 963.763 315.808 963.411 315.808 963.058 315.808 962.801 316.001 962.64 316.385 962.479 316.769 962.399 317.387 962.399 318.237L962.399 318.237ZM961.986 320.58C961.661 320.044 961.499 319.263 961.499 318.237 961.499 317.213 961.661 316.433 961.986 315.9 962.311 315.367 962.786 315.1 963.411 315.1 964.036 315.1 964.511 315.367 964.835 315.9 965.161 316.433 965.323 317.213 965.323 318.237 965.323 319.268 965.161 320.05 964.835 320.584 964.511 321.117 964.036 321.383 963.411 321.383 962.786 321.383 962.311 321.116 961.986 320.58L961.986 320.58ZM960.107 321.357C960.273 321.357 960.409 321.306 960.51 321.204 960.612 321.102 960.664 320.967 960.664 320.798 960.664 320.629 960.612 320.494 960.51 320.391 960.409 320.29 960.273 320.239 960.107 320.239 959.94 320.239 959.804 320.29 959.703 320.391 959.601 320.494 959.55 320.629 959.55 320.798 959.55 320.967 959.601 321.102 959.703 321.204 959.804 321.306 959.94 321.357 960.107 321.357L960.107 321.357ZM956.755 321.27 957.637 321.27 957.637 315.214 956.83 315.214 955.373 316.045 955.373 316.76 956.755 316.105 956.755 321.27ZM953.498 321.357C953.665 321.357 953.799 321.306 953.902 321.204 954.003 321.102 954.055 320.967 954.055 320.798 954.055 320.629 954.003 320.494 953.902 320.391 953.799 320.29 953.665 320.239 953.498 320.239 953.331 320.239 953.196 320.29 953.094 320.391 952.992 320.494 952.941 320.629 952.941 320.798 952.941 320.967 952.992 321.102 953.094 321.204 953.196 321.306 953.331 321.357 953.498 321.357L953.498 321.357ZM949.255 318.605C949.255 319.327 949.337 319.856 949.502 320.191 949.666 320.526 949.923 320.693 950.276 320.693 950.865 320.693 951.159 320.283 951.159 319.462 951.159 319.083 951.082 318.793 950.926 318.591 950.772 318.39 950.543 318.29 950.24 318.29 949.918 318.29 949.59 318.372 949.255 318.535L949.255 318.605ZM948.842 320.663C948.536 320.182 948.383 319.441 948.383 318.438 948.383 317.361 948.568 316.535 948.936 315.961 949.304 315.387 949.828 315.1 950.508 315.1 950.718 315.1 950.931 315.127 951.145 315.179 951.358 315.231 951.545 315.301 951.706 315.389L951.706 316.027C951.551 315.957 951.375 315.9 951.177 315.856 950.979 315.812 950.794 315.791 950.62 315.791 950.181 315.791 949.853 315.964 949.636 316.311 949.419 316.657 949.295 317.21 949.265 317.966 949.661 317.734 950.07 317.617 950.491 317.617 950.96 317.617 951.336 317.78 951.618 318.106 951.9 318.433 952.041 318.867 952.041 319.409 952.041 320.014 951.878 320.495 951.558 320.85 951.236 321.206 950.799 321.383 950.25 321.383 949.618 321.383 949.149 321.143 948.842 320.663L948.842 320.663ZM945.635 321.27 946.517 321.27 946.517 315.214 945.71 315.214 944.252 316.045 944.252 316.76 945.635 316.105 945.635 321.27ZM942.377 321.357C942.544 321.357 942.679 321.306 942.782 321.204 942.883 321.102 942.935 320.967 942.935 320.798 942.935 320.629 942.883 320.494 942.782 320.391 942.679 320.29 942.544 320.239 942.377 320.239 942.211 320.239 942.076 320.29 941.974 320.391 941.872 320.494 941.821 320.629 941.821 320.798 941.821 320.967 941.872 321.102 941.974 321.204 942.076 321.306 942.211 321.357 942.377 321.357L942.377 321.357ZM940.855 320.545 938.331 320.545C939.048 319.671 939.556 319.022 939.852 318.6 940.15 318.178 940.354 317.824 940.465 317.539 940.577 317.253 940.633 316.976 940.633 316.708 940.633 316.202 940.5 315.807 940.233 315.524 939.967 315.242 939.596 315.1 939.121 315.1 938.847 315.1 938.582 315.145 938.322 315.236 938.061 315.326 937.793 315.47 937.514 315.669L937.514 316.411C938.101 316.039 938.587 315.852 938.971 315.852 939.473 315.852 939.723 316.155 939.723 316.76 939.723 317.035 939.652 317.323 939.51 317.626 939.367 317.929 939.132 318.309 938.804 318.766 938.476 319.223 938 319.84 937.375 320.615L937.375 321.27 940.855 321.27 940.855 320.545ZM933.429 321.27 934.339 321.27 936.28 315.861 936.28 315.214 932.734 315.214 932.734 315.939 935.398 315.939 933.429 321.27ZM930.004 321.27 930.886 321.27 930.886 315.214 930.079 315.214 928.621 316.045 928.621 316.76 930.004 316.105 930.004 321.27ZM962.399 303.917C962.399 304.773 962.479 305.394 962.64 305.779 962.801 306.163 963.058 306.355 963.411 306.355 963.763 306.355 964.02 306.163 964.181 305.779 964.342 305.394 964.422 304.773 964.422 303.917 964.422 303.067 964.342 302.449 964.181 302.065 964.02 301.68 963.763 301.488 963.411 301.488 963.058 301.488 962.801 301.68 962.64 302.065 962.479 302.449 962.399 303.067 962.399 303.917L962.399 303.917ZM961.986 306.259C961.661 305.723 961.499 304.943 961.499 303.917 961.499 302.892 961.661 302.113 961.986 301.58 962.311 301.047 962.786 300.78 963.411 300.78 964.036 300.78 964.511 301.047 964.835 301.58 965.161 302.113 965.323 302.892 965.323 303.917 965.323 304.948 965.161 305.73 964.835 306.263 964.511 306.797 964.036 307.063 963.411 307.063 962.786 307.063 962.311 306.795 961.986 306.259L961.986 306.259ZM960.107 307.037C960.273 307.037 960.409 306.986 960.51 306.883 960.612 306.782 960.664 306.646 960.664 306.477 960.664 306.308 960.612 306.174 960.51 306.071 960.409 305.969 960.273 305.919 960.107 305.919 959.94 305.919 959.804 305.969 959.703 306.071 959.601 306.174 959.55 306.308 959.55 306.477 959.55 306.646 959.601 306.782 959.703 306.883 959.804 306.986 959.94 307.037 960.107 307.037L960.107 307.037ZM955.791 303.917C955.791 304.773 955.871 305.394 956.031 305.779 956.193 306.163 956.449 306.355 956.801 306.355 957.154 306.355 957.412 306.163 957.572 305.779 957.734 305.394 957.813 304.773 957.813 303.917 957.813 303.067 957.734 302.449 957.572 302.065 957.412 301.68 957.154 301.488 956.801 301.488 956.449 301.488 956.193 301.68 956.031 302.065 955.871 302.449 955.791 303.067 955.791 303.917L955.791 303.917ZM955.377 306.259C955.052 305.723 954.89 304.943 954.89 303.917 954.89 302.892 955.052 302.113 955.377 301.58 955.703 301.047 956.177 300.78 956.801 300.78 957.427 300.78 957.902 301.047 958.226 301.58 958.552 302.113 958.714 302.892 958.714 303.917 958.714 304.948 958.552 305.73 958.226 306.263 957.902 306.797 957.427 307.063 956.801 307.063 956.177 307.063 955.703 306.795 955.377 306.259L955.377 306.259ZM953.498 307.037C953.665 307.037 953.799 306.986 953.902 306.883 954.003 306.782 954.055 306.646 954.055 306.477 954.055 306.308 954.003 306.174 953.902 306.071 953.799 305.969 953.665 305.919 953.498 305.919 953.331 305.919 953.196 305.969 953.094 306.071 952.992 306.174 952.941 306.308 952.941 306.477 952.941 306.646 952.992 306.782 953.094 306.883 953.196 306.986 953.331 307.037 953.498 307.037L953.498 307.037ZM949.255 304.284C949.255 305.007 949.337 305.536 949.502 305.871 949.666 306.206 949.923 306.373 950.276 306.373 950.865 306.373 951.159 305.962 951.159 305.14 951.159 304.761 951.082 304.472 950.926 304.271 950.772 304.07 950.543 303.969 950.24 303.969 949.918 303.969 949.59 304.051 949.255 304.215L949.255 304.284ZM948.842 306.342C948.536 305.861 948.383 305.12 948.383 304.118 948.383 303.041 948.568 302.215 948.936 301.64 949.304 301.067 949.828 300.78 950.508 300.78 950.718 300.78 950.931 300.806 951.145 300.858 951.358 300.911 951.545 300.981 951.706 301.068L951.706 301.707C951.551 301.636 951.375 301.58 951.177 301.536 950.979 301.492 950.794 301.47 950.62 301.47 950.181 301.47 949.853 301.643 949.636 301.991 949.419 302.337 949.295 302.889 949.265 303.646 949.661 303.414 950.07 303.297 950.491 303.297 950.96 303.297 951.336 303.46 951.618 303.786 951.9 304.112 952.041 304.547 952.041 305.089 952.041 305.694 951.878 306.174 951.558 306.53 951.236 306.885 950.799 307.063 950.25 307.063 949.618 307.063 949.149 306.823 948.842 306.342L948.842 306.342ZM945.635 306.95 946.517 306.95 946.517 300.893 945.71 300.893 944.252 301.723 944.252 302.44 945.635 301.785 945.635 306.95ZM942.377 307.037C942.544 307.037 942.679 306.986 942.782 306.883 942.883 306.782 942.935 306.646 942.935 306.477 942.935 306.308 942.883 306.174 942.782 306.071 942.679 305.969 942.544 305.919 942.377 305.919 942.211 305.919 942.076 305.969 941.974 306.071 941.872 306.174 941.821 306.308 941.821 306.477 941.821 306.646 941.872 306.782 941.974 306.883 942.076 306.986 942.211 307.037 942.377 307.037L942.377 307.037ZM940.855 306.224 938.331 306.224C939.048 305.35 939.556 304.702 939.852 304.28 940.15 303.858 940.354 303.504 940.465 303.218 940.577 302.932 940.633 302.656 940.633 302.387 940.633 301.882 940.5 301.487 940.233 301.204 939.967 300.922 939.596 300.78 939.121 300.78 938.847 300.78 938.582 300.825 938.322 300.916 938.061 301.006 937.793 301.15 937.514 301.348L937.514 302.091C938.101 301.718 938.587 301.532 938.971 301.532 939.473 301.532 939.723 301.835 939.723 302.44 939.723 302.715 939.652 303.003 939.51 303.305 939.367 303.608 939.132 303.989 938.804 304.446 938.476 304.903 938 305.519 937.375 306.294L937.375 306.95 940.855 306.95 940.855 306.224ZM933.429 306.95 934.339 306.95 936.28 301.541 936.28 300.893 932.734 300.893 932.734 301.619 935.398 301.619 933.429 306.95ZM930.004 301.785 928.621 302.44 928.621 301.723 930.079 300.893 930.886 300.893 930.886 306.95 930.004 306.95 930.004 301.785Z" fill="#8C4FFF" fill-rule="evenodd"/></g></svg>