<svg width="48" height="48" xmlns="http://www.w3.org/2000/svg" xmlns:xlink="http://www.w3.org/1999/xlink" xml:space="preserve" overflow="hidden"><g transform="translate(-509 -289)"><path d="M511 291 511 305 511 306 511 319 511 320 511 335 555 335 555 291 511 291ZM513 305.001 553.001 305.001 553.001 293 513 293 513 305.001ZM513 319 553.001 319 553.001 307 513 307 513 319ZM513 333.001 553.001 333.001 553.001 321 513 321 513 333.001ZM544.151 300.008 541.578 298.184 540.422 299.816 544.371 302.617 549.707 297.28 548.293 295.866 544.151 300.008ZM544.151 314.008 541.578 312.184 540.422 313.816 544.371 316.617 549.707 311.281 548.293 309.867 544.151 314.008ZM545 325.646 542.647 323.293 541.233 324.707 543.586 327.06 541.233 329.414 542.647 330.829 545 328.475 547.354 330.829 548.768 329.414 546.414 327.06 548.768 324.707 547.354 323.293 545 325.646Z" fill="#DD344C" fill-rule="evenodd"/></g></svg>