<svg width="48" height="48" xmlns="http://www.w3.org/2000/svg" xmlns:xlink="http://www.w3.org/1999/xlink" xml:space="preserve" overflow="hidden"><g transform="translate(-906 -539)"><path d="M915.584 578.43 919.421 574.593 920.835 576.007 916.302 580.54C916.106 580.736 915.851 580.833 915.595 580.833 915.344 580.833 915.093 580.74 914.898 580.552L912.834 578.552 914.227 577.115 915.584 578.43ZM920.835 566.34 916.302 570.873C916.106 571.069 915.851 571.166 915.595 571.166 915.344 571.166 915.093 571.073 914.898 570.885L912.834 568.885 914.227 567.448 915.584 568.763 919.421 564.926 920.835 566.34ZM920.835 556.674 916.302 561.207C916.106 561.402 915.851 561.5 915.595 561.5 915.344 561.5 915.093 561.406 914.898 561.218L912.834 559.218 914.227 557.782 915.584 559.097 919.421 555.26 920.835 556.674ZM920.835 547.007 916.302 551.54C916.106 551.736 915.851 551.833 915.595 551.833 915.344 551.833 915.093 551.74 914.898 551.552L912.834 549.552 914.227 548.115 915.584 549.43 919.421 545.593 920.835 547.007ZM940 576 942 576 942 584C942 584.552 941.553 585 941 585L909 585C908.447 585 908 584.552 908 584L908 542C908 541.448 908.447 541 909 541L941 541C941.553 541 942 541.448 942 542L942 553 940 553 940 543 910 543 910 583 940 583 940 576ZM931 565 930 565 930 563 931 563 931 559 933 559 933 563 934 563 934 565 933 565 933 570 931 570 931 565ZM938 568 937 568 937 566 938 566 938 559 940 559 940 566 941 566 941 568 940 568 940 570 938 570 938 568ZM945 563 944 563 944 561 945 561 945 559 947 559 947 561 948 561 948 563 947 563 947 570 945 570 945 563ZM928 572 950 572 950 557 928 557 928 572ZM951 555 927 555C926.447 555 926 555.448 926 556L926 573C926 573.552 926.447 574 927 574L951 574C951.553 574 952 573.552 952 573L952 556C952 555.448 951.553 555 951 555L951 555Z" fill="#7AA116" fill-rule="evenodd"/></g></svg>