<svg width="48" height="48" xmlns="http://www.w3.org/2000/svg" xmlns:xlink="http://www.w3.org/1999/xlink" xml:space="preserve" overflow="hidden"><g transform="translate(-781 -296)"><path d="M824.165 334.081 825.861 335.778 824.447 337.192 822.256 335 819.084 335 820.722 337.841 823.616 338.654 823.075 340.58 820.807 339.941 820.185 342.259 818.253 341.741 819.019 338.89 817.411 336.102 815.829 338.837 816.571 341.753 814.634 342.247 814.052 339.962 811.733 340.583 811.216 338.651 814.067 337.888 815.738 335 812.621 335 810.364 337.201 808.968 335.769 810.656 334.123 808.959 332.427 810.373 331.013 812.361 333 815.62 333 814.095 330.363 811.204 329.55 811.745 327.624 814.015 328.263 814.637 325.945 816.568 326.463 815.802 329.321 817.411 332.103 818.991 329.362 818.25 326.451 820.187 325.957 820.769 328.242 823.087 327.621 823.604 329.553 820.747 330.319 819.202 333 822.409 333 824.456 331.004 825.852 332.435 824.165 334.081ZM803.869 300C814.272 300 821.602 303.224 821.739 305.013L821.714 305.21C821.691 305.291 821.644 305.376 821.595 305.46 821.576 305.491 821.566 305.522 821.544 305.555 821.487 305.636 821.407 305.718 821.327 305.8 821.292 305.836 821.267 305.872 821.226 305.909 821.139 305.989 821.028 306.069 820.921 306.15 820.867 306.19 820.823 306.229 820.765 306.269 820.647 306.349 820.509 306.429 820.37 306.509 820.302 306.55 820.241 306.59 820.167 306.63 820.017 306.712 819.844 306.793 819.673 306.874 819.593 306.912 819.521 306.95 819.436 306.988 819.245 307.073 819.034 307.157 818.821 307.241 818.739 307.274 818.665 307.308 818.579 307.339 818.335 307.431 818.071 307.52 817.802 307.609 817.733 307.632 817.671 307.655 817.601 307.679 817.286 307.778 816.951 307.876 816.604 307.972 816.569 307.981 816.54 307.991 816.505 308.001 813.398 308.843 809.056 309.463 803.874 309.463 795.452 309.463 789.243 307.823 786.956 306.254 786.946 306.247 786.939 306.24 786.93 306.233 786.769 306.121 786.626 306.01 786.507 305.899 786.484 305.879 786.47 305.858 786.45 305.839 786.351 305.742 786.262 305.645 786.195 305.551 786.175 305.52 786.165 305.491 786.147 305.461 786.097 305.377 786.051 305.293 786.027 305.211L786.002 305.013C786.139 303.224 793.468 300 803.869 300L803.869 300ZM824.157 322.423C823.865 322.478 823.126 322.509 821.458 322.101L821.677 320.466C823.417 321.522 823.984 322.147 824.157 322.423L824.157 322.423ZM804.117 315.999 805.117 316 804.118 316.001C804.117 316.001 804.117 316 804.117 315.999L804.117 315.999ZM803.874 340C795.415 340 790.278 337.832 790.278 336.879 790.278 336.834 790.275 336.79 790.269 336.746L786.441 308.271C786.674 308.407 786.921 308.537 787.181 308.664 787.326 308.735 787.483 308.802 787.636 308.87 787.796 308.94 787.958 309.012 788.126 309.08 788.304 309.151 788.484 309.222 788.67 309.291 788.827 309.349 788.991 309.405 789.155 309.461 789.573 309.603 790.009 309.739 790.464 309.866 790.557 309.893 790.645 309.921 790.739 309.946 790.987 310.013 791.244 310.075 791.502 310.138 791.648 310.174 791.795 310.21 791.944 310.244 792.212 310.306 792.482 310.364 792.759 310.421 792.884 310.447 793.011 310.471 793.137 310.495 794.103 310.685 795.111 310.847 796.153 310.98 796.27 310.995 796.387 311.011 796.505 311.025 796.844 311.066 797.185 311.105 797.528 311.142 797.599 311.148 797.669 311.154 797.739 311.161 798.864 311.273 800.009 311.353 801.161 311.403 801.274 311.408 801.388 311.413 801.501 311.417 801.862 311.431 802.222 311.442 802.583 311.449 802.632 311.45 802.679 311.45 802.728 311.451 803.108 311.458 803.489 311.467 803.869 311.467 804.234 311.467 804.602 311.458 804.969 311.452 805.038 311.45 805.106 311.45 805.177 311.449 805.52 311.442 805.863 311.431 806.208 311.418 806.349 311.413 806.489 311.407 806.63 311.401 806.968 311.386 807.304 311.37 807.64 311.351L807.897 311.333C808.542 311.292 809.181 311.24 809.814 311.179 809.968 311.165 810.12 311.151 810.272 311.136 810.568 311.104 810.861 311.07 811.153 311.035 811.339 311.013 811.522 310.989 811.706 310.966 811.987 310.929 812.267 310.892 812.542 310.852 812.747 310.821 812.946 310.787 813.147 310.755 813.577 310.686 813.998 310.612 814.412 310.533 814.628 310.492 814.843 310.451 815.054 310.407 815.278 310.36 815.498 310.312 815.717 310.263 815.937 310.213 816.153 310.16 816.368 310.107 816.564 310.059 816.763 310.011 816.954 309.96 817.319 309.862 817.675 309.76 818.019 309.652 818.172 309.604 818.315 309.553 818.465 309.503 818.689 309.428 818.91 309.352 819.123 309.272 819.274 309.216 819.423 309.158 819.567 309.101 819.782 309.014 819.987 308.925 820.188 308.834 820.305 308.781 820.425 308.73 820.536 308.677 820.804 308.547 821.06 308.413 821.298 308.274L819.513 321.551C814.953 320.118 808.87 317.347 806.112 316.051 806.112 316.033 806.117 316.018 806.117 316 806.117 314.897 805.22 314 804.117 314 803.015 314 802.117 314.897 802.117 316 802.117 317.102 803.015 318 804.117 318 804.454 318 804.768 317.908 805.047 317.76 808.18 319.24 814.504 322.116 819.243 323.56L819.157 324.198 821.14 324.466 821.189 324.095C822.209 324.334 823.048 324.455 823.731 324.455 824.722 324.455 825.389 324.203 825.814 323.696 826.164 323.28 826.302 322.757 826.201 322.222 825.986 321.071 824.661 319.854 821.966 318.319L823.669 305.648C823.673 305.626 823.679 305.603 823.682 305.581L823.732 305.193C823.738 305.15 823.741 305.106 823.741 305.063 823.741 300.9 813.269 298 803.869 298 794.472 298 784 300.9 784 305.063 784 305.106 784.003 305.15 784.009 305.193L784.06 305.581 784.065 305.613 788.279 336.956C788.41 340.629 797.886 342 803.874 342 805.904 342 807.942 341.871 809.933 341.616L809.679 339.632C807.772 339.876 805.819 340 803.874 340L803.874 340Z" fill="#7AA116" fill-rule="evenodd"/></g></svg>