<svg width="48" height="48" xmlns="http://www.w3.org/2000/svg" xmlns:xlink="http://www.w3.org/1999/xlink" xml:space="preserve" overflow="hidden"><g transform="translate(-531 -441)"><path d="M566.969 448.575C565.706 448.332 564.408 448.15 563.136 448.02 560.756 446.977 556.443 446 550.407 446 539.715 446 535.074 448.812 535.007 449.741L535.028 449.89C535.233 450.421 536.677 451.399 540.317 452.129 539.802 452.67 539.428 453.271 539.236 453.941 537.824 453.625 536.489 453.217 535.418 452.683L538.842 477.141C538.848 477.187 538.852 477.234 538.852 477.28 538.893 477.437 539.545 478.12 541.87 478.759L542.168 480.888C538.711 480.083 536.913 478.899 536.853 477.361L533.068 450.314C533.055 450.262 533.054 450.204 533.044 450.15L533.01 449.902 533.004 449.854C533.002 449.807 533 449.811 533 449.763 533 446.02 541.969 444 550.407 444 557.865 444 565.388 445.569 566.969 448.575L566.969 448.575ZM572.898 469.98 573.032 468.963C574.031 469.572 574.525 469.994 574.765 470.252 574.447 470.265 573.865 470.211 572.898 469.98L572.898 469.98ZM569.237 482.405C569.231 482.449 569.229 482.48 569.229 482.524 569.2 482.638 568.834 483.076 567.574 483.568 566.944 483.814 566.198 484.036 565.357 484.227 563.178 484.725 560.505 485 557.829 485 550.723 485 546.619 483.264 546.434 482.537 546.434 482.49 546.43 482.444 546.424 482.398L543.001 457.945C546.311 459.606 552.469 460.254 557.99 460.254 563.316 460.254 569.249 459.611 572.469 457.97L570.952 469.43C567.085 468.203 562.031 465.924 559.752 464.863 559.603 463.954 558.818 463.256 557.866 463.256 556.809 463.256 555.948 464.116 555.948 465.174 555.948 466.23 556.809 467.091 557.866 467.091 558.289 467.091 558.677 466.949 558.994 466.717 561.687 467.97 566.776 470.244 570.687 471.445L569.237 482.405ZM557.99 451.257C567.562 451.257 572.803 453.714 572.863 454.997L572.85 455.09C572.664 456.262 567.707 458.254 557.99 458.254 548.073 458.254 542.805 456.232 542.602 455.09L542.589 454.997C542.657 454.068 547.297 451.257 557.99 451.257L557.99 451.257ZM576.955 470.188C576.764 469.16 575.656 468.137 573.316 466.815L574.859 455.151C574.862 455.107 574.867 455.065 574.867 455.02 574.867 451.236 566.377 449.257 557.99 449.257 549.551 449.257 540.582 451.276 540.582 455.02 540.582 455.067 540.581 455.068 540.584 455.115L540.592 455.159 544.435 482.618C544.568 485.831 552.49 487 557.829 487 560.651 487 563.483 486.708 565.801 486.178 566.738 485.965 567.579 485.714 568.302 485.43 570.2 484.689 571.184 483.741 571.226 482.613L572.634 471.97C573.452 472.154 574.141 472.251 574.706 472.251 575.598 472.251 576.2 472.022 576.59 471.562 576.918 471.176 577.048 470.687 576.955 470.188L576.955 470.188Z" fill="#7AA116" fill-rule="evenodd"/></g></svg>