<svg width="48" height="48" xmlns="http://www.w3.org/2000/svg" xmlns:xlink="http://www.w3.org/1999/xlink" xml:space="preserve" overflow="hidden"><g transform="translate(-656 -539)"><path d="M694.122 578.521C694.042 578.668 694 578.833 694 579L694 583 691 583 691 579C691 578.833 690.958 578.668 690.878 578.521L685.684 569 699.315 569 694.122 578.521ZM701.86 567.49C701.68 567.186 701.352 567 701 567L684 567C683.647 567 683.32 567.186 683.14 567.49 682.96 567.793 682.953 568.169 683.122 568.479L689 579.255 689 584C689 584.552 689.447 585 690 585L695 585C695.553 585 696 584.552 696 584L696 579.255 701.878 568.479C702.047 568.169 702.04 567.793 701.86 567.49L701.86 567.49ZM675.416 543C684.227 543 690.693 545.751 690.832 547.227L690.809 547.406C690.306 548.879 684.15 550.976 675.416 550.976 666.681 550.976 660.525 548.878 660.026 547.405L660.002 547.226C660.143 545.75 666.607 543 675.416 543L675.416 543ZM693.127 561.16C693.157 561.246 693.163 561.317 693.105 561.432 693.094 561.456 693.03 561.499 692.919 561.536 692.469 561.685 691.78 561.669 690.925 561.53L691.188 559.58C692.012 560.023 692.939 560.618 693.127 561.16L693.127 561.16ZM683.125 576.739C680.894 577.254 678.157 577.539 675.416 577.539 668.107 577.539 663.852 575.701 663.726 574.954 663.726 574.91 663.723 574.865 663.717 574.821L660.413 550.282C663.652 552.055 669.672 552.976 675.416 552.976 681.161 552.976 687.182 552.055 690.421 550.282L688.967 561.082C685.718 560.179 681.349 558.34 677.973 556.729 677.839 555.755 677.01 555 676 555 674.897 555 674 555.897 674 557 674 558.103 674.897 559 676 559 676.456 559 676.872 558.841 677.209 558.583 679.911 559.874 684.768 562.054 688.7 563.067L688.474 564.746 690.456 565.013 690.663 563.477C691.209 563.56 691.731 563.617 692.192 563.617 692.711 563.617 693.17 563.56 693.55 563.433 694.334 563.172 694.714 562.688 694.894 562.327 695.186 561.743 695.228 561.112 695.016 560.502 694.523 559.088 692.748 558.095 691.471 557.476L692.781 547.746 692.78 547.745C692.781 547.744 692.781 547.743 692.781 547.741L692.825 547.403C692.831 547.361 692.834 547.317 692.834 547.274 692.834 543.521 683.828 541 675.416 541 667.005 541 658 543.521 658 547.274 658 547.318 658.003 547.362 658.009 547.406L658.054 547.744C658.054 547.745 658.054 547.745 658.054 547.746L658.054 547.746 661.727 575.032C661.852 578.336 669.955 579.539 675.416 579.539 678.304 579.539 681.202 579.236 683.575 578.688 684.533 578.467 685.393 578.208 686.131 577.916L685.396 576.056C684.751 576.311 683.987 576.54 683.125 576.739L683.125 576.739ZM666.724 563 669 559.016 671.276 563 666.724 563ZM673.865 564.502C674.044 564.194 674.045 563.813 673.868 563.504L669.868 556.504C669.513 555.881 668.487 555.881 668.132 556.504L664.132 563.504C663.955 563.813 663.956 564.194 664.135 564.502 664.314 564.81 664.643 565 665 565L673 565C673.356 565 673.685 564.81 673.865 564.502L673.865 564.502ZM679.194 567.197C679.194 568.57 680.311 569.687 681.684 569.687L681.684 571.687C679.209 571.687 677.194 569.672 677.194 567.197 677.194 564.721 679.209 562.707 681.684 562.707 682.965 562.707 684.188 563.256 685.041 564.215L683.547 565.544C683.073 565.012 682.394 564.707 681.684 564.707 680.311 564.707 679.194 565.824 679.194 567.197L679.194 567.197ZM669 573 673 573 673 569 669 569 669 573ZM668 575 674 575C674.553 575 675 574.552 675 574L675 568C675 567.448 674.553 567 674 567L668 567C667.447 567 667 567.448 667 568L667 574C667 574.552 667.447 575 668 575L668 575Z" fill="#7AA116" fill-rule="evenodd"/></g></svg>