<svg width="40" height="40" xmlns="http://www.w3.org/2000/svg" xmlns:xlink="http://www.w3.org/1999/xlink" xml:space="preserve" overflow="hidden"><defs><clipPath id="clip0"><rect x="850" y="275" width="40" height="40"/></clipPath></defs><g clip-path="url(#clip0)" transform="translate(-850 -275)"><path d="M850 275 890 275 890 315 850 315Z" fill="#7D8998" fill-rule="evenodd"/><path d="M862 309 878 309 878 281 862 281 862 309ZM863 308 877 308 877 282 863 282 863 308ZM865 286 875 286 875 285 865 285 865 286ZM865 290 875 290 875 289 865 289 865 290ZM865 294 875 294 875 293 865 293 865 294Z" fill="#FFFFFF" fill-rule="evenodd"/></g></svg>