<svg width="48" height="48" xmlns="http://www.w3.org/2000/svg" xmlns:xlink="http://www.w3.org/1999/xlink" xml:space="preserve" overflow="hidden"><defs><clipPath id="clip0"><rect x="640" y="426" width="48" height="48"/></clipPath></defs><g clip-path="url(#clip0)" transform="translate(-640 -426)"><path d="M683.964 455.98 683.964 452.451C682.235 453.392 679.615 453.879 677.006 453.879 674.398 453.879 671.776 453.392 670.048 452.451L670.048 455.98C670.048 456.608 672.415 458.082 677.006 458.082 681.597 458.082 683.964 456.608 683.964 455.98L683.964 455.98ZM683.964 462.073 683.964 458.651C682.235 459.594 679.615 460.082 677.006 460.082 674.398 460.082 671.776 459.594 670.048 458.651L670.048 462.073C670.048 462.702 672.415 464.173 677.006 464.173 681.597 464.173 683.964 462.702 683.964 462.073L683.964 462.073ZM683.964 467.513 683.964 464.745C682.235 465.686 679.615 466.173 677.006 466.173 674.398 466.173 671.776 465.686 670.048 464.745L670.048 467.513C670.048 468.141 672.415 469.613 677.006 469.613 681.597 469.613 683.964 468.141 683.964 467.513L683.964 467.513ZM670.048 449.78C670.048 450.408 672.415 451.879 677.006 451.879 681.597 451.879 683.964 450.408 683.964 449.78 683.964 449.151 681.597 447.678 677.006 447.678 672.415 447.678 670.048 449.151 670.048 449.78L670.048 449.78ZM685.964 449.78 685.964 467.513C685.964 470.206 681.457 471.613 677.006 471.613 672.555 471.613 668.048 470.206 668.048 467.513L668.048 449.78C668.048 447.086 672.555 445.678 677.006 445.678 681.457 445.678 685.964 447.086 685.964 449.78L685.964 449.78ZM644 466.104 644 433.75C644 431.682 645.683 430 647.75 430L680.104 430C682.171 430 683.854 431.682 683.854 433.75L683.854 446.439 685.854 446.439 685.854 433.75C685.854 430.579 683.275 428 680.104 428L647.75 428C644.579 428 642 430.579 642 433.75L642 466.104C642 469.275 644.579 471.854 647.75 471.854L667.414 471.854 667.414 469.854 647.75 469.854C645.683 469.854 644 468.171 644 466.104L644 466.104ZM681.353 436.181 681.222 435.605 680.246 435.605 680.246 440.06 681.44 440.06 681.44 436.809C681.69 436.668 681.954 436.599 682.234 436.599 682.379 436.599 682.533 436.615 682.695 436.642L682.695 435.587C682.603 435.57 682.509 435.561 682.417 435.561 682.225 435.561 682.042 435.612 681.872 435.71 681.7 435.809 681.527 435.966 681.353 436.181L681.353 436.181ZM678.414 437.184C678.414 436.87 678.373 436.645 678.292 436.508 678.211 436.371 678.083 436.302 677.908 436.302 677.49 436.302 677.269 436.664 677.246 437.384L678.414 437.384 678.414 437.184ZM679.338 438.134 677.246 438.134C677.264 438.552 677.351 438.849 677.507 439.023 677.664 439.198 677.919 439.285 678.275 439.285 678.408 439.285 678.572 439.263 678.768 439.219 678.962 439.176 679.156 439.12 679.347 439.048L679.347 439.842C679.185 439.948 678.984 440.03 678.745 440.086 678.507 440.145 678.269 440.173 678.03 440.173 676.787 440.173 676.164 439.396 676.164 437.837 676.164 437.077 676.317 436.496 676.622 436.094 676.928 435.693 677.367 435.491 677.943 435.491 678.931 435.491 679.426 436.096 679.426 437.306 679.426 437.608 679.396 437.884 679.338 438.134L679.338 438.134ZM673.278 435.605 672.015 435.605 673.358 440.06 674.482 440.06 675.817 435.605 674.587 435.605 673.924 438.78 673.278 435.605ZM670.262 436.181 670.132 435.605 669.154 435.605 669.154 440.06 670.35 440.06 670.35 436.809C670.599 436.668 670.864 436.599 671.144 436.599 671.288 436.599 671.443 436.615 671.605 436.642L671.605 435.587C671.512 435.57 671.419 435.561 671.325 435.561 671.134 435.561 670.952 435.612 670.78 435.71 670.61 435.809 670.437 435.966 670.262 436.181L670.262 436.181ZM666.155 437.384 667.323 437.384 667.323 437.184C667.323 436.87 667.282 436.645 667.201 436.508 667.12 436.371 666.993 436.302 666.818 436.302 666.4 436.302 666.179 436.664 666.155 437.384L666.155 437.384ZM668.257 439.842C668.094 439.948 667.894 440.03 667.655 440.086 667.417 440.145 667.179 440.173 666.941 440.173 665.696 440.173 665.073 439.396 665.073 437.837 665.073 437.077 665.227 436.496 665.531 436.094 665.837 435.693 666.277 435.491 666.854 435.491 667.841 435.491 668.335 436.096 668.335 437.306 668.335 437.608 668.306 437.884 668.248 438.134L666.155 438.134C666.173 438.552 666.261 438.849 666.417 439.023 666.574 439.198 666.829 439.285 667.184 439.285 667.318 439.285 667.482 439.263 667.678 439.219 667.872 439.176 668.065 439.12 668.257 439.048L668.257 439.842ZM662.354 439.215C662.161 439.215 661.931 439.188 661.661 439.132 661.39 439.078 661.148 439.009 660.932 438.927L660.932 439.842C661.117 439.948 661.348 440.031 661.621 440.095 661.895 440.159 662.167 440.191 662.441 440.191 663.068 440.191 663.562 440.03 663.919 439.708 664.277 439.384 664.454 438.948 664.454 438.395 664.454 438.112 664.413 437.868 664.328 437.668 664.244 437.466 664.113 437.285 663.936 437.122 663.759 436.96 663.519 436.797 663.217 436.634L662.745 436.38C662.49 436.242 662.317 436.115 662.227 435.997 662.137 435.88 662.092 435.733 662.092 435.552 662.092 435.337 662.161 435.168 662.301 435.047 662.441 434.924 662.632 434.865 662.877 434.865 663.237 434.865 663.652 434.952 664.123 435.125L664.123 434.202C663.67 433.992 663.214 433.888 662.754 433.888 662.388 433.888 662.065 433.96 661.781 434.102 661.501 434.245 661.277 434.448 661.116 434.711 660.952 434.977 660.87 435.285 660.87 435.641 660.87 436.023 660.964 436.349 661.15 436.616 661.336 436.884 661.644 437.134 662.074 437.366L662.545 437.62C662.783 437.747 662.953 437.875 663.056 437.999 663.157 438.125 663.208 438.276 663.208 438.457 663.208 438.701 663.136 438.888 662.99 439.018 662.845 439.15 662.632 439.215 662.354 439.215L662.354 439.215ZM655.361 434.018 655.361 440.06 658.64 440.06 658.64 439.092 656.581 439.092 656.581 434.018 655.361 434.018ZM653.076 437.035C653.076 436.302 652.981 435.759 652.788 435.405 652.597 435.049 652.303 434.874 651.907 434.874 651.513 434.874 651.22 435.049 651.027 435.405 650.835 435.759 650.739 436.302 650.739 437.035 650.739 437.75 650.838 438.292 651.035 438.658 651.234 439.023 651.525 439.207 651.907 439.207 652.292 439.207 652.582 439.023 652.779 438.658 652.977 438.292 653.076 437.75 653.076 437.035L653.076 437.035ZM652.788 440.043C652.969 440.189 653.17 440.302 653.39 440.383 653.61 440.465 653.882 440.522 654.201 440.557L654.201 441.552C653.742 441.482 653.3 441.328 652.876 441.09 652.451 440.852 652.088 440.552 651.786 440.191 651.053 440.163 650.486 439.874 650.085 439.324 649.685 438.775 649.485 438.012 649.485 437.035 649.485 436.035 649.695 435.26 650.12 434.711 650.545 434.163 651.141 433.888 651.907 433.888 652.676 433.888 653.271 434.163 653.695 434.711 654.12 435.26 654.332 436.035 654.332 437.035 654.332 437.815 654.2 438.461 653.935 438.979 653.67 439.497 653.289 439.85 652.788 440.043L652.788 440.043ZM647.278 439.018C647.424 438.888 647.496 438.701 647.496 438.457 647.496 438.276 647.444 438.125 647.344 437.999 647.241 437.875 647.071 437.747 646.833 437.62L646.362 437.366C645.932 437.134 645.623 436.884 645.438 436.616 645.252 436.349 645.158 436.023 645.158 435.641 645.158 435.285 645.24 434.977 645.403 434.711 645.566 434.448 645.789 434.245 646.069 434.102 646.353 433.96 646.676 433.888 647.042 433.888 647.502 433.888 647.958 433.992 648.411 434.202L648.411 435.125C647.941 434.952 647.525 434.865 647.165 434.865 646.92 434.865 646.729 434.924 646.589 435.047 646.449 435.168 646.38 435.337 646.38 435.552 646.38 435.733 646.425 435.88 646.515 435.997 646.605 436.115 646.778 436.242 647.033 436.38L647.505 436.634C647.807 436.797 648.047 436.96 648.224 437.122 648.401 437.285 648.532 437.466 648.616 437.668 648.701 437.868 648.742 438.112 648.742 438.395 648.742 438.948 648.565 439.384 648.207 439.708 647.85 440.03 647.357 440.191 646.729 440.191 646.455 440.191 646.182 440.159 645.908 440.095 645.636 440.031 645.405 439.948 645.22 439.842L645.22 438.927C645.436 439.009 645.678 439.078 645.948 439.132 646.219 439.188 646.449 439.215 646.642 439.215 646.92 439.215 647.132 439.15 647.278 439.018L647.278 439.018Z" fill="#C925D1" fill-rule="evenodd"/></g></svg>