<svg width="80" height="80" xmlns="http://www.w3.org/2000/svg" xmlns:xlink="http://www.w3.org/1999/xlink" xml:space="preserve" overflow="hidden"><g transform="translate(-314 -124)"><path d="M314 124 394 124 394 204 314 204Z" stroke="#8C4FFF" stroke-width="2" fill="none" fill-rule="evenodd"/><path d="M357.23 188.784C358.303 187.866 359 186.519 359 185 359 182.585 357.279 180.566 355 180.101L355 171.93C358.611 171.477 361.476 168.611 361.93 165L370.101 165C370.565 167.279 372.585 169 375 169 376.519 169 377.866 168.304 378.784 167.23 377.331 178.435 368.435 187.331 357.23 188.784M329.215 167.23C330.133 168.304 331.48 169 333 169 335.414 169 337.434 167.279 337.898 165L346.069 165C346.523 168.611 349.388 171.477 353 171.93L353 180.101C350.72 180.566 349 182.585 349 185 349 186.519 349.696 187.866 350.769 188.784 339.564 187.331 330.668 178.435 329.215 167.23M336 164C336 165.654 334.654 167 333 167 331.345 167 330 165.654 330 164 330 162.346 331.345 161 333 161 334.654 161 336 162.346 336 164M350.769 139.216C349.696 140.134 349 141.48 349 143 349 145.414 350.72 147.434 353 147.899L353 156.069C349.388 156.523 346.523 159.388 346.069 163L337.898 163C337.434 160.721 335.414 159 333 159 331.48 159 330.133 159.696 329.215 160.769 330.668 149.564 339.564 140.669 350.769 139.216M354 140C355.654 140 357 141.346 357 143 357 144.654 355.654 146 354 146 352.345 146 351 144.654 351 143 351 141.346 352.345 140 354 140M354 170C350.691 170 348 167.308 348 164 348 160.691 350.691 158 354 158 357.308 158 360 160.691 360 164 360 167.308 357.308 170 354 170M354 188C352.345 188 351 186.654 351 185 351 183.346 352.345 182 354 182 355.654 182 357 183.346 357 185 357 186.654 355.654 188 354 188M378 164C378 165.654 376.654 167 375 167 373.345 167 372 165.654 372 164 372 162.346 373.345 161 375 161 376.654 161 378 162.346 378 164M378.784 160.769C377.866 159.696 376.519 159 375 159 372.585 159 370.565 160.721 370.101 163L361.93 163C361.476 159.388 358.611 156.523 355 156.069L355 147.899C357.279 147.434 359 145.414 359 143 359 141.48 358.303 140.134 357.23 139.216 368.435 140.669 377.331 149.564 378.784 160.769M354 137C339.112 137 327 149.112 327 164 327 178.888 339.112 191 354 191 368.887 191 381 178.888 381 164 381 149.112 368.887 137 354 137" stroke="#8C4FFF" stroke-width="2" fill="none" fill-rule="evenodd"/></g></svg>