<svg width="48" height="48" xmlns="http://www.w3.org/2000/svg" xmlns:xlink="http://www.w3.org/1999/xlink" xml:space="preserve" overflow="hidden"><g transform="translate(-790 -294)"><path d="M832.207 318.708 827.832 323.083 826.418 321.669 829.086 319.001 797.375 319.001 797.375 317.001 829.086 317.001 826.418 314.332 827.832 312.918 832.207 317.294C832.598 317.685 832.598 318.317 832.207 318.708L832.207 318.708ZM807 327.751 820.125 327.751 820.125 325.751 807 325.751 807 327.751ZM807 323.376 820.125 323.376 820.125 321.376 807 321.376 807 323.376ZM807 314.625 820.125 314.625 820.125 312.625 807 312.625 807 314.625ZM807 310.25 820.125 310.25 820.125 308.25 807 308.25 807 310.25ZM821.75 320.626 823.75 320.626 823.75 331.126C823.75 331.679 823.303 332.126 822.75 332.126L804.375 332.126C803.822 332.126 803.375 331.679 803.375 331.126L803.375 320.626 805.375 320.626 805.375 330.126 821.75 330.126 821.75 320.626ZM805.375 315.375 803.375 315.375 803.375 304.875C803.375 304.322 803.822 303.875 804.375 303.875L822.75 303.875C823.303 303.875 823.75 304.322 823.75 304.875L823.75 315.375 821.75 315.375 821.75 305.875 805.375 305.875 805.375 315.375ZM814 338.001C802.972 338.001 794 329.029 794 318.001 794 306.973 802.972 298 814 298 825.028 298 834 306.973 834 318.001 834 329.029 825.028 338.001 814 338.001L814 338.001ZM814 296C801.869 296 792 305.869 792 318.001 792 330.132 801.869 340.001 814 340.001 826.131 340.001 836 330.132 836 318.001 836 305.869 826.131 296 814 296L814 296Z" fill="#8C4FFF" fill-rule="evenodd"/></g></svg>