<svg width="48" height="48" xmlns="http://www.w3.org/2000/svg" xmlns:xlink="http://www.w3.org/1999/xlink" xml:space="preserve" overflow="hidden"><g transform="translate(-955 -294)"><path d="M975.62 321.602 977.034 323.016 981.397 318.651C981.788 318.26 981.788 317.628 981.397 317.237L977.034 312.874 975.62 314.289 978.276 316.944 961.491 316.944 961.491 318.944 978.277 318.944 975.62 321.602ZM998.89 317.944C998.89 306.948 989.942 298 978.945 298 967.947 298 959 306.948 959 317.944 959 328.943 967.947 337.889 978.945 337.889 989.942 337.889 998.89 328.943 998.89 317.944L998.89 317.944ZM1000.89 317.944C1000.89 330.044 991.046 339.889 978.945 339.889 966.845 339.889 957 330.044 957 317.944 957 305.844 966.845 296 978.945 296 991.046 296 1000.89 305.844 1000.89 317.944L1000.89 317.944ZM970.963 320.562 970.963 321.017C970.963 321.077 970.968 321.135 970.978 321.194 971.042 321.543 972.597 329.758 978.945 329.758 985.293 329.758 986.848 321.543 986.911 321.194 986.922 321.135 986.927 321.077 986.927 321.017L986.927 310.466C986.927 310.057 986.679 309.69 986.3 309.539L979.318 306.728C979.08 306.632 978.81 306.632 978.572 306.728L971.59 309.539C971.211 309.69 970.963 310.057 970.963 310.466L970.963 315.327 972.963 315.327 972.963 311.142 978.945 308.733 984.927 311.142 984.927 320.918C984.765 321.69 983.347 327.758 978.945 327.758 974.543 327.758 973.125 321.69 972.963 320.918L972.963 320.562 970.963 320.562ZM990.417 307.324 990.417 320.676C990.417 325.207 988.019 333.78 978.945 333.78 974.223 333.78 970.734 331.337 968.854 326.716 967.855 324.267 967.577 321.849 967.501 320.625L969.497 320.5C969.553 321.387 969.781 323.694 970.707 325.961 972.277 329.823 975.049 331.78 978.945 331.78 988.28 331.78 988.416 321.128 988.417 320.674L988.417 308 978.945 304.186 969.473 308 969.473 315.327 967.473 315.327 967.473 307.324C967.473 306.915 967.721 306.548 968.099 306.396L978.572 302.181C978.81 302.085 979.08 302.085 979.318 302.181L989.79 306.396C990.169 306.548 990.417 306.915 990.417 307.324L990.417 307.324Z" fill="#8C4FFF" fill-rule="evenodd"/></g></svg>