<svg width="40" height="40" xmlns="http://www.w3.org/2000/svg" xmlns:xlink="http://www.w3.org/1999/xlink" xml:space="preserve" overflow="hidden"><defs><clipPath id="clip0"><rect x="240" y="275" width="40" height="40"/></clipPath></defs><g clip-path="url(#clip0)" transform="translate(-240 -275)"><path d="M240 275 280 275 280 315 240 315Z" fill="#8C4FFF" fill-rule="evenodd"/><path d="M270.971 296.029 268.027 294.766 268.027 305.255C270.572 304.903 270.959 302.287 270.975 302.168L270.971 296.029ZM267.027 305.269 267.027 294.759 263.992 296.032 263.992 302.233C264.005 302.287 264.437 305 267.027 305.269L267.027 305.269ZM267.333 293.547C267.457 293.494 267.599 293.495 267.724 293.548L271.668 295.24C271.852 295.319 271.971 295.499 271.971 295.699L271.971 302.233C271.788 303.68 270.614 306.296 267.444 306.296 264.369 306.296 263.19 303.684 262.996 302.302L262.992 295.699C262.992 295.498 263.113 295.316 263.298 295.238L267.333 293.547ZM272.983 294.184 267.522 291.778 261.992 294.105 261.992 301.233C261.991 301.275 261.938 304.101 263.649 305.856 264.566 306.797 265.843 307.275 267.444 307.275 269.046 307.275 270.331 306.796 271.263 305.853 272.998 304.095 272.983 301.268 272.983 301.24L272.983 294.184ZM271.98 306.55C270.853 307.694 269.326 308.275 267.444 308.275 265.56 308.275 264.04 307.694 262.927 306.548 260.922 304.485 260.988 301.351 260.992 301.219L260.992 293.773C260.992 293.572 261.112 293.39 261.297 293.312L267.332 290.772C267.459 290.72 267.603 290.719 267.728 290.776L273.684 293.401C273.866 293.481 273.983 293.66 273.983 293.858L273.983 301.233C273.985 301.358 274.01 304.488 271.98 306.55L271.98 306.55ZM250.992 299.236 258.992 299.236 258.992 300.236 250.992 300.236C248.181 300.236 246.181 298.22 246.013 295.22 246.001 295.109 246 294.975 246 294.841 246 292.332 247.318 290.618 249.817 289.862 249.798 289.635 249.785 289.396 249.785 289.215 249.785 286.299 251.362 283.77 253.802 282.77 257.1 281.422 260.844 281.876 262.908 283.874 263.653 284.598 264.232 285.416 264.668 286.359 265.277 285.909 266.068 285.698 267.017 285.745 268.797 285.835 270.166 287.458 270.45 289.752 271.948 289.876 272.935 290.635 273.46 292.06L272.523 292.406C272.095 291.249 271.315 290.733 269.992 290.733 269.727 290.733 269.508 290.527 269.492 290.263 269.354 287.925 268.086 286.8 266.966 286.744 266.021 286.691 265.321 286.963 264.887 287.535 264.776 287.68 264.602 287.752 264.414 287.728 264.234 287.7 264.082 287.577 264.019 287.405 263.615 286.302 263.024 285.382 262.212 284.591 260.424 282.861 257.122 282.492 254.181 283.696 252.118 284.541 250.785 286.707 250.785 289.215 250.785 289.488 250.82 289.911 250.851 290.174 250.881 290.425 250.72 290.658 250.475 290.718 248.169 291.29 247 292.677 247 294.841 247 294.942 246.999 295.042 247.009 295.143 247.15 297.638 248.712 299.236 250.992 299.236L250.992 299.236Z" fill="#FFFFFF" fill-rule="evenodd"/></g></svg>