<svg width="48" height="48" xmlns="http://www.w3.org/2000/svg" xmlns:xlink="http://www.w3.org/1999/xlink" xml:space="preserve" overflow="hidden"><g transform="translate(-291 -525)"><path d="M321.605 550.637C321.605 550.254 321.605 549.236 319.935 548.894 319.492 548.803 319.164 548.425 319.138 547.972 319.099 547.315 318.829 546.907 318.431 546.907 318.249 546.907 318.073 547.001 317.948 547.165 317.729 547.459 317.368 547.608 317.001 547.555 316.638 547.5 316.333 547.252 316.208 546.907 316.013 546.366 315.727 545.901 315.382 545.561 315.065 545.247 314.341 544.669 313.316 544.669 312.957 544.669 312.559 544.741 312.129 544.919 311.208 545.304 310.46 546.457 310.46 547.49 310.46 547.612 310.466 547.729 310.48 547.846 310.54 548.346 310.219 548.811 309.732 548.934 308.846 549.157 308.397 549.721 308.397 550.612L308.402 550.758C308.448 551.586 309.418 552.347 310.439 552.347L319.828 552.347C321.605 552.347 321.605 551.06 321.605 550.637L321.605 550.637ZM323.605 550.637C323.605 553.318 321.676 554.305 319.977 554.346 319.96 554.347 319.943 554.347 319.924 554.347L310.439 554.347C308.355 554.347 306.509 552.75 306.405 550.86 306.401 550.774 306.397 550.697 306.397 550.612 306.397 549.077 307.156 547.874 308.465 547.268 308.56 545.511 309.772 543.736 311.358 543.074 313.28 542.277 315.306 542.672 316.789 544.139 317.066 544.413 317.315 544.724 317.531 545.07 318.78 544.6 320.556 545.158 321.029 547.121 322.676 547.683 323.605 548.935 323.605 550.637L323.605 550.637ZM335.001 549.001C335.001 537.973 326.03 529 315.001 529 303.973 529 295 537.973 295 549.001 295 560.03 303.973 569.002 315.001 569.002 326.03 569.002 335.001 560.03 335.001 549.001L335.001 549.001ZM337.001 549.001C337.001 561.133 327.133 571.002 315.001 571.002 302.87 571.002 293 561.133 293 549.001 293 536.869 302.87 527 315.001 527 327.133 527 337.001 536.869 337.001 549.001L337.001 549.001ZM302.673 545.364 301.259 543.95 296.914 548.294C296.727 548.482 296.621 548.736 296.621 549.001 296.621 549.267 296.727 549.521 296.914 549.708L301.259 554.054 302.673 552.64 300.035 550.001 304.991 550.001 304.991 548.001 300.035 548.001 302.673 545.364ZM333.089 548.294 328.743 543.95 327.329 545.364 329.967 548.001 324.986 548.001 324.986 550.001 329.967 550.001 327.329 552.64 328.743 554.054 333.089 549.708C333.276 549.521 333.382 549.267 333.382 549.001 333.382 548.736 333.276 548.482 333.089 548.294L333.089 548.294ZM316.001 563.968 316.001 555.976 314.001 555.976 314.001 563.968 311.363 561.329 309.949 562.743 314.293 567.089C314.482 567.277 314.736 567.382 315.001 567.382 315.267 567.382 315.521 567.277 315.708 567.089L320.053 562.743 318.639 561.329 316.001 563.968ZM311.363 536.673 309.949 535.259 314.293 530.914C314.685 530.524 315.318 530.524 315.708 530.914L320.053 535.259 318.639 536.673 316.001 534.035 316.001 541.275 314.001 541.275 314.001 534.035 311.363 536.673Z" fill="#8C4FFF" fill-rule="evenodd"/></g></svg>