<svg width="48" height="48" xmlns="http://www.w3.org/2000/svg" xmlns:xlink="http://www.w3.org/1999/xlink" xml:space="preserve" overflow="hidden"><g transform="translate(-623 -294)"><path d="M647.002 319.439C647.656 319.439 648.188 319.97 648.188 320.625 648.188 321.281 647.656 321.814 647.002 321.814 646.346 321.814 645.813 321.281 645.813 320.625 645.813 319.97 646.346 319.439 647.002 319.439L647.002 319.439ZM646.002 323.637 646.002 326.691 648.002 326.691 648.002 323.637C649.268 323.215 650.19 322.033 650.19 320.625 650.19 318.868 648.76 317.439 647.002 317.439 645.244 317.439 643.813 318.868 643.813 320.625 643.813 322.033 644.734 323.215 646.002 323.637L646.002 323.637ZM647.002 338.001C635.972 338.001 627 329.03 627 318.001 627 306.973 635.972 298 647.002 298 658.029 298 667.003 306.973 667.003 318.001 667.003 329.03 658.029 338.001 647.002 338.001L647.002 338.001ZM647.002 296C634.87 296 625 305.87 625 318.001 625 330.133 634.87 340.001 647.002 340.001 659.133 340.001 669.003 330.133 669.003 318.001 669.003 305.87 659.133 296 647.002 296L647.002 296ZM655.62 328.376 638.375 328.37 638.38 315.5 655.627 315.508 655.62 328.376ZM642.755 310.096C642.758 308.918 643.208 307.814 644.02 306.984 644.82 306.168 645.881 305.716 647.008 305.716L647.023 305.716C648.148 305.72 649.205 306.18 649.998 307.009 650.799 307.848 651.239 308.961 651.234 310.148L651.234 313.505 642.739 313.503 642.755 310.096ZM656.627 313.508 653.234 313.507 653.234 310.151C653.24 308.448 652.604 306.841 651.443 305.628 650.271 304.401 648.703 303.721 647.028 303.716L647.008 303.716C645.339 303.716 643.773 304.379 642.591 305.585 641.412 306.788 640.76 308.388 640.755 310.089L640.739 313.501 637.38 313.501C637.115 313.501 636.86 313.607 636.674 313.793 636.485 313.982 636.38 314.236 636.38 314.501L636.375 329.37C636.375 329.921 636.823 330.37 637.375 330.37L656.62 330.376C657.172 330.376 657.62 329.93 657.62 329.376L657.627 314.508C657.627 314.243 657.521 313.988 657.333 313.801 657.146 313.613 656.893 313.508 656.627 313.508L656.627 313.508Z" fill="#8C4FFF" fill-rule="evenodd"/></g></svg>