<svg width="48" height="48" xmlns="http://www.w3.org/2000/svg" xmlns:xlink="http://www.w3.org/1999/xlink" xml:space="preserve" overflow="hidden"><g transform="translate(-1123 -412)"><path d="M1166.59 427.204C1166.6 427.472 1166.49 427.728 1166.3 427.919L1161.94 432.336 1160.51 430.93 1163.13 428.282 1130.48 428.282 1133.13 430.894 1131.72 432.318 1127.3 427.954C1127.11 427.766 1127 427.51 1127 427.242 1127 426.975 1127.11 426.718 1127.3 426.53L1131.72 422.166 1133.13 423.59 1130.4 426.282 1163.18 426.282 1160.42 423.626 1161.81 422.184 1166.29 426.495C1166.48 426.681 1166.59 426.936 1166.59 427.204L1166.59 427.204ZM1139.48 424.585 1137.48 424.585 1137.48 424.2C1137.49 418.574 1141.87 414 1147.23 414 1152.62 414.019 1156.97 418.636 1156.95 424.292L1156.95 424.585 1154.95 424.585 1154.95 424.288C1154.96 419.731 1151.52 416.016 1147.26 416 1142.97 416 1139.49 419.68 1139.48 424.204L1139.48 424.585ZM1145.8 440.816C1146.16 440.452 1146.65 440.252 1147.16 440.252L1147.17 440.252C1147.68 440.252 1148.17 440.453 1148.53 440.818 1148.9 441.183 1149.1 441.667 1149.1 442.183L1149.1 442.183C1149.1 442.7 1148.9 443.185 1148.53 443.551 1148.17 443.914 1147.68 444.114 1147.17 444.114L1147.16 444.114C1146.1 444.114 1145.23 443.248 1145.23 442.183 1145.24 441.667 1145.44 441.181 1145.8 440.816L1145.8 440.816ZM1146.17 445.97 1146.17 451.122 1148.17 451.122 1148.17 445.971C1148.83 445.796 1149.44 445.464 1149.94 444.966 1150.69 444.224 1151.1 443.236 1151.1 442.184 1151.1 441.135 1150.69 440.147 1149.95 439.405 1149.2 438.661 1148.22 438.252 1147.17 438.252L1147.16 438.252C1146.11 438.252 1145.13 438.66 1144.39 439.402 1143.64 440.143 1143.24 441.131 1143.23 442.183 1143.23 444.003 1144.48 445.524 1146.17 445.97L1146.17 445.97ZM1160.16 456.019 1134.16 456.008 1134.17 436.134 1160.17 436.144 1160.16 456.019ZM1161.17 434.144 1156.95 434.142 1156.95 429.882 1154.95 429.882 1154.95 434.141 1139.48 434.136 1139.48 429.882 1137.48 429.882 1137.48 434.136 1133.17 434.134C1132.9 434.134 1132.65 434.239 1132.46 434.427 1132.27 434.614 1132.17 434.868 1132.17 435.134L1132.16 457.008C1132.16 457.559 1132.61 458.008 1133.16 458.008L1161.16 458.019C1161.71 458.019 1162.16 457.572 1162.16 457.019L1162.17 435.144C1162.17 434.88 1162.07 434.625 1161.88 434.437 1161.69 434.25 1161.44 434.144 1161.17 434.144L1161.17 434.144Z" fill="#8C4FFF" fill-rule="evenodd"/></g></svg>