<svg width="80" height="80" xmlns="http://www.w3.org/2000/svg" xmlns:xlink="http://www.w3.org/1999/xlink" xml:space="preserve" overflow="hidden"><defs><clipPath id="clip0"><rect x="1031" y="124" width="80" height="80"/></clipPath></defs><g clip-path="url(#clip0)" transform="translate(-1031 -124)"><path d="M1031 124 1111 124 1111 204 1031 204Z" fill="#ED7100" fill-rule="evenodd"/><path d="M1071 184.386C1069.41 184.386 1067.85 184.222 1066.35 183.91L1070.5 166.809 1072.48 175.347C1072.48 175.348 1072.48 175.35 1072.47 175.351L1072.48 175.364 1074.52 184.115C1073.37 184.294 1072.19 184.386 1071 184.386L1071 184.386ZM1056.47 163.097 1062.51 163.097C1062.75 168.028 1064.05 172.437 1066.06 175.15 1060.84 173.343 1057.1 168.66 1056.47 163.097L1056.47 163.097ZM1066.06 147.737C1065.05 149.104 1064.21 150.918 1063.59 153.039 1062.28 152.73 1061.06 152.337 1059.97 151.862 1061.6 150.001 1063.69 148.565 1066.06 147.737L1066.06 147.737ZM1081.47 151.782C1080.4 152.263 1079.19 152.657 1077.9 152.975 1077.29 150.883 1076.45 149.09 1075.45 147.737 1077.79 148.553 1079.85 149.959 1081.47 151.782L1081.47 151.782ZM1075.44 175.162C1077.43 172.462 1078.76 168.047 1079 163.097L1085.05 163.097C1084.4 168.633 1080.61 173.355 1075.44 175.162L1075.44 175.162ZM1077 163.097C1076.78 167.36 1075.7 171.205 1074.12 173.57L1071.69 163.097 1077 163.097ZM1079.04 161.081C1079.02 158.89 1078.8 156.811 1078.4 154.924 1079.99 154.532 1081.45 154.021 1082.73 153.401 1084.19 155.611 1085.06 158.247 1085.13 161.081L1079.04 161.081ZM1070.76 146.929C1072.71 146.929 1074.75 149.352 1075.96 153.383 1074.27 153.67 1072.47 153.826 1070.62 153.826 1068.87 153.826 1067.15 153.69 1065.54 153.431 1066.75 149.371 1068.79 146.929 1070.76 146.929L1070.76 146.929ZM1065.05 155.388C1066.82 155.684 1068.7 155.842 1070.62 155.842 1072.64 155.842 1074.6 155.663 1076.45 155.338 1076.81 157.05 1077.02 158.98 1077.04 161.081L1064.47 161.081C1064.49 159.001 1064.7 157.087 1065.05 155.388L1065.05 155.388ZM1056.38 161.081C1056.45 158.291 1057.3 155.694 1058.72 153.506 1060.02 154.114 1061.5 154.611 1063.1 154.99 1062.71 156.859 1062.5 158.914 1062.47 161.081L1056.38 161.081ZM1066.97 172.877C1065.61 170.471 1064.71 166.943 1064.51 163.097L1069.34 163.097 1066.97 172.877ZM1096 161.201C1096 158.145 1095.46 155.157 1094.4 152.32L1092.53 153.031C1093.51 155.639 1094 158.388 1094 161.201 1094 172.083 1086.52 181.234 1076.48 183.717L1075.01 177.391C1082.04 175.478 1087.15 168.93 1087.15 161.44 1087.15 152.327 1079.8 144.913 1070.76 144.913 1061.72 144.913 1054.36 152.327 1054.36 161.44 1054.36 168.771 1059.12 175.113 1065.92 177.221L1064.41 183.413C1054.93 180.551 1048 171.679 1048 161.201 1048 148.417 1058.32 138.016 1071 138.016 1076.56 138.016 1081.81 139.99 1085.97 143.603L1081.29 143.603 1081.29 145.619 1089.14 145.619 1089.14 137.7 1087.14 137.7 1087.14 141.961C1082.64 138.103 1076.99 136 1071 136 1057.21 136 1046 147.305 1046 161.201 1046 172.625 1053.58 182.292 1063.94 185.372L1062.45 191.521 1064.39 192 1065.88 185.869C1067.53 186.217 1069.24 186.402 1071 186.402 1072.35 186.402 1073.68 186.29 1074.97 186.081L1076.34 191.99 1078.29 191.531 1076.93 185.68C1087.86 182.988 1096 173.038 1096 161.201L1096 161.201Z" fill="#FFFFFF" fill-rule="evenodd"/></g></svg>