<svg width="48" height="48" xmlns="http://www.w3.org/2000/svg" xmlns:xlink="http://www.w3.org/1999/xlink" xml:space="preserve" overflow="hidden"><defs><clipPath id="clip0"><rect x="1022" y="391" width="48" height="48"/></clipPath></defs><g clip-path="url(#clip0)" transform="translate(-1022 -391)"><path d="M1037.71 428.707C1037.52 428.902 1037.26 429 1037.01 429 1036.75 429 1036.49 428.902 1036.3 428.707L1033.3 425.707 1034.71 424.293 1036.01 425.586 1036.01 416.414 1034.71 417.707 1033.3 416.293 1036.3 413.293C1036.69 412.902 1037.32 412.902 1037.71 413.293L1040.71 416.293 1039.3 417.707 1038.01 416.414 1038.01 425.586 1039.3 424.293 1040.71 425.707 1037.71 428.707ZM1030.01 420.414 1030.01 429.586 1031.3 428.293 1032.71 429.707 1029.71 432.707C1029.52 432.902 1029.26 433 1029.01 433 1028.75 433 1028.49 432.902 1028.3 432.707L1025.3 429.707 1026.71 428.293 1028.01 429.586 1028.01 420.414 1026.71 421.707 1025.3 420.293 1028.3 417.293C1028.69 416.902 1029.32 416.902 1029.71 417.293L1032.71 420.293 1031.3 421.707 1030.01 420.414ZM1045.6 431C1048.74 431 1051.52 430.665 1053.79 430.134L1053.4 432.033C1053.38 432.11 1053.38 432.187 1053.37 432.264 1050.96 432.749 1048.28 433 1045.6 433 1042.41 433 1039.59 432.681 1037.24 432.111L1038.94 430.411C1040.83 430.778 1043.07 431 1045.6 431L1045.6 431ZM1045.6 395C1054.09 395 1060.01 397.442 1060.01 399.635 1060.01 401.827 1054.09 404.27 1045.6 404.27 1037.2 404.27 1032.01 401.864 1032.01 399.635 1032.01 397.406 1037.2 395 1045.6 395L1045.6 395ZM1032.01 403.126C1034.56 405.085 1039.4 406.27 1045.6 406.27 1051.32 406.27 1057.07 405.145 1060.01 402.974L1060.01 408.5 1062.01 408.5 1062.01 399.635C1062.01 395.279 1053.75 393 1045.6 393 1036.27 393 1030.01 395.666 1030.01 399.635L1030.01 414.193 1032.01 414.193 1032.01 403.126ZM1057.25 431.265 1059.32 421.202C1059.39 420.907 1059.31 420.601 1059.12 420.368 1058.93 420.135 1058.65 420 1058.34 420L1054.88 420 1058.88 412 1064.49 412 1060.6 418.485C1060.41 418.794 1060.41 419.179 1060.59 419.493 1060.77 419.806 1061.1 420 1061.46 420L1064.87 420 1057.25 431.265ZM1067.64 418.531C1067.47 418.204 1067.13 418 1066.76 418L1063.22 418 1067.11 411.515C1067.3 411.206 1067.31 410.821 1067.13 410.507 1066.95 410.194 1066.62 410 1066.26 410L1058.26 410C1057.88 410 1057.53 410.214 1057.36 410.553L1052.36 420.553C1052.21 420.863 1052.22 421.231 1052.41 421.526 1052.59 421.821 1052.91 422 1053.26 422L1057.12 422 1054.28 435.798C1054.18 436.266 1054.43 436.736 1054.87 436.921 1054.99 436.975 1055.13 437 1055.26 437 1055.58 437 1055.9 436.842 1056.08 436.561L1067.58 419.561C1067.79 419.254 1067.81 418.858 1067.64 418.531L1067.64 418.531Z" fill="#00B0F0" fill-rule="evenodd"/></g></svg>