<svg width="48" height="48" xmlns="http://www.w3.org/2000/svg" xmlns:xlink="http://www.w3.org/1999/xlink" xml:space="preserve" overflow="hidden"><defs><clipPath id="clip0"><rect x="378" y="300" width="48" height="48"/></clipPath></defs><g clip-path="url(#clip0)" transform="translate(-378 -300)"><path d="M396.059 338 397.942 338.673 407.942 310.673 406.059 310 396.059 338ZM423.632 323.539 412.632 314.562 411.369 316.111 421.421 324.316 411.367 332.563 412.634 334.109 423.634 325.087C423.867 324.897 424 324.613 424 324.313 424 324.013 423.865 323.729 423.632 323.539L423.632 323.539ZM382.58 324.316 392.634 332.563 391.367 334.109 380.367 325.087C380.134 324.897 380 324.613 380 324.313 380 324.013 380.136 323.729 380.369 323.539L391.369 314.562 392.632 316.111 382.58 324.316Z" fill="#FFFFFF" fill-rule="evenodd"/></g></svg>