<svg width="48" height="48" xmlns="http://www.w3.org/2000/svg" xmlns:xlink="http://www.w3.org/1999/xlink" xml:space="preserve" overflow="hidden"><defs><clipPath id="clip0"><rect x="486" y="528" width="48" height="48"/></clipPath></defs><g clip-path="url(#clip0)" transform="translate(-486 -528)"><path d="M518.438 562.203 511.12 554.884 512.957 553.047 520.275 560.366 518.438 562.203ZM499.922 542.201 500.273 541.85 503.117 543.924 501.996 545.045 499.922 542.201ZM513.664 550.926C513.289 550.551 512.625 550.551 512.25 550.926L511.331 551.845 504.677 545.191 505.357 544.512C505.564 544.305 505.669 544.018 505.647 543.727 505.625 543.435 505.475 543.169 505.239 542.997L500.759 539.73C500.362 539.441 499.812 539.483 499.463 539.831L497.903 541.391C497.554 541.74 497.511 542.29 497.802 542.687L501.069 547.167C501.241 547.403 501.507 547.553 501.799 547.575 501.825 547.577 501.851 547.578 501.876 547.578 502.141 547.578 502.395 547.474 502.584 547.285L503.263 546.605 509.917 553.259 508.999 554.177C508.608 554.567 508.608 555.2 508.999 555.591L517.731 564.324C517.918 564.512 518.172 564.617 518.438 564.617 518.704 564.617 518.958 564.512 519.145 564.324L522.396 561.073C522.787 560.682 522.787 560.05 522.396 559.659L513.664 550.926ZM513.176 545.271C512.874 543.72 513.359 542.077 514.492 540.944 515.939 539.494 518.154 539.125 520 540.022 520.29 540.164 520.495 540.437 520.548 540.756 520.602 541.075 520.498 541.4 520.269 541.629L518.786 543.112 519.115 543.442 520.596 541.961C520.825 541.732 521.149 541.629 521.467 541.682 521.786 541.734 522.059 541.937 522.201 542.227 523.105 544.069 522.738 546.282 521.286 547.733 520.133 548.886 518.517 549.364 516.953 549.05L515.25 550.754 513.836 549.34 515.946 547.228C516.214 546.959 516.613 546.867 516.976 546.989 518.001 547.34 519.109 547.081 519.872 546.319 520.315 545.876 520.584 545.311 520.666 544.72L519.821 545.564C519.633 545.752 519.379 545.857 519.114 545.857L519.113 545.857C518.847 545.857 518.593 545.752 518.406 545.563L516.665 543.817C516.275 543.427 516.275 542.794 516.666 542.404L517.505 541.564C516.913 541.646 516.348 541.916 515.906 542.358 515.155 543.109 514.892 544.244 515.236 545.248 515.359 545.609 515.266 546.01 514.997 546.279L511.261 550.015 509.847 548.6 513.176 545.271ZM508.828 557.18 507.124 558.885C507.425 560.438 506.938 562.082 505.8 563.213 504.884 564.134 503.658 564.619 502.414 564.619 501.696 564.619 500.971 564.458 500.296 564.126 500.007 563.983 499.804 563.71 499.751 563.391 499.699 563.073 499.802 562.749 500.031 562.521L501.512 561.04 501.185 560.713 499.704 562.194C499.475 562.423 499.147 562.524 498.834 562.474 498.515 562.421 498.242 562.218 498.099 561.929 497.193 560.088 497.561 557.875 499.014 556.423 500.147 555.285 501.79 554.799 503.341 555.105L506.674 551.773 508.088 553.187 504.348 556.927C504.078 557.197 503.675 557.29 503.315 557.165 502.312 556.817 501.179 557.08 500.43 557.835 499.985 558.279 499.714 558.845 499.633 559.436L500.478 558.592C500.869 558.201 501.501 558.201 501.892 558.592L503.633 560.333C504.024 560.724 504.024 561.356 503.633 561.747L502.787 562.594C503.379 562.514 503.944 562.243 504.386 561.799 505.143 561.046 505.408 559.913 505.064 558.907 504.941 558.547 505.034 558.146 505.303 557.877L507.414 555.766 508.828 557.18ZM527.243 562.008 510.095 571.846 493.003 561.915 493.057 542.146 510.204 532.308 527.295 542.24 527.243 562.008ZM510.209 530 491.061 540.986 491 563.063 510.089 574.154 529.239 563.168 529.299 541.092 510.209 530Z" fill="#00B0F0" fill-rule="evenodd"/></g></svg>