<svg width="48" height="48" xmlns="http://www.w3.org/2000/svg" xmlns:xlink="http://www.w3.org/1999/xlink" xml:space="preserve" overflow="hidden"><defs><clipPath id="clip0"><rect x="1137" y="295" width="48" height="48"/></clipPath></defs><g clip-path="url(#clip0)" transform="translate(-1137 -295)"><path d="M1173.87 328C1173.87 325.962 1172.21 324.304 1170.17 324.304 1168.13 324.304 1166.48 325.962 1166.48 328 1166.48 330.038 1168.13 331.696 1170.17 331.696 1172.21 331.696 1173.87 330.038 1173.87 328L1173.87 328ZM1175.87 328C1175.87 331.141 1173.31 333.696 1170.17 333.696 1167.03 333.696 1164.48 331.141 1164.48 328 1164.48 324.859 1167.03 322.304 1170.17 322.304 1173.31 322.304 1175.87 324.859 1175.87 328L1175.87 328ZM1181.17 326.673 1180.24 326.727C1179.78 326.75 1179.31 326.426 1179.2 325.949 1178.97 324.925 1178.57 323.954 1178.01 323.065 1177.75 322.651 1177.82 322.11 1178.19 321.785L1178.89 321.16 1177.01 319.284 1176.38 319.988C1176.06 320.353 1175.52 320.428 1175.1 320.167 1174.22 319.606 1173.25 319.205 1172.22 318.973 1171.75 318.865 1171.42 318.429 1171.44 317.941L1171.5 317 1168.85 317 1168.9 317.939C1168.93 318.428 1168.6 318.864 1168.12 318.972 1167.1 319.204 1166.13 319.605 1165.24 320.166 1164.82 320.426 1164.28 320.351 1163.96 319.986L1163.33 319.284 1161.46 321.16 1162.16 321.786C1162.52 322.112 1162.6 322.654 1162.34 323.067 1161.78 323.957 1161.37 324.926 1161.14 325.95 1161.03 326.426 1160.56 326.75 1160.11 326.727L1159.17 326.673 1159.17 329.326 1160.1 329.273C1160.57 329.255 1161.03 329.575 1161.14 330.053 1161.37 331.076 1161.77 332.047 1162.33 332.94 1162.59 333.354 1162.52 333.895 1162.15 334.22L1161.46 334.84 1163.33 336.716 1163.95 336.02C1164.28 335.653 1164.82 335.579 1165.23 335.84 1166.13 336.404 1167.1 336.807 1168.12 337.038 1168.6 337.146 1168.93 337.583 1168.9 338.071L1168.85 339 1171.5 339 1171.44 338.072C1171.42 337.583 1171.75 337.147 1172.22 337.04 1173.25 336.807 1174.22 336.404 1175.11 335.842 1175.53 335.582 1176.07 335.656 1176.39 336.022L1177.01 336.716 1178.89 334.84 1178.19 334.218C1177.83 333.893 1177.75 333.352 1178.01 332.938 1178.57 332.045 1178.97 331.074 1179.2 330.052 1179.31 329.575 1179.76 329.255 1180.24 329.273L1181.17 329.326 1181.17 326.673ZM1182.86 324.888C1183.06 325.077 1183.17 325.34 1183.17 325.615L1183.17 330.385C1183.17 330.66 1183.06 330.923 1182.86 331.112 1182.66 331.3 1182.39 331.397 1182.11 331.383L1180.94 331.316C1180.73 331.99 1180.46 332.642 1180.13 333.268L1181.01 334.053C1181.21 334.236 1181.34 334.496 1181.34 334.771 1181.35 335.045 1181.24 335.312 1181.05 335.506L1177.68 338.879C1177.48 339.074 1177.19 339.182 1176.94 339.171 1176.67 339.164 1176.41 339.042 1176.22 338.837L1175.44 337.961C1174.82 338.292 1174.17 338.563 1173.49 338.771L1173.56 339.942C1173.57 340.217 1173.47 340.486 1173.28 340.686 1173.09 340.886 1172.83 341 1172.56 341L1167.79 341C1167.51 341 1167.25 340.886 1167.06 340.686 1166.87 340.486 1166.77 340.217 1166.79 339.942L1166.86 338.77C1166.18 338.562 1165.53 338.291 1164.9 337.959L1164.12 338.837C1163.94 339.043 1163.68 339.164 1163.4 339.171 1163.13 339.179 1162.86 339.074 1162.67 338.879L1159.29 335.506C1159.1 335.312 1158.99 335.045 1159 334.77 1159.01 334.495 1159.13 334.235 1159.33 334.052L1160.21 333.269C1159.88 332.644 1159.61 331.991 1159.41 331.316L1158.23 331.383C1157.96 331.398 1157.68 331.3 1157.48 331.112 1157.29 330.923 1157.17 330.66 1157.17 330.385L1157.17 325.615C1157.17 325.34 1157.29 325.077 1157.48 324.888 1157.68 324.699 1157.96 324.604 1158.23 324.616L1159.41 324.684C1159.62 324.01 1159.89 323.359 1160.22 322.736L1159.33 321.948C1159.13 321.765 1159.01 321.505 1159 321.23 1158.99 320.955 1159.1 320.689 1159.29 320.495L1162.67 317.122C1162.86 316.927 1163.13 316.817 1163.4 316.829 1163.68 316.837 1163.94 316.958 1164.12 317.163L1164.91 318.047C1165.53 317.717 1166.18 317.447 1166.86 317.24L1166.79 316.057C1166.77 315.782 1166.87 315.513 1167.06 315.313 1167.25 315.113 1167.51 315 1167.79 315L1172.56 315C1172.83 315 1173.09 315.113 1173.28 315.312 1173.47 315.513 1173.57 315.782 1173.56 316.056L1173.49 317.242C1174.16 317.449 1174.81 317.719 1175.43 318.048L1176.22 317.163C1176.41 316.958 1176.67 316.837 1176.94 316.829 1177.22 316.814 1177.48 316.927 1177.68 317.122L1181.05 320.495C1181.24 320.689 1181.35 320.955 1181.34 321.23 1181.34 321.505 1181.21 321.765 1181.01 321.948L1180.13 322.735C1180.46 323.358 1180.73 324.01 1180.94 324.684L1182.11 324.616C1182.39 324.605 1182.66 324.699 1182.86 324.888L1182.86 324.888ZM1144 339 1156 339 1156 341 1144 341C1141.24 341 1139 338.757 1139 336L1139 302C1139 299.243 1141.24 297 1144 297L1178 297C1180.76 297 1183 299.243 1183 302L1183 315 1181 315 1181 302C1181 300.346 1179.65 299 1178 299L1144 299C1142.35 299 1141 300.346 1141 302L1141 336C1141 337.654 1142.35 339 1144 339L1144 339Z" fill="#8C4FFF" fill-rule="evenodd"/></g></svg>