<svg width="48" height="48" xmlns="http://www.w3.org/2000/svg" xmlns:xlink="http://www.w3.org/1999/xlink" xml:space="preserve" overflow="hidden"><defs><clipPath id="clip0"><rect x="701" y="411" width="48" height="48"/></clipPath></defs><g clip-path="url(#clip0)" transform="translate(-701 -411)"><path d="M711.398 427.622C712.085 427.622 712.643 428.181 712.643 428.867 712.643 429.553 712.085 430.112 711.398 430.112 710.712 430.112 710.154 429.553 710.154 428.867 710.154 428.181 710.712 427.622 711.398 427.622L711.398 427.622ZM725.254 422.219C725.94 422.219 726.499 422.776 726.499 423.464 726.499 424.15 725.94 424.707 725.254 424.707 724.568 424.707 724.009 424.15 724.009 423.464 724.009 422.776 724.568 422.219 725.254 422.219L725.254 422.219ZM739.219 416.799C739.906 416.799 740.464 417.358 740.464 418.044 740.464 418.73 739.906 419.289 739.219 419.289 738.533 419.289 737.974 418.73 737.974 418.044 737.974 417.358 738.533 416.799 739.219 416.799L739.219 416.799ZM711.398 432.112C713.187 432.112 714.643 430.656 714.643 428.867 714.643 428.819 714.631 428.776 714.629 428.729L722.785 425.543C723.381 426.25 724.261 426.707 725.254 426.707 727.044 426.707 728.499 425.253 728.499 423.464 728.499 423.353 728.477 423.247 728.466 423.141L736.693 420.056C737.288 420.801 738.193 421.289 739.219 421.289 741.008 421.289 742.464 419.833 742.464 418.044 742.464 416.255 741.008 414.799 739.219 414.799 737.43 414.799 735.974 416.255 735.974 418.044 735.974 418.091 735.986 418.135 735.988 418.182L727.659 421.306C727.065 420.643 726.212 420.219 725.254 420.219 723.465 420.219 722.009 421.674 722.009 423.464 722.009 423.542 722.027 423.613 722.032 423.69L713.925 426.857C713.33 426.111 712.424 425.622 711.398 425.622 709.609 425.622 708.154 427.078 708.154 428.867 708.154 430.656 709.609 432.112 711.398 432.112L711.398 432.112ZM707.999 437.039 715.045 437.039 715 452.039 707.978 452.039 707.999 437.039ZM722 452.039 729 452.039 729 431.039 722 431.039 722 452.039ZM736 452.039 743 452.039 743 426.039 736 426.039 736 452.039ZM745 452.039 745 425.039C745 424.487 744.552 424.039 744 424.039L735 424.039C734.447 424.039 734 424.487 734 425.039L734 452.039 731 452.039 731 430.039C731 429.487 730.552 429.039 730 429.039L721 429.039C720.447 429.039 720 429.487 720 430.039L720 452.039 717 452.039 717.048 436.042C717.049 435.776 716.944 435.521 716.756 435.332 716.569 435.145 716.314 435.039 716.048 435.039L707 435.039C706.448 435.039 706.001 435.486 706 436.038L705.978 452.039 704 452.039 704 454.039 747 454.039 747 452.039 745 452.039Z" fill="#00B0F0" fill-rule="evenodd"/></g></svg>