<svg width="80" height="80" xmlns="http://www.w3.org/2000/svg" xmlns:xlink="http://www.w3.org/1999/xlink" xml:space="preserve" overflow="hidden"><defs><clipPath id="clip0"><rect x="791" y="124" width="80" height="80"/></clipPath></defs><g clip-path="url(#clip0)" transform="translate(-791 -124)"><path d="M791 124 871 124 871 204 791 204Z" fill="#E7157B" fill-rule="evenodd"/><path d="M811.137 175.603C810.158 173.93 809.394 172.136 808.866 170.273L810.79 169.728C811.272 171.429 811.969 173.065 812.864 174.593L811.137 175.603ZM810.79 158.273 808.866 157.728C809.383 155.903 810.127 154.144 811.078 152.499L812.809 153.501C811.941 155.001 811.262 156.607 810.79 158.273L810.79 158.273ZM822.409 144.832 821.591 143.008C824.557 141.676 827.723 141 831 141 834.278 141 837.444 141.676 840.409 143.008L839.591 144.832C836.884 143.617 833.993 143 831 143 828.007 143 825.116 143.617 822.409 144.832L822.409 144.832ZM850.922 152.499C851.873 154.144 852.617 155.903 853.134 157.728L851.21 158.273C850.739 156.607 850.06 155.001 849.192 153.501L850.922 152.499ZM851.21 169.728 853.134 170.273C852.617 172.098 851.873 173.857 850.922 175.501L849.192 174.499C850.06 172.999 850.739 171.394 851.21 169.728L851.21 169.728ZM839.591 183.169 840.409 184.993C837.444 186.325 834.278 187 831 187 827.723 187 824.557 186.325 821.591 184.993L822.409 183.169C825.116 184.384 828.007 185 831 185 833.993 185 836.884 184.384 839.591 183.169L839.591 183.169ZM816 183C814.346 183 813 181.655 813 180 813 178.346 814.346 177 816 177 817.655 177 819 178.346 819 180 819 181.655 817.655 183 816 183L816 183ZM816 175C813.243 175 811 177.244 811 180 811 182.757 813.243 185 816 185 818.757 185 821 182.757 821 180 821 177.244 818.757 175 816 175L816 175ZM846 183C844.346 183 843 181.655 843 180 843 178.346 844.346 177 846 177 847.655 177 849 178.346 849 180 849 181.655 847.655 183 846 183L846 183ZM846 175C843.243 175 841 177.244 841 180 841 182.757 843.243 185 846 185 848.757 185 851 182.757 851 180 851 177.244 848.757 175 846 175L846 175ZM807 164C807 162.346 808.346 161 810 161 811.655 161 813 162.346 813 164 813 165.655 811.655 167 810 167 808.346 167 807 165.655 807 164L807 164ZM814.899 165 819.594 165 818.295 166.291 819.705 167.709 822.705 164.727C822.894 164.54 822.999 164.286 823 164.02 823.001 163.755 822.897 163.5 822.709 163.312L819.709 160.295 818.291 161.706 819.578 163 814.899 163C814.435 160.721 812.414 159 810 159 807.243 159 805 161.244 805 164 805 166.757 807.243 169 810 169 812.414 169 814.435 167.28 814.899 165L814.899 165ZM853 167C851.346 167 850 165.655 850 164 850 162.346 851.346 161 853 161 854.655 161 856 162.346 856 164 856 165.655 854.655 167 853 167L853 167ZM853 159C850.243 159 848 161.244 848 164 848 166.757 850.243 169 853 169 855.757 169 858 166.757 858 164 858 161.244 855.757 159 853 159L853 159ZM816 145C817.655 145 819 146.346 819 148 819 149.655 817.655 151 816 151 814.346 151 813 149.655 813 148 813 146.346 814.346 145 816 145L816 145ZM816 153C818.757 153 821 150.757 821 148 821 145.244 818.757 143 816 143 813.243 143 811 145.244 811 148 811 150.757 813.243 153 816 153L816 153ZM846 145C847.655 145 849 146.346 849 148 849 149.655 847.655 151 846 151 844.346 151 843 149.655 843 148 843 146.346 844.346 145 846 145L846 145ZM846 153C848.757 153 851 150.757 851 148 851 145.244 848.757 143 846 143 843.243 143 841 145.244 841 148 841 150.757 843.243 153 846 153L846 153ZM841.4 166.201 842.999 165 839 165 839 163 843 163 841.401 161.801 842.6 160.2 846.6 163.199C846.852 163.388 847 163.684 847 163.999 847 164.313 846.852 164.61 846.601 164.799L842.601 167.8 841.4 166.201ZM836.855 169.868C835.056 169.172 833.028 168.824 831 168.824 828.973 168.824 826.945 169.172 825.146 169.868 825.827 168.125 826.193 166.123 826.193 164 826.193 161.878 825.827 159.876 825.146 158.133 828.743 159.525 833.257 159.525 836.855 158.133 836.173 159.876 835.808 161.878 835.808 164 835.808 166.123 836.173 168.125 836.855 169.868L836.855 169.868ZM840.707 172.293C838.892 170.478 837.808 167.378 837.808 164 837.808 160.623 838.892 157.523 840.707 155.707 840.903 155.512 841 155.256 841 155 841 154.745 840.903 154.489 840.707 154.293 840.317 153.903 839.684 153.903 839.293 154.293 835.418 158.168 826.582 158.168 822.707 154.293 822.317 153.903 821.684 153.903 821.293 154.293 821.098 154.489 821 154.745 821 155 821 155.256 821.098 155.512 821.293 155.707 823.109 157.523 824.193 160.623 824.193 164 824.193 167.378 823.109 170.478 821.293 172.293 821.098 172.489 821 172.745 821 173 821 173.256 821.098 173.512 821.293 173.707 821.684 174.098 822.317 174.098 822.707 173.707 826.582 169.832 835.418 169.832 839.293 173.707 839.489 173.903 839.744 174 840 174 840.256 174 840.512 173.903 840.707 173.707 840.903 173.512 841 173.256 841 173 841 172.745 840.903 172.489 840.707 172.293L840.707 172.293Z" fill="#FFFFFF" fill-rule="evenodd"/></g></svg>