<svg width="48" height="48" xmlns="http://www.w3.org/2000/svg" xmlns:xlink="http://www.w3.org/1999/xlink" xml:space="preserve" overflow="hidden"><defs><clipPath id="clip0"><rect x="810" y="295" width="48" height="48"/></clipPath></defs><g clip-path="url(#clip0)" transform="translate(-810 -295)"><path d="M856 326 856 328C855.815 328.107 855.479 328.933 855.3 329.376 854.824 330.545 854.232 332 852.745 332 851.258 332 850.666 330.545 850.19 329.376 850.011 328.933 849.675 328.107 849.458 327.992 849.307 328.108 848.972 328.934 848.792 329.376 848.316 330.545 847.726 332 846.24 332 844.755 332 844.163 330.545 843.688 329.376 843.509 328.933 843.174 328.108 842.957 327.991 842.809 328.108 842.474 328.933 842.294 329.376 841.819 330.545 841.228 332 839.742 332 838.258 332 837.668 330.545 837.193 329.376 837.014 328.933 836.68 328.108 836.463 327.991 836.314 328.108 835.979 328.934 835.8 329.377 835.325 330.546 834.734 332 833.249 332 831.764 332 831.173 330.546 830.698 329.377 830.519 328.934 830.184 328.108 829.967 327.992L830 326C831.485 326 832.077 327.455 832.552 328.624 832.731 329.067 833.066 329.892 833.283 330.009 833.432 329.892 833.767 329.067 833.946 328.624 834.421 327.455 835.013 326 836.498 326 837.982 326 838.572 327.455 839.047 328.624 839.227 329.067 839.561 329.892 839.777 330.009 839.926 329.892 840.261 329.066 840.44 328.623 840.915 327.454 841.506 326 842.991 326 844.477 326 845.067 327.454 845.542 328.623 845.722 329.066 846.057 329.892 846.273 330.008 846.424 329.892 846.759 329.066 846.938 328.624 847.414 327.455 848.005 326 849.49 326 850.977 326 851.568 327.454 852.043 328.623 852.224 329.066 852.56 329.893 852.777 330.008 852.931 329.893 853.267 329.066 853.447 328.623 853.922 327.454 854.514 326 856 326L856 326ZM856 319 856 321C855.815 321.107 855.479 321.933 855.3 322.376 854.824 323.545 854.232 325 852.745 325 851.258 325 850.666 323.545 850.19 322.376 850.011 321.933 849.675 321.107 849.458 320.992 849.307 321.108 848.972 321.934 848.792 322.376 848.316 323.545 847.726 325 846.24 325 844.755 325 844.163 323.545 843.688 322.376 843.509 321.933 843.174 321.108 842.957 320.991 842.809 321.108 842.474 321.933 842.294 322.376 841.819 323.545 841.228 325 839.742 325 838.258 325 837.668 323.545 837.193 322.376 837.014 321.933 836.68 321.108 836.463 320.991 836.314 321.108 835.979 321.934 835.8 322.377 835.325 323.546 834.734 325 833.249 325 831.764 325 831.173 323.546 830.698 322.377 830.519 321.934 830.184 321.108 829.967 320.992L830 319C831.485 319 832.077 320.455 832.552 321.624 832.731 322.067 833.066 322.892 833.283 323.009 833.432 322.892 833.767 322.067 833.946 321.624 834.421 320.455 835.013 319 836.498 319 837.982 319 838.572 320.455 839.047 321.624 839.227 322.067 839.561 322.892 839.777 323.009 839.926 322.892 840.261 322.066 840.44 321.623 840.915 320.454 841.506 319 842.991 319 844.477 319 845.067 320.454 845.542 321.623 845.722 322.066 846.057 322.892 846.273 323.008 846.424 322.892 846.759 322.066 846.938 321.624 847.414 320.455 848.005 319 849.49 319 850.977 319 851.568 320.454 852.043 321.623 852.224 322.066 852.56 322.893 852.777 323.008 852.931 322.893 853.267 322.066 853.447 321.623 853.922 320.454 854.514 319 856 319L856 319ZM856 311 856 313C855.815 313.107 855.479 313.933 855.3 314.376 854.824 315.545 854.232 317 852.745 317 851.258 317 850.666 315.545 850.19 314.376 850.011 313.933 849.675 313.107 849.458 312.992 849.307 313.108 848.972 313.934 848.792 314.376 848.316 315.545 847.726 317 846.24 317 844.755 317 844.163 315.545 843.688 314.376 843.509 313.933 843.174 313.108 842.957 312.991 842.809 313.108 842.474 313.933 842.294 314.376 841.819 315.545 841.228 317 839.742 317 838.258 317 837.668 315.545 837.193 314.376 837.014 313.933 836.68 313.108 836.463 312.991 836.314 313.108 835.979 313.934 835.8 314.377 835.325 315.546 834.734 317 833.249 317 831.764 317 831.173 315.546 830.698 314.377 830.519 313.934 830.184 313.108 829.967 312.992L830 311C831.485 311 832.077 312.455 832.552 313.624 832.731 314.067 833.066 314.892 833.283 315.009 833.432 314.892 833.767 314.067 833.946 313.624 834.421 312.455 835.013 311 836.498 311 837.982 311 838.572 312.455 839.047 313.624 839.227 314.067 839.561 314.892 839.777 315.009 839.926 314.892 840.261 314.066 840.44 313.623 840.915 312.454 841.506 311 842.991 311 844.477 311 845.067 312.454 845.542 313.623 845.722 314.066 846.057 314.892 846.273 315.008 846.424 314.892 846.759 314.066 846.938 313.624 847.414 312.455 848.005 311 849.49 311 850.977 311 851.568 312.454 852.043 313.623 852.224 314.066 852.56 314.893 852.777 315.008 852.931 314.893 853.267 314.066 853.447 313.623 853.922 312.454 854.514 311 856 311L856 311ZM826.136 299C833.717 299 839 301.165 839 303.107 839 305.051 833.717 307.216 826.136 307.216 818.64 307.216 814 305.083 814 303.107 814 301.132 818.64 299 826.136 299L826.136 299ZM839 334.486C839 336.43 833.717 338.595 826.136 338.595 818.539 338.595 814 336.506 814 334.486L814 327.637C816.358 329.349 820.658 330.378 826.136 330.378L826.136 328.378C818.539 328.378 814 326.303 814 324.297L814 317.409C816.358 319.128 820.658 320.162 826.136 320.162L826.136 318.162C818.64 318.162 814 316.029 814 314.054L814 306.463C816.358 308.182 820.658 309.216 826.136 309.216 831.19 309.216 836.285 308.231 839 306.326L839 310 841 310 841 303 840.987 303C840.852 299.062 833.454 297 826.136 297 817.765 297 812.123 299.407 812.011 303L812 303 812 334.486C812 338.14 817.681 340.595 826.136 340.595 833.295 340.595 841 338.684 841 334.486L841 333 839 333 839 334.486Z" fill="#00B0F0" fill-rule="evenodd"/></g></svg>