<svg width="48" height="48" xmlns="http://www.w3.org/2000/svg" xmlns:xlink="http://www.w3.org/1999/xlink" xml:space="preserve" overflow="hidden"><defs><clipPath id="clip0"><rect x="593" y="411" width="48" height="48"/></clipPath></defs><g clip-path="url(#clip0)" transform="translate(-593 -411)"><path d="M624.482 434.533 637 424.225 637 444.964 624.482 434.533ZM611.088 435.827 617 440.695 622.911 435.827 635.358 446.2 598.642 446.2 611.088 435.827ZM609.517 434.533 597 444.965 597 424.224 609.517 434.533ZM617 438.104 598.659 423 635.34 423 617 438.104ZM595 421.646 595 447.553C595 447.91 595.289 448.2 595.646 448.2L638.353 448.2C638.711 448.2 639 447.91 639 447.553L639 421.646C639 421.289 638.711 421 638.353 421L595.646 421C595.289 421 595 421.289 595 421.646L595 421.646Z" fill="#FFFFFF" fill-rule="evenodd"/></g></svg>