<svg width="48" height="48" xmlns="http://www.w3.org/2000/svg" xmlns:xlink="http://www.w3.org/1999/xlink" xml:space="preserve" overflow="hidden"><defs><clipPath id="clip0"><rect x="744" y="295" width="48" height="48"/></clipPath></defs><g clip-path="url(#clip0)" transform="translate(-744 -295)"><path d="M773.049 318.522C773.049 315.301 775.669 312.681 778.89 312.681 782.111 312.681 784.731 315.301 784.731 318.522 784.731 321.743 782.111 324.363 778.89 324.363 775.669 324.363 773.049 321.743 773.049 318.522ZM759.368 336.94C759.368 335.751 760.335 334.783 761.525 334.783 762.714 334.783 763.682 335.751 763.682 336.94 763.682 338.13 762.714 339.097 761.525 339.097 760.335 339.097 759.368 338.13 759.368 336.94ZM761.525 299C762.714 299 763.682 299.967 763.682 301.157 763.682 302.346 762.714 303.314 761.525 303.314 760.335 303.314 759.368 302.346 759.368 301.157 759.368 299.967 760.335 299 761.525 299ZM752 329.573C752 328.384 752.968 327.416 754.158 327.416 755.347 327.416 756.315 328.384 756.315 329.573 756.315 330.762 755.347 331.73 754.158 331.73 752.968 331.73 752 330.762 752 329.573ZM754.106 319.049C754.106 317.859 755.074 316.891 756.263 316.891 757.453 316.891 758.42 317.859 758.42 319.049 758.42 320.238 757.453 321.206 756.263 321.206 755.074 321.206 754.106 320.238 754.106 319.049ZM752 308.524C752 307.335 752.968 306.367 754.158 306.367 755.347 306.367 756.315 307.335 756.315 308.524 756.315 309.714 755.347 310.681 754.158 310.681 752.968 310.681 752 309.714 752 308.524ZM774.107 312.324 765.074 303.291C765.452 302.665 765.682 301.94 765.682 301.157 765.682 298.865 763.817 297 761.525 297 759.233 297 757.368 298.865 757.368 301.157 757.368 303.449 759.233 305.314 761.525 305.314 762.308 305.314 763.034 305.084 763.66 304.705L772.693 313.738C772.437 314.068 772.202 314.414 772 314.783L758.277 308.902C758.288 308.775 758.315 308.653 758.315 308.524 758.315 306.232 756.45 304.367 754.158 304.367 751.866 304.367 750 306.232 750 308.524 750 310.816 751.866 312.681 754.158 312.681 755.61 312.681 756.886 311.93 757.629 310.8L771.285 316.651C771.173 317.103 771.102 317.57 771.074 318.049L760.285 318.049C759.834 316.24 758.208 314.891 756.263 314.891 753.971 314.891 752.106 316.757 752.106 319.049 752.106 321.341 753.971 323.206 756.263 323.206 758.208 323.206 759.834 321.857 760.285 320.049L771.201 320.049C771.288 320.488 771.417 320.912 771.575 321.322L757.629 327.298C756.886 326.167 755.61 325.416 754.158 325.416 751.866 325.416 750 327.281 750 329.573 750 331.865 751.866 333.73 754.158 333.73 756.45 333.73 758.315 331.865 758.315 329.573 758.315 329.444 758.288 329.322 758.277 329.195L772.443 323.125 772.247 322.668C772.518 323.1 772.828 323.504 773.176 323.875L763.66 333.392C763.034 333.013 762.308 332.783 761.525 332.783 759.233 332.783 757.368 334.648 757.368 336.94 757.368 339.232 759.233 341.097 761.525 341.097 763.817 341.097 765.682 339.232 765.682 336.94 765.682 336.157 765.452 335.431 765.074 334.806L774.726 325.154C775.934 325.916 777.359 326.363 778.89 326.363 783.213 326.363 786.731 322.845 786.731 318.522 786.731 314.199 783.213 310.681 778.89 310.681 777.088 310.681 775.432 311.299 774.107 312.324Z" fill="#00B0F0" fill-rule="evenodd"/></g></svg>