<svg width="48" height="48" xmlns="http://www.w3.org/2000/svg" xmlns:xlink="http://www.w3.org/1999/xlink" xml:space="preserve" overflow="hidden"><defs><clipPath id="clip0"><rect x="378" y="298" width="48" height="48"/></clipPath></defs><g clip-path="url(#clip0)" transform="translate(-378 -298)"><path d="M397.603 304.109C397.773 304.109 397.911 304.247 397.911 304.417 397.911 304.586 397.773 304.724 397.603 304.724 397.433 304.724 397.295 304.586 397.295 304.417 397.295 304.247 397.433 304.109 397.603 304.109L397.603 304.109ZM397.603 306.224C398.6 306.224 399.411 305.413 399.411 304.417 399.411 303.42 398.6 302.609 397.603 302.609 396.606 302.609 395.795 303.42 395.795 304.417 395.795 305.413 396.606 306.224 397.603 306.224L397.603 306.224ZM401.012 305.401 406.374 305.401 406.374 303.401 401.012 303.401 401.012 305.401ZM410.173 341.826 393.812 341.826C392.813 341.826 392 341.029 392 340.05L392 338.641 411.986 338.641 411.986 340.05C411.986 341.029 411.172 341.826 410.173 341.826L410.173 341.826ZM392 308.802 411.986 308.802 411.986 336.641 392 336.641 392 326.943 392 308.802ZM394.646 302 409.339 302C410.798 302 411.986 303.167 411.986 304.6L411.986 306.802 392 306.802 392 304.6C392 303.167 393.187 302 394.646 302L394.646 302ZM409.354 300 409.339 300 394.646 300C392.084 300 390 302.064 390 304.6L390 340.05C390 342.132 391.71 343.826 393.812 343.826L410.173 343.826C412.276 343.826 413.986 342.132 413.986 340.05L413.986 304.6 413.986 304.597C413.986 302.067 411.91 300.008 409.354 300L409.354 300Z" fill="#FFFFFF" fill-rule="evenodd"/></g></svg>