<svg width="48" height="48" xmlns="http://www.w3.org/2000/svg" xmlns:xlink="http://www.w3.org/1999/xlink" xml:space="preserve" overflow="hidden"><defs><clipPath id="clip0"><rect x="882" y="390" width="48" height="48"/></clipPath></defs><g clip-path="url(#clip0)" transform="translate(-882 -390)"><path d="M895.355 401.862 927.928 401.862 927.928 392 895.355 392 895.355 401.862ZM897.355 399.862 925.927 399.862 925.927 394.001 897.355 394.001 897.355 399.862ZM884 401.862 893.861 401.862 893.861 392 884 392 884 401.862ZM886 399.862 891.862 399.862 891.862 394.001 886 394.001 886 399.862ZM895.355 413.217 927.928 413.217 927.928 403.356 895.355 403.356 895.355 413.217ZM897.355 411.217 925.927 411.217 925.927 405.356 897.355 405.356 897.355 411.217ZM884 413.217 893.861 413.217 893.861 403.356 884 403.356 884 413.217ZM886 411.217 891.862 411.217 891.862 405.356 886 405.356 886 411.217ZM895.355 424.572 927.928 424.572 927.928 414.711 895.355 414.711 895.355 424.572ZM897.355 422.572 925.927 422.572 925.927 416.71 897.355 416.71 897.355 422.572ZM884 424.572 893.861 424.572 893.861 414.711 884 414.711 884 424.572ZM886 422.572 891.862 422.572 891.862 416.71 886 416.71 886 422.572ZM895.355 435.927 927.928 435.927 927.928 426.066 895.355 426.066 895.355 435.927ZM897.355 433.928 925.927 433.928 925.927 428.066 897.355 428.066 897.355 433.928ZM884 435.927 893.861 435.927 893.861 426.066 884 426.066 884 435.927ZM886 433.928 891.862 433.928 891.862 428.066 886 428.066 886 433.928Z" fill="#00B0F0" fill-rule="evenodd"/></g></svg>