<svg width="48" height="48" xmlns="http://www.w3.org/2000/svg" xmlns:xlink="http://www.w3.org/1999/xlink" xml:space="preserve" overflow="hidden"><defs><clipPath id="clip0"><rect x="756" y="415" width="48" height="48"/></clipPath></defs><g clip-path="url(#clip0)" transform="translate(-756 -415)"><path d="M783.54 443 785.186 443 786.985 445.436C787.213 445.744 787.599 445.898 787.973 445.825 788.35 445.755 788.653 445.476 788.754 445.106L790.243 439.687 792.837 449 780.961 449 783.54 443ZM791.199 435.667C791.079 435.234 790.686 434.935 790.236 434.935L790.234 434.935C789.785 434.936 789.391 435.236 789.272 435.67L787.371 442.591 786.496 441.406C786.308 441.151 786.009 441 785.691 441L782.882 441C782.482 441 782.121 441.238 781.963 441.605L778.784 449 777.023 449 777.023 451 797.023 451 797.023 449 794.912 449 791.199 435.667ZM767.023 451 769.023 451 769.023 438 767.023 438 767.023 451ZM771.023 451 773.023 451 773.023 436 771.023 436 771.023 451ZM763.023 451 765.023 451 765.023 443 763.023 443 763.023 451ZM770.023 429 772.023 429 772.023 427 770.023 427 770.023 429ZM766.023 429 768.023 429 768.023 427 766.023 427 766.023 429ZM762.023 429 764.023 429 764.023 427 762.023 427 762.023 429ZM760 454 760.018 432 800.023 432 800.023 453.994 760 454ZM800.023 425 800.023 430 760.019 430 760.023 425 800.023 425ZM800.146 423 759.9 423C758.865 423 758.023 423.842 758.023 424.875L758 454.128C757.998 455.154 758.834 455.994 759.87 456L800.146 455.994C801.182 455.994 802.023 455.152 802.023 454.117L802.023 424.877C802.023 423.842 801.182 423 800.146 423L800.146 423Z" fill="#00B0F0" fill-rule="evenodd"/></g></svg>