<svg width="48" height="48" xmlns="http://www.w3.org/2000/svg" xmlns:xlink="http://www.w3.org/1999/xlink" xml:space="preserve" overflow="hidden"><defs><clipPath id="clip0"><rect x="330" y="525" width="48" height="48"/></clipPath></defs><g clip-path="url(#clip0)" transform="translate(-330 -525)"><path d="M374 563.5 376 563.5 376 561.5 374 561.5 374 563.5ZM376 558 376 559.5 374 559.5 374 559 373.5 559 373.5 557 375 557C375.553 557 376 557.447 376 558L376 558ZM343.5 559 346.5 559 346.5 557 343.5 557 343.5 559ZM367.5 559 370.5 559 370.5 557 367.5 557 367.5 559ZM349.5 559 352.5 559 352.5 557 349.5 557 349.5 559ZM337.5 559 340.5 559 340.5 557 337.5 557 337.5 559ZM361.5 559 364.5 559 364.5 557 361.5 557 361.5 559ZM355.5 559 358.5 559 358.5 557 355.5 557 355.5 559ZM333 557 334.5 557 334.5 559 334 559 334 559.5 332 559.5 332 558C332 557.447 332.447 557 333 557L333 557ZM332 563.5 334 563.5 334 561.5 332 561.5 332 563.5ZM334 566 334.5 566 334.5 568 333 568C332.447 568 332 567.553 332 567L332 565.5 334 565.5 334 566ZM349.5 568 352.5 568 352.5 566 349.5 566 349.5 568ZM361.5 568 364.5 568 364.5 566 361.5 566 361.5 568ZM367.5 568 370.5 568 370.5 566 367.5 566 367.5 568ZM337.5 568 340.5 568 340.5 566 337.5 566 337.5 568ZM355.5 568 358.5 568 358.5 566 355.5 566 355.5 568ZM343.5 568 346.5 568 346.5 566 343.5 566 343.5 568ZM374 565.5 376 565.5 376 567C376 567.553 375.553 568 375 568L373.5 568 373.5 566 374 566 374 565.5ZM374 550.5 376 550.5 376 548.5 374 548.5 374 550.5ZM376 545 376 546.5 374 546.5 374 546 373.5 546 373.5 544 375 544C375.553 544 376 544.447 376 545L376 545ZM361.5 546 364.5 546 364.5 544 361.5 544 361.5 546ZM337.5 546 340.5 546 340.5 544 337.5 544 337.5 546ZM367.5 546 370.5 546 370.5 544 367.5 544 367.5 546ZM343.5 546 346.5 546 346.5 544 343.5 544 343.5 546ZM349.5 546 352.5 546 352.5 544 349.5 544 349.5 546ZM355.5 546 358.5 546 358.5 544 355.5 544 355.5 546ZM333 544 334.5 544 334.5 546 334 546 334 546.5 332 546.5 332 545C332 544.447 332.447 544 333 544L333 544ZM332 550.5 334 550.5 334 548.5 332 548.5 332 550.5ZM334 553 334.5 553 334.5 555 333 555C332.447 555 332 554.553 332 554L332 552.5 334 552.5 334 553ZM349.5 555 352.5 555 352.5 553 349.5 553 349.5 555ZM361.5 555 364.5 555 364.5 553 361.5 553 361.5 555ZM337.5 555 340.5 555 340.5 553 337.5 553 337.5 555ZM343.5 555 346.5 555 346.5 553 343.5 553 343.5 555ZM367.5 555 370.5 555 370.5 553 367.5 553 367.5 555ZM355.5 555 358.5 555 358.5 553 355.5 553 355.5 555ZM374 552.5 376 552.5 376 554C376 554.553 375.553 555 375 555L373.5 555 373.5 553 374 553 374 552.5ZM334 540 374 540 374 532 334 532 334 540ZM375 530 333 530C332.447 530 332 530.447 332 531L332 541C332 541.553 332.447 542 333 542L375 542C375.553 542 376 541.553 376 541L376 531C376 530.447 375.553 530 375 530L375 530Z" fill="#E7157B" fill-rule="evenodd"/></g></svg>