<svg width="40" height="40" xmlns="http://www.w3.org/2000/svg" xmlns:xlink="http://www.w3.org/1999/xlink" xml:space="preserve" overflow="hidden"><defs><clipPath id="clip0"><rect x="240" y="159" width="40" height="40"/></clipPath></defs><g clip-path="url(#clip0)" transform="translate(-240 -159)"><path d="M240 159 280 159 280 199 240 199Z" fill="#FFFFFF" fill-rule="evenodd"/><path d="M268.993 186.995 251.487 186.976C249.121 186.974 247.154 185.129 247.012 182.775 247.004 182.652 247 182.526 247 182.397 247 179.299 249.091 178.287 250.337 177.959 250.577 177.896 250.735 177.666 250.707 177.419 250.676 177.149 250.659 176.875 250.659 176.596 250.659 174.132 252.308 171.482 254.415 170.563 255.359 170.15 256.232 169.986 257.023 169.986 259.276 169.986 260.867 171.315 261.561 172.033 262.329 172.826 262.927 173.838 263.34 175.042 263.4 175.219 263.555 175.347 263.74 175.374 263.918 175.401 264.109 175.323 264.219 175.171 264.807 174.35 265.766 173.982 266.659 174.239 267.782 174.56 268.516 175.727 268.62 177.307 268.578 177.576 268.759 177.829 269.027 177.877 270.222 178.089 273 178.957 273 182.44 273 186.589 269.114 186.982 268.993 186.995M269.594 176.974C269.379 175.067 268.4 173.696 266.934 173.278 265.899 172.982 264.811 173.245 263.989 173.95 263.553 172.936 262.979 172.06 262.28 171.338 260.023 169.005 256.933 168.372 254.014 169.646 251.531 170.73 249.659 173.718 249.659 176.596 249.659 176.77 249.665 176.943 249.676 177.114 248.319 177.573 246 178.875 246 182.397 246 182.549 246.004 182.696 246.014 182.838 246.188 185.716 248.593 187.973 251.486 187.976L269.034 187.993C269.084 187.989 274 187.519 274 182.44 274 178.502 271.003 177.314 269.594 176.974" fill="#232F3E" fill-rule="evenodd"/></g></svg>