<svg width="48" height="48" xmlns="http://www.w3.org/2000/svg" xmlns:xlink="http://www.w3.org/1999/xlink" xml:space="preserve" overflow="hidden"><defs><clipPath id="clip0"><rect x="916" y="411" width="48" height="48"/></clipPath></defs><g clip-path="url(#clip0)" transform="translate(-916 -411)"><path d="M926.001 452 960 452 960 425 926.001 425 926.001 452ZM920 452 924.001 452 924.001 425 920 425 920 452ZM920 423 960 423 960 417 920 417 920 423ZM962 416 962 453C962 453.552 961.553 454 961 454L919 454C918.447 454 918 453.552 918 453L918 416C918 415.448 918.447 415 919 415L961 415C961.553 415 962 415.448 962 416L962 416ZM951 443.409 951 434.866 944 439.533 944 447.298 951 443.409ZM935 443.409 942 447.298 942 439.533 935 434.866 935 443.409ZM935.919 433.075 943 437.796 950.081 433.075 943 429.142 935.919 433.075ZM953 432.998 953 443.998C953 444.361 952.803 444.695 952.485 444.872L943.485 449.872C943.335 449.956 943.167 449.998 943 449.998 942.833 449.998 942.665 449.956 942.515 449.872L933.515 444.872C933.197 444.695 933 444.361 933 443.998L933 432.998C933 432.634 933.197 432.3 933.515 432.124L942.515 427.124C942.815 426.956 943.185 426.956 943.485 427.124L952.485 432.124C952.803 432.3 953 432.634 953 432.998L953 432.998ZM930.001 421 932.001 421 932.001 419 930.001 419 930.001 421ZM926.001 421 928.001 421 928.001 419 926.001 419 926.001 421ZM922.001 421 924.001 421 924.001 419 922.001 419 922.001 421Z" fill="#00B0F0" fill-rule="evenodd"/></g></svg>