<svg width="80" height="80" xmlns="http://www.w3.org/2000/svg" xmlns:xlink="http://www.w3.org/1999/xlink" xml:space="preserve" overflow="hidden"><defs><clipPath id="clip0"><rect x="550" y="124" width="80" height="80"/></clipPath></defs><g clip-path="url(#clip0)" transform="translate(-550 -124)"><path d="M550.504 124 630.504 124 630.504 204 550.504 204Z" fill="#8C4FFF" fill-rule="evenodd"/><path d="M614.815 171.688C614.024 170.896 612.986 170.501 611.947 170.501 610.908 170.501 609.87 170.896 609.078 171.688 608.312 172.455 607.889 173.475 607.889 174.56 607.889 175.644 608.312 176.665 609.078 177.432 610.661 179.014 613.233 179.014 614.815 177.432 616.397 175.848 616.397 173.271 614.815 171.688L614.815 171.688ZM606.287 172.41C606.577 171.642 607.022 170.936 607.61 170.331L605.457 166.228 602.775 171.3 606.287 172.41ZM599.885 172.485 588.087 168.755C587.454 170.371 586.492 171.885 585.19 173.189 585.026 173.352 584.85 173.496 584.68 173.65L589.883 180.877C590.866 180.224 592.016 179.874 593.221 179.874 594.09 179.874 594.927 180.061 595.697 180.406L599.885 172.485ZM597.278 185.936C597.278 184.852 596.856 183.832 596.09 183.065 595.324 182.299 594.305 181.876 593.221 181.876 592.138 181.876 591.12 182.299 590.354 183.065 589.588 183.832 589.165 184.852 589.165 185.936 589.165 187.021 589.588 188.041 590.354 188.808 591.12 189.575 592.138 189.997 593.221 189.997 594.305 189.997 595.324 189.575 596.09 188.808 596.856 188.041 597.278 187.021 597.278 185.936L597.278 185.936ZM583.776 171.772C588.066 167.478 588.066 160.491 583.776 156.197 581.63 154.05 578.813 152.977 575.995 152.977 573.178 152.977 570.361 154.049 568.216 156.197 563.926 160.491 563.926 167.478 568.216 171.772 572.506 176.067 579.486 176.067 583.776 171.772L583.776 171.772ZM584.664 154.305C584.839 154.462 585.021 154.612 585.19 154.781 586.439 156.031 587.376 157.476 588.01 159.018L599.764 155.385 595.68 147.603C594.916 147.944 594.083 148.127 593.221 148.127 592.009 148.127 590.852 147.774 589.868 147.114L584.664 154.305ZM589.165 142.065C589.165 143.149 589.588 144.168 590.354 144.935 591.12 145.702 592.138 146.125 593.221 146.125 594.305 146.125 595.324 145.702 596.09 144.935 596.856 144.168 597.278 143.149 597.278 142.065 597.278 140.979 596.856 139.96 596.09 139.192 595.324 138.425 594.305 138.003 593.221 138.003 592.138 138.003 591.12 138.425 590.354 139.192 589.588 139.96 589.165 140.979 589.165 142.065L589.165 142.065ZM588.665 166.837 600.836 170.686 604.329 164.081 600.711 157.188 588.616 160.927C589.082 162.868 589.1 164.89 588.665 166.837L588.665 166.837ZM602.656 156.586 605.463 161.935 608.095 156.956C607.953 156.836 607.798 156.737 607.664 156.603 607.282 156.221 606.962 155.793 606.7 155.337L602.656 156.586ZM607.889 152.315C607.889 153.4 608.312 154.419 609.078 155.187 610.661 156.77 613.233 156.77 614.815 155.187 616.397 153.603 616.397 151.027 614.815 149.444 614.024 148.652 612.986 148.257 611.947 148.257 610.908 148.257 609.87 148.652 609.078 149.444 608.312 150.211 607.889 151.23 607.889 152.315L607.889 152.315ZM616.23 170.272C618.59 172.636 618.59 176.483 616.23 178.847 615.049 180.03 613.498 180.621 611.947 180.621 610.396 180.621 608.844 180.03 607.664 178.847 606.52 177.702 605.889 176.179 605.889 174.56 605.889 174.502 605.896 174.445 605.898 174.387L601.824 173.099 597.369 181.526C597.413 181.568 597.46 181.606 597.504 181.649 598.648 182.794 599.279 184.317 599.279 185.936 599.279 187.556 598.648 189.079 597.504 190.224 596.361 191.369 594.839 192 593.221 192 591.604 192 590.083 191.369 588.94 190.224 587.794 189.079 587.164 187.556 587.164 185.936 587.164 184.589 587.607 183.312 588.414 182.26L583.103 174.883C580.952 176.289 578.475 176.995 575.995 176.995 572.666 176.995 569.336 175.726 566.802 173.189 561.733 168.114 561.733 159.856 566.802 154.781 571.218 150.359 578.047 149.794 583.085 153.076L588.403 145.726C587.604 144.677 587.164 143.405 587.164 142.065 587.164 140.445 587.796 138.922 588.94 137.776 590.083 136.631 591.604 136 593.221 136 594.839 136 596.361 136.631 597.504 137.776 598.648 138.922 599.279 140.445 599.279 142.065 599.279 143.684 598.648 145.207 597.504 146.351 597.457 146.399 597.404 146.441 597.355 146.488L601.709 154.783 605.999 153.457C605.927 153.085 605.889 152.703 605.889 152.315 605.889 150.696 606.52 149.173 607.664 148.028 610.026 145.663 613.868 145.663 616.23 148.028 618.59 150.391 618.59 154.238 616.23 156.603 615.049 157.785 613.498 158.376 611.947 158.376 611.224 158.376 610.504 158.234 609.818 157.978L606.59 164.084 609.254 169.159C611.522 168.03 614.342 168.384 616.23 170.272L616.23 170.272ZM576.995 162.983 581.997 162.983 581.997 164.986 576.995 164.986 576.995 169.992 574.995 169.992 574.995 164.986 569.994 164.986 569.994 162.983 574.995 162.983 574.995 157.977 576.995 157.977 576.995 162.983Z" fill="#FFFFFF" fill-rule="evenodd"/></g></svg>