<svg width="48" height="48" xmlns="http://www.w3.org/2000/svg" xmlns:xlink="http://www.w3.org/1999/xlink" xml:space="preserve" overflow="hidden"><defs><clipPath id="clip0"><rect x="867" y="294" width="48" height="48"/></clipPath></defs><g clip-path="url(#clip0)" transform="translate(-867 -294)"><path d="M873 334.457 901.888 334.457 901.888 296 873 296 873 334.457ZM875 332.457 899.889 332.457 899.889 298 875 298 875 332.457ZM903.651 299.557 903.651 301.557 906.33 301.557 906.33 338 879.56 338 879.56 336.178 877.56 336.178 877.56 340 908.33 340 908.33 299.557 903.651 299.557ZM895.175 304.176 897.555 304.176 897.555 302.176 895.175 302.176 895.175 304.176ZM877.25 304.176 893.588 304.176 893.588 302.176 877.25 302.176 877.25 304.176ZM886.332 310.223 897.556 310.223 897.556 308.223 886.332 308.223 886.332 310.223ZM881.08 310.223 884.933 310.223 884.933 308.223 881.08 308.223 881.08 310.223ZM877.25 310.223 879.266 310.223 879.266 308.223 877.25 308.223 877.25 310.223ZM885.35 316.269 897.556 316.269 897.556 314.269 885.35 314.269 885.35 316.269ZM877.25 316.269 883.838 316.269 883.838 314.269 877.25 314.269 877.25 316.269ZM877.25 322.315 897.556 322.315 897.556 320.315 877.25 320.315 877.25 322.315ZM893.928 328.286 897.556 328.286 897.556 326.285 893.928 326.285 893.928 328.286ZM877.25 328.286 891.963 328.286 891.963 326.285 877.25 326.285 877.25 328.286Z" fill="#00B0F0" fill-rule="evenodd"/></g></svg>