<svg width="48" height="48" xmlns="http://www.w3.org/2000/svg" xmlns:xlink="http://www.w3.org/1999/xlink" xml:space="preserve" overflow="hidden"><defs><clipPath id="clip0"><rect x="594" y="412" width="48" height="48"/></clipPath></defs><g clip-path="url(#clip0)" transform="translate(-594 -412)"><path d="M631.322 421.762C629.937 422.442 628.302 423.002 626.486 423.419 625.664 420.711 624.55 418.477 623.222 416.86 626.32 417.813 629.091 419.518 631.322 421.762L631.322 421.762ZM628.033 434C627.969 430.854 627.609 427.932 627 425.344 629.153 424.843 631.088 424.154 632.693 423.305 635.086 426.281 636.615 429.97 636.924 434L628.033 434ZM626.71 445.883C627.491 442.974 627.958 439.619 628.033 436L636.974 436C636.859 440.507 635.226 444.644 632.543 447.894 630.898 447.047 628.906 446.372 626.71 445.883L626.71 445.883ZM626.13 447.796C627.997 448.201 629.685 448.753 631.117 449.432 628.744 451.752 625.78 453.458 622.477 454.332 623.937 452.817 625.185 450.573 626.13 447.796L626.13 447.796ZM610.034 447.949C611.043 450.858 612.385 453.179 613.956 454.662 610.39 454.003 607.171 452.371 604.565 450.053 606.033 449.179 607.903 448.466 610.034 447.949L610.034 447.949ZM608.078 436C608.154 439.688 608.639 443.101 609.446 446.047 606.96 446.664 604.784 447.534 603.105 448.608 600.051 445.257 598.149 440.851 598.025 436L608.078 436ZM609.151 425.164C608.517 427.795 608.144 430.782 608.078 434L598.076 434C598.411 429.628 600.192 425.663 602.944 422.569 604.578 423.65 606.706 424.531 609.151 425.164L609.151 425.164ZM609.673 423.248C607.6 422.717 605.786 421.998 604.373 421.122 606.822 418.884 609.833 417.26 613.178 416.499 611.748 418.103 610.55 420.418 609.673 423.248L609.673 423.248ZM610.078 434C610.143 430.838 610.506 428.016 611.089 425.604 613.377 426.047 615.87 426.286 618.444 426.286 620.733 426.286 622.966 426.095 625.051 425.739 625.616 428.121 625.969 430.895 626.033 434L610.078 434ZM624.163 447.434C622.599 451.881 620.284 454.5 618.055 454.5 615.845 454.5 613.548 451.926 611.984 447.545 613.998 447.193 616.181 447 618.444 447 620.427 447 622.35 447.157 624.163 447.434L624.163 447.434ZM618.444 445C615.98 445 613.593 445.222 611.387 445.629 610.635 442.909 610.076 439.658 610 436L626 436C625.925 439.603 625.49 442.811 624.757 445.506 622.755 445.181 620.627 445 618.444 445L618.444 445ZM618.482 416.05C620.749 416.362 623.065 419.121 624.528 423.801 622.612 424.115 620.559 424.286 618.444 424.286 616.047 424.286 613.736 424.073 611.624 423.68 613.146 418.899 615.559 416.147 617.887 416.02 618.087 416.024 618.284 416.04 618.482 416.05L618.482 416.05ZM618.636 414.058C618.443 414.036 618.252 414 618.055 414 617.992 414 617.931 414.016 617.868 414.019 617.744 414.017 617.624 414 617.5 414 605.645 414 596 423.645 596 435.5 596 447.355 605.645 457 617.5 457 629.355 457 639 447.355 639 435.5 639 424.028 629.961 414.654 618.636 414.058L618.636 414.058Z" fill="#FFFFFF" fill-rule="evenodd"/></g></svg>