<svg width="90" height="90" xmlns="http://www.w3.org/2000/svg" xmlns:xlink="http://www.w3.org/1999/xlink" xml:space="preserve" overflow="hidden"><defs><clipPath id="clip0"><rect x="756" y="344" width="90" height="90"/></clipPath></defs><g clip-path="url(#clip0)" transform="translate(-756 -344)"><path d="M761 349 841 349 841 429 761 429Z" stroke="#F2F2F2" stroke-width="2.02247" fill="#0070C0" fill-rule="evenodd"/><path d="M757 345 845 345 845 433 757 433Z" stroke="#F2F2F2" stroke-width="2.02247" fill="#0070C0" fill-rule="evenodd"/><path d="M826.979 408.948C826.979 408.498 826.804 408.076 826.485 407.759L805.875 387.148C805.745 387.019 805.576 386.954 805.404 386.954 805.234 386.954 805.065 387.019 804.935 387.148L799.148 392.935C798.888 393.194 798.888 393.616 799.148 393.876L819.758 414.485C820.395 415.12 821.5 415.121 822.138 414.485L826.485 410.138C826.802 409.82 826.979 409.397 826.979 408.948L826.979 408.948ZM799.221 390.033 802.034 387.221 789.724 374.865C789.26 374.398 788.909 373.82 788.708 373.194L786.917 367.612C786.729 367.028 786.302 366.549 785.745 366.296L779.617 363.517C778.797 363.145 777.819 363.323 777.182 363.96L775.958 365.183C775.323 365.819 775.146 366.797 775.517 367.617L778.295 373.745C778.548 374.303 779.029 374.73 779.611 374.918L786.153 377.016 799.221 390.033ZM828.979 408.948C828.979 409.931 828.594 410.856 827.899 411.552L823.552 415.899C822.833 416.617 821.891 416.976 820.948 416.976 820.005 416.976 819.062 416.617 818.344 415.899L797.734 395.29C796.695 394.251 796.695 392.56 797.734 391.521L797.807 391.448 785.083 378.773 778.999 376.822C777.879 376.462 776.959 375.642 776.473 374.572L773.695 368.443C772.982 366.869 773.323 364.99 774.544 363.769L775.768 362.546C776.992 361.323 778.873 360.984 780.443 361.696L786.571 364.474C787.643 364.96 788.461 365.881 788.821 367.001L790.612 372.583C790.716 372.909 790.901 373.21 791.143 373.453L803.448 385.807 803.521 385.734C804.56 384.696 806.25 384.694 807.289 385.734L827.899 406.344C828.594 407.039 828.979 407.964 828.979 408.948L828.979 408.948ZM802.167 380.749 809.604 373.312C809.823 373.094 809.927 372.786 809.888 372.479 809.555 369.867 810.427 367.308 812.278 365.457 814.44 363.293 817.589 362.505 820.482 363.306L815.304 368.484C814.521 369.266 814.091 370.305 814.091 371.411 814.091 372.517 814.521 373.557 815.304 374.339 816.086 375.121 817.125 375.552 818.232 375.552 819.336 375.552 820.377 375.121 821.159 374.339L826.336 369.161C827.138 372.048 826.349 375.201 824.185 377.365 822.333 379.216 819.776 380.087 817.164 379.755 816.854 379.713 816.547 379.821 816.331 380.04L810.602 385.768 812.016 387.182 817.409 381.79C820.463 382.037 823.425 380.953 825.599 378.78 828.711 375.668 829.526 370.905 827.628 366.927 827.489 366.634 827.214 366.427 826.895 366.372 826.581 366.317 826.25 366.421 826.018 366.651L819.745 372.925C818.935 373.733 817.526 373.733 816.718 372.925 816.313 372.52 816.091 371.983 816.091 371.411 816.091 370.84 816.313 370.302 816.718 369.898L822.992 363.624C823.221 363.395 823.326 363.068 823.271 362.748 823.216 362.428 823.008 362.155 822.716 362.015 818.737 360.116 813.974 360.932 810.864 364.043 808.69 366.217 807.607 369.178 807.852 372.235L800.752 379.335 802.167 380.749ZM799.182 400.016 793.791 405.408C794.036 408.464 792.953 411.426 790.779 413.6 788.787 415.592 786.117 416.642 783.411 416.642 781.889 416.642 780.358 416.311 778.926 415.628 778.633 415.489 778.426 415.215 778.372 414.895 778.316 414.575 778.42 414.248 778.65 414.019L784.924 407.745C785.758 406.91 785.758 405.552 784.924 404.718 784.091 403.884 782.732 403.884 781.897 404.718L775.624 410.992C775.393 411.222 775.06 411.324 774.748 411.27 774.427 411.216 774.154 411.009 774.014 410.716 772.116 406.737 772.931 401.974 776.042 398.864 778.216 396.69 781.18 395.609 784.234 395.853L791.877 388.21 793.291 389.624 785.312 397.603C785.093 397.822 784.781 397.925 784.479 397.888 781.865 397.552 779.307 398.427 777.457 400.278 775.292 402.441 774.504 405.594 775.305 408.482L780.483 403.304C782.099 401.69 784.724 401.69 786.339 403.304 787.953 404.918 787.953 407.545 786.339 409.159L781.161 414.337C784.045 415.139 787.201 414.35 789.365 412.186 791.216 410.335 792.086 407.775 791.753 405.164 791.714 404.857 791.82 404.55 792.039 404.331L797.768 398.602 799.182 400.016Z" stroke="#F2F2F2" stroke-width="2.02247" fill="#0070C0" fill-rule="evenodd"/></g></svg>