<svg width="48" height="48" xmlns="http://www.w3.org/2000/svg" xmlns:xlink="http://www.w3.org/1999/xlink" xml:space="preserve" overflow="hidden"><defs><clipPath id="clip0"><rect x="1162" y="294" width="48" height="48"/></clipPath></defs><g clip-path="url(#clip0)" transform="translate(-1162 -294)"><path d="M1164 298 1208 298 1208 296 1164 296 1164 298ZM1164 340 1208 340 1208 338 1164 338 1164 340ZM1192.89 327.616 1200.61 329.696 1205.81 310.384 1198.09 308.304 1192.89 327.616ZM1201.32 331.922C1201.23 331.922 1201.14 331.911 1201.06 331.888L1191.4 329.287C1191.15 329.218 1190.93 329.05 1190.8 328.82 1190.66 328.59 1190.63 328.317 1190.69 328.061L1196.42 306.818C1196.49 306.562 1196.65 306.344 1196.88 306.211 1197.11 306.08 1197.39 306.043 1197.64 306.112L1207.3 308.713C1207.83 308.857 1208.15 309.405 1208 309.939L1202.28 331.182C1202.21 331.438 1202.05 331.656 1201.82 331.789 1201.66 331.876 1201.49 331.922 1201.32 331.922L1201.32 331.922ZM1179 328 1187 328 1187 308 1179 308 1179 328ZM1188 330 1178 330C1177.45 330 1177 329.552 1177 329L1177 307C1177 306.448 1177.45 306 1178 306L1188 306C1188.55 306 1189 306.448 1189 307L1189 329C1189 329.552 1188.55 330 1188 330L1188 330ZM1166 328 1174 328 1174 308 1166 308 1166 328ZM1175 330 1165 330C1164.45 330 1164 329.552 1164 329L1164 307C1164 306.448 1164.45 306 1165 306L1175 306C1175.55 306 1176 306.448 1176 307L1176 329C1176 329.552 1175.55 330 1175 330L1175 330Z" fill="#00B0F0" fill-rule="evenodd"/></g></svg>