<svg width="48" height="48" xmlns="http://www.w3.org/2000/svg" xmlns:xlink="http://www.w3.org/1999/xlink"
     xml:space="preserve" overflow="hidden"><defs><clipPath id="clip0"><rect x="270" y="298" width="48" height="48"/></clipPath></defs>
    <g clip-path="url(#clip0)" transform="translate(-270 -298)"><path d="M312.299 336.773 312.299 338.696C312.299 339.134 311.945 339.49 311.506 339.49L300.762 339.49C300.323 339.49 299.968 339.134 299.968 338.696L299.968 336.773C299.968 336.335 300.323 335.98 300.762 335.98L311.506 335.98C311.945 335.98 312.299 336.335 312.299 336.773L312.299 336.773ZM313.797 340.399C313.797 340.754 313.508 341.044 313.153 341.044L274.645 341.044C274.289 341.044 274 340.754 274 340.399L274 335.011C274 334.656 274.289 334.367 274.645 334.367L313.153 334.367C313.508 334.367 313.797 334.656 313.797 335.011L313.797 340.399ZM313.153 332.367 274.645 332.367C273.187 332.367 272 333.553 272 335.011L272 340.399C272 341.857 273.187 343.044 274.645 343.044L313.153 343.044C314.611 343.044 315.797 341.857 315.797 340.399L315.797 335.011C315.797 333.553 314.611 332.367 313.153 332.367L313.153 332.367ZM277.501 325.21 310.264 325.21 310.264 305.502 277.501 305.502 277.501 325.21ZM310.842 303.502 276.924 303.502C276.14 303.502 275.501 304.139 275.501 304.923L275.501 325.788C275.501 326.572 276.14 327.21 276.924 327.21L310.842 327.21C311.626 327.21 312.264 326.572 312.264 325.788L312.264 304.923C312.264 304.139 311.626 303.502 310.842 303.502L310.842 303.502ZM313.797 328.067C313.797 328.422 313.508 328.711 313.153 328.711L274.645 328.711C274.289 328.711 274 328.422 274 328.067L274 302.644C274 302.289 274.289 302 274.645 302L313.153 302C313.508 302 313.797 302.289 313.797 302.644L313.797 328.067ZM313.153 300 274.645 300C273.187 300 272 301.186 272 302.644L272 328.067C272 329.525 273.187 330.711 274.645 330.711L313.153 330.711C314.611 330.711 315.797 329.525 315.797 328.067L315.797 302.644C315.797 301.186 314.611 300 313.153 300L313.153 300Z" fill="royalblue" fill-rule="evenodd"/></g></svg>