<svg width="48" height="48" xmlns="http://www.w3.org/2000/svg" xmlns:xlink="http://www.w3.org/1999/xlink" xml:space="preserve" overflow="hidden"><defs><clipPath id="clip0"><rect x="866" y="410" width="48" height="48"/></clipPath></defs><g clip-path="url(#clip0)" transform="translate(-866 -410)"><path d="M873.972 412 873.972 417.206 871 417.206 871 419.206 873.972 419.206 873.972 422.467 871 422.467 871 424.467 873.972 424.467 873.972 427.781 871 427.781 871 429.78 873.972 429.78 873.972 433.055 871 433.055 871 435.054 873.972 435.054 873.972 438.247 871 438.247 871 440.247 873.972 440.247 873.972 443.48 871 443.48 871 445.48 873.972 445.48 873.972 448.794 871 448.794 871 450.794 873.972 450.794 873.972 455.973 909.586 455.973 909.586 412 873.972 412ZM875.972 414.001 907.586 414.001 907.586 453.973 875.972 453.973 875.972 450.794 879.051 450.794 879.051 448.794 875.972 448.794 875.972 445.48 879.051 445.48 879.051 443.48 875.972 443.48 875.972 440.247 879.051 440.247 879.051 438.247 875.972 438.247 875.972 435.054 879.051 435.054 879.051 433.055 875.972 433.055 875.972 429.78 879.051 429.78 879.051 427.781 875.972 427.781 875.972 424.467 879.051 424.467 879.051 422.467 875.972 422.467 875.972 419.206 879.051 419.206 879.051 417.206 875.972 417.206 875.972 414.001ZM882.861 419.206 902.559 419.206 902.559 417.206 882.861 417.206 882.861 419.206ZM882.861 425.594 902.559 425.594 902.559 423.593 882.861 423.593 882.861 425.594ZM882.861 431.927 902.559 431.927 902.559 429.927 882.861 429.927 882.861 431.927ZM882.861 438.314 892.764 438.314 892.764 436.313 882.861 436.313 882.861 438.314Z" fill="#00B0F0" fill-rule="evenodd"/></g></svg>