<svg width="48" height="48" xmlns="http://www.w3.org/2000/svg" xmlns:xlink="http://www.w3.org/1999/xlink" xml:space="preserve" overflow="hidden"><defs><clipPath id="clip0"><rect x="622" y="295" width="48" height="48"/></clipPath></defs><g clip-path="url(#clip0)" transform="translate(-622 -295)"><path d="M658.931 321.479C658.443 321.545 658.061 321.946 658.061 322.453L658.061 325.431 655.733 324.655 658.418 320.73 658.931 321.479ZM660.061 329.313 665.921 329.313 665.921 323.453 660.061 323.453 660.061 329.313ZM655.694 334.452 655.694 332.059C655.694 331.506 655.246 331.059 654.694 331.059L651.35 331.059 654.558 326.371 658.061 327.54 658.061 330.313C658.061 330.866 658.508 331.313 659.061 331.313L659.895 331.313C658.377 332.464 656.816 333.624 655.694 334.452L655.694 334.452ZM647.835 338.919 653.694 338.919 653.694 333.059 647.835 333.059 647.835 338.919ZM626 324.946 637.974 324.946 637.974 312.972 626 312.972 626 324.946ZM647.834 304.859 653.693 304.859 653.693 299 647.834 299 647.834 304.859ZM659.896 306.606 659.061 306.606C658.508 306.606 658.061 307.053 658.061 307.606L658.061 310.378 654.558 311.547 651.35 306.859 654.694 306.859C655.246 306.859 655.694 306.412 655.694 305.859L655.694 303.467C656.816 304.294 658.378 305.455 659.896 306.606L659.896 306.606ZM660.061 314.466 665.921 314.466 665.921 308.606 660.061 308.606 660.061 314.466ZM655.732 313.263 658.061 312.486 658.061 315.466C658.061 315.973 658.443 316.374 658.931 316.44L658.418 317.189 655.732 313.263ZM639.974 319.4 639.974 318.518 653.759 313.92 657.206 318.959 653.759 323.998 639.974 319.4ZM646.243 306.643C646.41 306.77 646.608 306.859 646.834 306.859L648.927 306.859 652.585 312.205 639.974 316.41 639.974 311.972C639.974 311.901 639.948 311.838 639.934 311.772L646.243 306.643ZM646.834 331.059C646.608 331.059 646.41 331.148 646.242 331.275L639.934 326.146C639.948 326.08 639.974 326.017 639.974 325.946L639.974 321.507 652.585 325.713 648.927 331.059 646.834 331.059ZM661.335 316.466 666.921 316.466C667.474 316.466 667.921 316.019 667.921 315.466L667.921 307.606C667.921 307.053 667.474 306.606 666.921 306.606L663.178 306.606C660.557 304.558 656.9 301.869 655.694 300.985L655.694 298C655.694 297.447 655.246 297 654.694 297L646.834 297C646.282 297 645.834 297.447 645.834 298L645.834 304.396 637.745 310.972 625 310.972C624.448 310.972 624 311.419 624 311.972L624 325.946C624 326.499 624.448 326.946 625 326.946L637.745 326.946 645.834 333.523 645.834 339.919C645.834 340.472 646.282 340.919 646.834 340.919L654.694 340.919C655.246 340.919 655.694 340.472 655.694 339.919L655.694 336.934C656.9 336.049 660.556 333.36 663.178 331.313L666.921 331.313C667.474 331.313 667.921 330.866 667.921 330.313L667.921 322.453C667.921 321.9 667.474 321.453 666.921 321.453L661.335 321.453 659.629 318.959 661.335 316.466Z" fill="#00B0F0" fill-rule="evenodd"/></g></svg>