<svg width="48" height="48" xmlns="http://www.w3.org/2000/svg" xmlns:xlink="http://www.w3.org/1999/xlink" xml:space="preserve" overflow="hidden"><defs><clipPath id="clip0"><rect x="593" y="298" width="48" height="48"/></clipPath></defs><g clip-path="url(#clip0)" transform="translate(-593 -298)"><path d="M608.437 319.52 625.064 319.52 625.064 317.52 608.437 317.52 608.437 319.52ZM608.437 315.196 625.064 315.196 625.064 313.196 608.437 313.196 608.437 315.196ZM608.437 310.762 625.064 310.762 625.064 308.762 608.437 308.762 608.437 310.762ZM608.437 306.494 625.064 306.494 625.064 304.494 608.437 304.494 608.437 306.494ZM606 342.013 627.499 342.013 627.499 302 606 302 606 342.013ZM628.032 300 605.468 300C604.659 300 604 300.659 604 301.469L604 342.545C604 343.355 604.659 344.013 605.468 344.013L628.032 344.013C628.841 344.013 629.499 343.355 629.499 342.545L629.499 301.469C629.499 300.659 628.841 300 628.032 300L628.032 300Z" fill="#00B0F0" fill-rule="evenodd"/></g></svg>