<svg width="48" height="48" xmlns="http://www.w3.org/2000/svg" xmlns:xlink="http://www.w3.org/1999/xlink" xml:space="preserve" overflow="hidden"><defs><clipPath id="clip0"><rect x="514" y="295" width="48" height="48"/></clipPath></defs><g clip-path="url(#clip0)" transform="translate(-514 -295)"><path d="M550.946 321.491C550.458 321.557 550.076 321.958 550.076 322.465L550.076 325.446 547.745 324.669 550.433 320.74 550.946 321.491ZM552.076 329.329 557.94 329.329 557.94 323.465 552.076 323.465 552.076 329.329ZM547.708 334.47 547.708 332.076C547.708 331.523 547.26 331.076 546.708 331.076L543.36 331.076 546.571 326.385 550.076 327.553 550.076 330.329C550.076 330.882 550.523 331.329 551.076 331.329L551.913 331.329C550.394 332.481 548.831 333.642 547.708 334.47L547.708 334.47ZM539.844 338.94 545.708 338.94 545.708 333.076 539.844 333.076 539.844 338.94ZM524.426 328.455C520.423 328.455 518.106 327.304 518 326.82L517.999 313.747C519.648 314.546 522.087 314.927 524.426 314.927 526.766 314.927 529.205 314.546 530.853 313.747L530.854 326.812C530.745 327.303 528.426 328.455 524.426 328.455L524.426 328.455ZM530.678 311.519C530.07 312.07 527.88 312.927 524.426 312.927 520.966 312.927 518.773 312.067 518.172 311.521 518.774 310.97 520.966 310.112 524.426 310.112 527.88 310.112 530.07 310.968 530.678 311.519L530.678 311.519ZM539.843 304.864 545.707 304.864 545.707 299 539.843 299 539.843 304.864ZM551.913 306.611 551.076 306.611C550.523 306.611 550.076 307.058 550.076 307.611L550.076 310.387 546.571 311.555 543.36 306.864 546.708 306.864C547.26 306.864 547.708 306.417 547.708 305.864L547.708 303.47C548.831 304.298 550.394 305.459 551.913 306.611L551.913 306.611ZM552.076 314.475 557.94 314.475 557.94 308.611 552.076 308.611 552.076 314.475ZM547.745 313.271 550.076 312.494 550.076 315.475C550.076 315.982 550.458 316.384 550.946 316.449L550.433 317.2 547.745 313.271ZM532.853 319.701 532.853 318.239 545.772 313.929 549.221 318.97 545.772 324.011 532.853 319.701ZM538.25 306.648C538.418 306.775 538.617 306.864 538.843 306.864L540.937 306.864 544.598 312.214 532.853 316.132 532.853 311.748C532.853 311.669 532.837 311.595 532.828 311.519 532.837 311.443 532.853 311.37 532.853 311.291L532.801 311.291C532.789 311.232 532.761 311.178 532.743 311.121L538.25 306.648ZM538.843 331.076C538.617 331.076 538.418 331.165 538.25 331.293L532.844 326.903C532.845 326.875 532.853 326.848 532.853 326.82L532.853 321.808 544.598 325.726 540.937 331.076 538.843 331.076ZM553.351 316.475 558.94 316.475C559.493 316.475 559.94 316.028 559.94 315.475L559.94 307.611C559.94 307.058 559.493 306.611 558.94 306.611L555.195 306.611C552.573 304.562 548.915 301.872 547.708 300.987L547.708 298C547.708 297.447 547.26 297 546.708 297L538.843 297C538.291 297 537.843 297.447 537.843 298L537.843 304.4 531.428 309.611C529.811 308.594 527.058 308.112 524.426 308.112 520.625 308.112 516.551 309.111 516.051 311.291L516 311.291C516 311.37 516.016 311.443 516.025 311.519 516.016 311.595 516 311.669 516 311.748L516 326.82C516 329.317 520.368 330.455 524.426 330.455 527.298 330.455 530.316 329.883 531.842 328.665L537.843 333.54 537.843 339.94C537.843 340.493 538.291 340.94 538.843 340.94L546.708 340.94C547.26 340.94 547.708 340.493 547.708 339.94L547.708 336.953C548.915 336.068 552.573 333.378 555.195 331.329L558.94 331.329C559.493 331.329 559.94 330.882 559.94 330.329L559.94 322.465C559.94 321.912 559.493 321.465 558.94 321.465L553.351 321.465 551.644 318.97 553.351 316.475Z" fill="#8C4FFF" fill-rule="evenodd"/></g></svg>