<svg width="48" height="48" xmlns="http://www.w3.org/2000/svg" xmlns:xlink="http://www.w3.org/1999/xlink" xml:space="preserve" overflow="hidden"><defs><clipPath id="clip0"><rect x="882" y="294" width="48" height="48"/></clipPath></defs><g clip-path="url(#clip0)" transform="translate(-882 -294)"><path d="M917.375 334.5C916.237 334.5 915.312 333.575 915.312 332.437 915.312 331.3 916.237 330.375 917.375 330.375 918.513 330.375 919.438 331.3 919.438 332.437 919.438 333.575 918.513 334.5 917.375 334.5L917.375 334.5ZM917.375 328.375C915.135 328.375 913.313 330.197 913.313 332.437 913.313 334.678 915.135 336.5 917.375 336.5 919.615 336.5 921.437 334.678 921.437 332.437 921.437 330.197 919.615 328.375 917.375 328.375L917.375 328.375ZM917.375 319.625C916.237 319.625 915.312 318.7 915.312 317.563 915.312 316.425 916.237 315.5 917.375 315.5 918.513 315.5 919.438 316.425 919.438 317.563 919.438 318.7 918.513 319.625 917.375 319.625L917.375 319.625ZM917.375 313.5C915.135 313.5 913.313 315.322 913.313 317.563 913.313 319.803 915.135 321.625 917.375 321.625 919.615 321.625 921.437 319.803 921.437 317.563 921.437 315.322 919.615 313.5 917.375 313.5L917.375 313.5ZM917.375 300.625C918.513 300.625 919.438 301.55 919.438 302.688 919.438 303.825 918.513 304.75 917.375 304.75 916.237 304.75 915.312 303.825 915.312 302.688 915.312 301.55 916.237 300.625 917.375 300.625L917.375 300.625ZM917.375 306.75C919.615 306.75 921.437 304.928 921.437 302.688 921.437 300.447 919.615 298.625 917.375 298.625 915.135 298.625 913.313 300.447 913.313 302.688 913.313 304.928 915.135 306.75 917.375 306.75L917.375 306.75ZM886 337.125 903.25 337.125 903.25 327.75 886 327.75 886 337.125ZM884 339.125 905.25 339.125 905.25 325.75 884 325.75 884 339.125ZM886 322.25 903.25 322.25 903.25 312.875 886 312.875 886 322.25ZM884 324.25 905.25 324.25 905.25 310.875 884 310.875 884 324.25ZM886 307.375 903.25 307.375 903.25 298 886 298 886 307.375ZM884 309.375 905.25 309.375 905.25 296 884 296 884 309.375ZM908.75 337.125 926 337.125 926 327.75 908.75 327.75 908.75 337.125ZM906.75 339.125 928 339.125 928 325.75 906.75 325.75 906.75 339.125ZM908.75 322.25 926 322.25 926 312.875 908.75 312.875 908.75 322.25ZM906.75 324.25 928 324.25 928 310.875 906.75 310.875 906.75 324.25ZM908.75 307.375 926 307.375 926 298 908.75 298 908.75 307.375ZM906.75 309.375 928 309.375 928 296 906.75 296 906.75 309.375Z" fill="#00B0F0" fill-rule="evenodd"/></g></svg>