<svg width="48" height="48" xmlns="http://www.w3.org/2000/svg" xmlns:xlink="http://www.w3.org/1999/xlink" xml:space="preserve" overflow="hidden"><defs><clipPath id="clip0"><rect x="809" y="300" width="48" height="48"/></clipPath></defs><g clip-path="url(#clip0)" transform="translate(-809 -300)"><path d="M824 320 837 320 837 318 824 318 824 320ZM824 334 837 334 837 332 824 332 824 334ZM824 327 841 327 841 325 824 325 824 327ZM819 344 819.007 304 837 304 837 313C837 313.552 837.447 314 838 314L847 314 847.025 344 819 344ZM839 305.414 845.586 312 839 312 839 305.414ZM848.707 312.293 838.707 302.293C838.52 302.105 838.266 302 838 302L819 302C817.822 302 817 302.822 817 304L817 344C817 345.14 817.859 346 819 346L847.025 346C848.151 346 849 345.14 849 344L849 313C849 312.735 848.895 312.48 848.707 312.293L848.707 312.293Z" fill="#FFFFFF" fill-rule="evenodd"/></g></svg>