<svg width="48" height="48" xmlns="http://www.w3.org/2000/svg" xmlns:xlink="http://www.w3.org/1999/xlink" xml:space="preserve" overflow="hidden"><defs><clipPath id="clip0"><rect x="702" y="528" width="48" height="48"/></clipPath></defs><g clip-path="url(#clip0)" transform="translate(-702 -528)"><path d="M708.025 572C708.524 562.085 716.395 554.178 726 554.178 729.248 554.178 732.43 555.092 735.205 556.822 740.354 560.033 743.653 565.783 743.974 572L708.025 572ZM716.192 541.878C716.192 536.432 720.592 532 726.001 532 731.408 532 735.807 536.432 735.807 541.878 735.807 547.325 731.408 551.757 726.001 551.757 720.592 551.757 716.192 547.325 716.192 541.878L716.192 541.878ZM736.263 555.125C734.53 554.044 732.65 553.26 730.698 552.771 734.877 550.939 737.807 546.749 737.807 541.878 737.807 535.329 732.51 530 726.001 530 719.489 530 714.192 535.329 714.192 541.878 714.192 546.755 717.13 550.95 721.317 552.778 712.545 554.981 706 563.2 706 573 706 573.552 706.447 574 707 574L745 574C745.552 574 746 573.552 746 573 746 565.719 742.269 558.87 736.263 555.125L736.263 555.125Z" fill="#FFFFFF" fill-rule="evenodd"/></g></svg>